SplineFontDB: 3.2
FontName: OctoberCrow
FullName: October Crow
FamilyName: October Crow
Weight: Book
Copyright: Typeface (c) Chad Savage 2010. All Rights Reserved
Version: 1.00 October 31, 2010, initial release
ItalicAngle: 0
UnderlinePosition: -292
UnderlineWidth: 150
Ascent: 1638
Descent: 410
InvalidEm: 0
sfntRevision: 0x00010000
LayerCount: 2
Layer: 0 1 "Arri+AOgA-re" 1
Layer: 1 1 "Avant" 0
XUID: [1021 52 -140397510 17755]
StyleMap: 0x0040
FSType: 8
OS2Version: 3
OS2_WeightWidthSlopeOnly: 0
OS2_UseTypoMetrics: 0
CreationTime: 1288496135
ModificationTime: 1704914311
PfmFamily: 17
TTFWeight: 400
TTFWidth: 5
LineGap: 222
VLineGap: 0
Panose: 2 0 5 0 0 0 0 0 0 0
OS2TypoAscent: 1434
OS2TypoAOffset: 0
OS2TypoDescent: -410
OS2TypoDOffset: 0
OS2TypoLinegap: 205
OS2WinAscent: 1716
OS2WinAOffset: 0
OS2WinDescent: 418
OS2WinDOffset: 0
HheadAscent: 1716
HheadAOffset: 0
HheadDescent: -418
HheadDOffset: 0
OS2SubXSize: 1434
OS2SubYSize: 1331
OS2SubXOff: 0
OS2SubYOff: 283
OS2SupXSize: 1434
OS2SupYSize: 1331
OS2SupXOff: 0
OS2SupYOff: 977
OS2StrikeYSize: 102
OS2StrikeYPos: 530
OS2CapHeight: 1434
OS2XHeight: 1024
OS2Vendor: 'HL  '
OS2CodePages: 20000111.41000000
OS2UnicodeRanges: 800000a7.5000004a.00000000.00000000
DEI: 91125
ShortTable: maxp 16
  1
  0
  236
  1469
  77
  0
  0
  0
  0
  0
  0
  0
  0
  0
  0
  0
EndShort
LangName: 1033 "Typeface +AKkA Chad Savage 2010. All Rights Reserved" "" "Regular" "October Crow: Version 1.00" "" "Version 1.00 October 31, 2010, initial release" "" "" "Sinister Fonts" "Chad Savage" "Hand-drawn while watching The Crow on Devil's Night, 2010; turned into a font on Halloween." "http://www.sinisterfonts.com" "http://www.sinistervisions.com" "100% Freeware - Use it for whatever you want!" "http://www.sinisterfonts.com"
LangName: 1027 "" "" "Normal"
LangName: 1029 "" "" "oby+AQ0A-ejn+AOkA"
LangName: 1030 "" "" "normal"
LangName: 1031 "" "" "Standard"
LangName: 1032 "" "" "+A5oDsQO9A78DvQO5A7oDrAAA"
LangName: 1034 "" "" "Normal"

StartChar: .notdef
Encoding: 65536 -1 0
Width: 1024
GlyphClass: 1
Flags: W
LayerCount: 2
Fore
SplineSet
100 0 m 1,0,-1
 100 1434 l 1,1,-1
 924 1434 l 1,2,-1
 924 0 l 1,3,-1
 100 0 l 1,0,-1
150 50 m 1,4,-1
 874 50 l 1,5,-1
 874 1384 l 1,6,-1
 150 1384 l 1,7,-1
 150 50 l 1,4,-1
325 1148 m 1,8,9
 356 1176 356 1176 383 1191 c 0,10,11
 436 1221 436 1221 495 1221 c 0,12,13
 587 1221 587 1221 643 1173.5 c 128,-1,14
 699 1126 699 1126 699 1046 c 0,15,16
 699 997 699 997 676 947.5 c 128,-1,17
 653 898 653 898 589 818 c 0,18,19
 526 738 526 738 490 686 c 128,-1,20
 454 634 454 634 454 587 c 0,21,22
 454 549 454 549 478 454 c 1,23,-1
 446 454 l 1,24,25
 411 551 411 551 411 602 c 0,26,27
 411 678 411 678 492.5 820 c 128,-1,28
 574 962 574 962 574 1037 c 0,29,30
 574 1094 574 1094 541 1127 c 128,-1,31
 508 1160 508 1160 450 1160 c 0,32,33
 412 1160 412 1160 381 1143 c 0,34,35
 355 1128 355 1128 325 1103 c 1,36,-1
 325 1148 l 1,8,9
389 334 m 2,37,-1
 446 392 l 2,38,39
 457 402 457 402 466 402 c 0,40,41
 476 402 476 402 488 391 c 2,42,-1
 544 331 l 2,43,44
 553 320 553 320 553 311 c 0,45,46
 553 300 553 300 543 289 c 2,47,-1
 487 227 l 2,48,49
 473 213 473 213 466 213 c 0,50,51
 455 213 455 213 446 223 c 2,52,-1
 385 294 l 2,53,54
 378 303 378 303 378 312 c 0,55,56
 378 322 378 322 389 334 c 2,37,-1
EndSplineSet
EndChar

StartChar: exclam
Encoding: 33 33 4
Width: 403
GlyphClass: 1
Flags: W
LayerCount: 2
Fore
SplineSet
143 1192 m 1,1,2
 138 1194 138 1194 136 1195 c 1,3,0
 141 1194 141 1194 143 1192 c 1,1,2
114 1281 m 1,4,5
 110 1282 110 1282 108 1284 c 0,6,7
 106 1285 106 1285 106 1285 c 257,8,9
 106 1285 106 1285 100 1281 c 1,10,11
 96 1286 96 1286 97 1297 c 1,12,-1
 107 1297 l 1,13,14
 109 1291 109 1291 114 1287 c 1,15,-1
 114 1281 l 1,4,5
101 1350 m 0,17,18
 104 1337 104 1337 107 1333 c 0,19,20
 106 1327 106 1327 100 1317 c 1,21,-1
 94 1317 l 1,22,23
 94 1318 94 1318 94 1366 c 1,24,16
 99 1361 99 1361 101 1350 c 0,17,18
71 1376 m 0,26,27
 70 1378 70 1378 68 1385 c 1,28,-1
 77 1385 l 2,29,30
 79 1384 79 1384 81 1382 c 1,31,32
 79 1380 79 1380 77 1379 c 0,33,25
 75 1377 75 1377 71 1376 c 0,26,27
287 1536 m 1,35,36
 279 1534 279 1534 273 1530 c 0,37,38
 266 1525 266 1525 261 1523 c 1,39,40
 260 1435 260 1435 251 1418 c 0,41,42
 250 1416 250 1416 237 1401 c 0,43,44
 231 1394 231 1394 232 1372 c 1,45,46
 223 1374 223 1374 218 1379 c 1,47,48
 212 1370 212 1370 208 1355 c 0,49,50
 203 1340 203 1340 199 1333 c 0,51,52
 197 1332 197 1332 192 1330 c 0,53,54
 188 1328 188 1328 186 1326 c 2,55,-1
 186 1310 l 1,56,57
 176 1304 176 1304 176 1304 c 2,58,59
 175 1300 175 1300 176 1295 c 0,60,61
 178 1291 178 1291 176 1287 c 2,62,-1
 176 1284 l 1,63,-1
 173 1284 l 1,64,65
 172 1320 172 1320 176 1340 c 0,66,67
 177 1346 177 1346 174 1363 c 0,68,69
 171 1379 171 1379 173 1382 c 0,70,71
 174 1383 174 1383 177 1384 c 0,72,73
 181 1385 181 1385 182 1385 c 1,74,75
 179 1414 179 1414 179 1415 c 0,76,77
 187 1440 187 1440 186 1448 c 0,78,79
 185 1455 185 1455 192 1472 c 0,80,81
 198 1485 198 1485 189 1497 c 2,82,-1
 186 1503 l 2,83,84
 189 1505 189 1505 163 1484 c 1,85,86
 162 1461 162 1461 146 1386 c 0,87,88
 133 1327 133 1327 143 1284 c 0,89,90
 144 1281 144 1281 140 1279 c 0,91,92
 137 1278 137 1278 136 1277 c 0,93,94
 135 1274 135 1274 140 1218 c 1,95,-1
 140 1205 l 1,96,97
 126 1211 126 1211 130 1230 c 0,98,99
 135 1253 135 1253 130 1261 c 1,100,-1
 123 1261 l 1,101,102
 132 1272 132 1272 127 1341 c 0,103,104
 123 1416 123 1416 123 1418 c 1,105,-1
 120 1418 l 1,106,-1
 120 1421 l 1,107,108
 106 1415 106 1415 104 1395 c 1,109,-1
 97 1395 l 1,110,111
 91 1416 91 1416 91 1421 c 1,112,-1
 84 1421 l 1,113,114
 78 1406 78 1406 77 1392 c 1,115,-1
 74 1392 l 1,116,117
 74 1433 74 1433 87 1451 c 0,118,119
 86 1455 86 1455 84 1459 c 256,120,121
 82 1463 82 1463 81 1467 c 1,122,123
 45 1463 45 1463 42 1393 c 0,124,125
 39 1336 39 1336 55 1290 c 0,126,127
 56 1286 56 1286 57 1276 c 256,128,129
 58 1266 58 1266 61 1258 c 0,130,131
 62 1255 62 1255 68 1249 c 0,132,133
 74 1244 74 1244 74 1241 c 0,134,135
 76 1235 76 1235 72 1221 c 0,136,137
 69 1207 69 1207 71 1199 c 0,138,139
 71 1197 71 1197 76 1192 c 0,140,141
 80 1187 80 1187 81 1186 c 0,142,143
 79 1158 79 1158 77 1133 c 1,144,145
 93 1073 93 1073 99 963 c 0,146,147
 105 838 105 838 114 789 c 0,148,149
 114 785 114 785 110 773 c 0,150,151
 104 759 104 759 104 756 c 0,152,153
 101 744 101 744 107 740 c 0,154,155
 114 735 114 735 114 737 c 0,156,157
 112 741 112 741 107 720 c 0,158,159
 107 718 107 718 114 691 c 0,160,161
 121 662 121 662 107 632 c 0,162,163
 107 631 107 631 102 627 c 256,164,165
 97 623 97 623 97 622 c 0,166,167
 92 599 92 599 97 556 c 0,168,169
 98 549 98 549 90 531 c 0,170,171
 85 518 85 518 94 507 c 0,172,173
 97 506 97 506 104 507 c 1,174,175
 110 491 110 491 110 491 c 2,176,177
 113 489 113 489 117 489 c 256,178,179
 121 489 121 489 123 488 c 0,180,181
 131 485 131 485 143 448 c 1,182,183
 154 449 154 449 173 461 c 1,184,185
 175 532 175 532 189 596 c 0,186,187
 191 606 191 606 186 620 c 256,188,189
 181 634 181 634 182 638 c 1,190,191
 181 635 181 635 199 779 c 0,192,193
 199 784 199 784 197 802 c 0,194,195
 196 818 196 818 199 828 c 0,196,197
 208 864 208 864 224 964 c 0,198,199
 238 1053 238 1053 248 1084 c 0,200,201
 260 1119 260 1119 254 1143 c 1,202,203
 254 1143 254 1143 249 1143 c 0,204,205
 246 1142 246 1142 248 1146 c 0,206,207
 259 1173 259 1173 264 1202 c 0,208,209
 294 1377 294 1377 290 1369 c 1,210,211
 293 1377 293 1377 291 1393 c 0,212,213
 289 1408 289 1408 290 1412 c 0,214,215
 291 1413 291 1413 297 1416 c 256,216,217
 303 1419 303 1419 304 1421 c 0,218,219
 308 1433 308 1433 311 1459 c 0,220,221
 313 1477 313 1477 327 1490 c 1,222,223
 326 1508 326 1508 318 1510 c 0,224,225
 316 1511 316 1511 309 1511 c 0,226,227
 304 1511 304 1511 300 1513 c 0,228,34
 297 1516 297 1516 287 1536 c 1,35,36
166 106 m 0,230,231
 159 98 159 98 156 94 c 1,232,233
 147 95 147 95 136 101 c 1,234,235
 134 171 134 171 150 209 c 1,236,237
 168 205 168 205 166 203 c 1,238,239
 183 199 183 199 189 176 c 0,240,241
 192 170 192 170 188 149 c 0,242,243
 183 127 183 127 176 117 c 0,244,229
 173 112 173 112 166 106 c 0,230,231
97 49 m 1,245,246
 75 61 75 61 64 78 c 0,247,248
 61 80 61 80 63 82 c 0,249,250
 67 87 67 87 68 88 c 1,251,252
 61 90 61 90 55 91 c 1,253,254
 54 104 54 104 49 112 c 0,255,256
 43 123 43 123 41 127 c 0,257,258
 33 157 33 157 46 186 c 0,259,260
 48 189 48 189 71 226 c 1,261,262
 89 223 89 223 97 226 c 0,263,264
 99 224 99 224 100 222 c 0,265,266
 95 173 95 173 55 160 c 1,267,268
 47 93 47 93 97 58 c 1,269,-1
 97 49 l 1,245,246
247 269 m 0,271,272
 244 272 244 272 231 282 c 0,273,274
 221 290 221 290 215 298 c 1,275,276
 116 300 116 300 114 298 c 0,277,278
 111 298 111 298 100 304 c 1,279,280
 94 299 94 299 81 295 c 0,281,282
 67 291 67 291 61 288 c 0,283,284
 23 262 23 262 2 209 c 0,285,286
 -2 200 -2 200 0 184 c 0,287,288
 3 166 3 166 2 163 c 0,289,290
 -7 111 -7 111 18 67 c 0,291,292
 42 26 42 26 84 9 c 0,293,294
 124 -7 124 -7 165 5 c 0,295,296
 202 16 202 16 225 45 c 0,297,298
 228 49 228 49 228 58 c 0,299,300
 229 68 229 68 232 72 c 0,301,302
 237 74 237 74 245 78 c 0,303,304
 247 82 247 82 244 90 c 0,305,306
 241 97 241 97 241 98 c 0,307,308
 242 101 242 101 248 105 c 0,309,310
 253 109 253 109 254 111 c 0,311,312
 247 124 247 124 251 137 c 0,313,314
 272 210 272 210 264 226 c 1,315,270
 264 253 264 253 247 269 c 0,271,272
EndSplineSet
EndChar

StartChar: quotedbl
Encoding: 34 34 5
Width: 672
GlyphClass: 1
Flags: W
LayerCount: 2
Fore
SplineSet
134 1389 m 1,1,2
 129 1389 129 1389 127 1390 c 1,3,0
 132 1389 132 1389 134 1389 c 1,1,2
104 1435 m 1,4,5
 95 1437 95 1437 90 1435 c 0,6,7
 86 1437 86 1437 87 1443 c 1,8,-1
 97 1443 l 2,9,10
 100 1440 100 1440 104 1438 c 1,11,-1
 104 1435 l 1,4,5
92 1471 m 0,13,14
 94 1464 94 1464 97 1462 c 0,15,16
 96 1459 96 1459 90 1453 c 1,17,-1
 84 1453 l 1,18,19
 84 1454 84 1454 84 1479 c 1,20,12
 89 1477 89 1477 92 1471 c 0,13,14
60 1484 m 0,22,23
 59 1486 59 1486 57 1489 c 1,24,-1
 67 1489 l 2,25,26
 69 1488 69 1488 71 1488 c 1,27,28
 69 1487 69 1487 67 1486 c 256,29,21
 65 1485 65 1485 60 1484 c 0,22,23
281 1568 m 1,31,32
 272 1567 272 1567 266 1565 c 0,33,34
 259 1562 259 1562 254 1561 c 1,35,36
 253 1515 253 1515 244 1506 c 0,37,38
 243 1505 243 1505 229 1497 c 0,39,40
 223 1494 223 1494 224 1483 c 1,41,42
 215 1483 215 1483 211 1486 c 1,43,44
 204 1481 204 1481 200 1474 c 0,45,46
 195 1466 195 1466 191 1462 c 0,47,48
 186 1461 186 1461 177 1459 c 1,49,-1
 177 1450 l 1,50,51
 169 1447 169 1447 167 1447 c 0,52,53
 166 1445 166 1445 168 1442 c 0,54,55
 169 1440 169 1440 167 1438 c 2,56,-1
 167 1436 l 1,57,-1
 164 1436 l 1,58,59
 164 1455 164 1455 167 1465 c 0,60,61
 168 1469 168 1469 165 1478 c 0,62,63
 163 1486 163 1486 164 1488 c 0,64,65
 166 1488 166 1488 169 1488 c 0,66,67
 172 1489 172 1489 174 1489 c 1,68,69
 171 1504 171 1504 171 1505 c 0,70,71
 172 1506 172 1506 174 1509 c 0,72,73
 176 1511 176 1511 176 1512 c 0,74,75
 179 1516 179 1516 177 1522 c 0,76,77
 176 1526 176 1526 184 1535 c 0,78,79
 190 1541 190 1541 181 1547 c 0,80,81
 179 1549 179 1549 177 1551 c 0,82,83
 170 1549 170 1549 164 1546 c 0,84,85
 156 1541 156 1541 154 1541 c 1,86,87
 154 1529 154 1529 137 1490 c 0,88,89
 124 1459 124 1459 134 1436 c 0,90,91
 135 1435 135 1435 131 1434 c 256,92,93
 127 1433 127 1433 127 1433 c 2,94,95
 126 1431 126 1431 131 1402 c 1,96,-1
 131 1395 l 1,97,98
 117 1398 117 1398 121 1408 c 0,99,100
 125 1421 125 1421 121 1424 c 2,101,-1
 114 1424 l 1,102,103
 122 1430 122 1430 118 1466 c 0,104,105
 113 1505 113 1505 114 1506 c 1,106,-1
 111 1506 l 1,107,-1
 111 1508 l 1,108,109
 97 1505 97 1505 94 1494 c 1,110,-1
 87 1494 l 1,111,112
 81 1505 81 1505 80 1508 c 2,113,-1
 74 1508 l 1,114,115
 68 1500 68 1500 67 1493 c 1,116,-1
 64 1493 l 1,117,118
 63 1514 63 1514 77 1523 c 0,119,120
 76 1526 76 1526 74 1528 c 256,121,122
 72 1530 72 1530 71 1532 c 0,123,124
 34 1530 34 1530 31 1494 c 0,125,126
 28 1464 28 1464 44 1440 c 0,127,128
 45 1437 45 1437 46 1432 c 256,129,130
 47 1427 47 1427 50 1423 c 0,131,132
 51 1422 51 1422 57 1418 c 0,133,134
 63 1416 63 1416 64 1414 c 0,135,136
 65 1411 65 1411 62 1403 c 0,137,138
 58 1396 58 1396 60 1392 c 0,139,140
 61 1391 61 1391 65 1389 c 0,141,142
 70 1386 70 1386 71 1385 c 0,143,144
 69 1371 69 1371 67 1358 c 1,145,146
 83 1326 83 1326 89 1269 c 0,147,148
 95 1204 95 1204 104 1179 c 0,149,150
 105 1176 105 1176 100 1170 c 0,151,152
 94 1163 94 1163 94 1161 c 0,153,154
 92 1155 92 1155 97 1153 c 0,155,156
 104 1151 104 1151 104 1151 c 1,157,158
 102 1154 102 1154 97 1143 c 0,159,160
 95 1138 95 1138 99 1134 c 0,161,162
 105 1125 105 1125 104 1127 c 1,163,164
 106 1123 106 1123 103 1112 c 0,165,166
 101 1101 101 1101 97 1097 c 0,167,168
 97 1096 97 1096 92 1094 c 0,169,170
 88 1092 88 1092 87 1091 c 0,171,172
 82 1080 82 1080 87 1057 c 0,173,174
 95 1025 95 1025 84 1032 c 1,175,176
 86 1031 86 1031 94 1032 c 1,177,178
 100 1023 100 1023 101 1023 c 0,179,180
 103 1022 103 1022 107 1022 c 256,181,182
 111 1022 111 1022 114 1021 c 0,183,184
 121 1020 121 1020 134 1001 c 1,185,186
 145 1001 145 1001 164 1008 c 1,187,188
 166 1044 166 1044 181 1078 c 0,189,190
 183 1083 183 1083 178 1090 c 0,191,192
 173 1098 173 1098 174 1100 c 1,193,194
 173 1098 173 1098 191 1173 c 0,195,196
 191 1176 191 1176 189 1185 c 0,197,198
 188 1193 188 1193 191 1199 c 0,199,200
 200 1218 200 1218 216 1270 c 0,201,202
 230 1316 230 1316 241 1332 c 0,203,204
 244 1337 244 1337 246 1349 c 256,205,206
 248 1361 248 1361 247 1363 c 2,207,208
 247 1363 247 1363 242 1363 c 0,209,210
 239 1363 239 1363 241 1365 c 0,211,212
 252 1378 252 1378 257 1394 c 0,213,214
 287 1485 287 1485 284 1481 c 1,215,216
 287 1485 287 1485 285 1493 c 0,217,218
 282 1501 282 1501 284 1503 c 0,219,220
 285 1504 285 1504 290 1505 c 0,221,222
 296 1507 296 1507 297 1508 c 0,223,224
 302 1514 302 1514 305 1528 c 0,225,226
 307 1537 307 1537 321 1544 c 1,227,228
 320 1553 320 1553 312 1554 c 0,229,230
 310 1555 310 1555 303 1555 c 0,231,232
 298 1555 298 1555 294 1556 c 0,233,30
 291 1557 291 1557 281 1568 c 1,31,32
466 1416 m 1,235,236
 461 1417 461 1417 459 1418 c 1,237,234
 464 1417 464 1417 466 1416 c 1,235,236
436 1474 m 1,238,239
 433 1475 433 1475 431 1476 c 256,240,241
 429 1477 429 1477 429 1477 c 2,242,243
 428 1477 428 1477 423 1474 c 1,244,245
 418 1478 418 1478 419 1485 c 1,246,-1
 429 1485 l 1,247,248
 432 1481 432 1481 436 1479 c 1,249,-1
 436 1474 l 1,238,239
416 1531 m 1,250,251
 421 1528 421 1528 424 1520 c 256,252,253
 427 1512 427 1512 429 1509 c 0,254,255
 428 1505 428 1505 423 1498 c 1,256,-1
 416 1498 l 1,257,-1
 416 1531 l 1,250,251
393 1537 m 0,259,260
 391 1540 391 1540 389 1543 c 1,261,-1
 399 1543 l 2,262,263
 401 1542 401 1542 403 1541 c 1,264,265
 401 1540 401 1540 399 1539 c 256,266,258
 397 1538 397 1538 393 1537 c 0,259,260
613 1643 m 1,268,269
 604 1642 604 1642 599 1639 c 0,270,271
 591 1635 591 1635 586 1634 c 1,272,273
 585 1576 585 1576 576 1565 c 0,274,275
 575 1564 575 1564 561 1554 c 0,276,277
 555 1549 555 1549 556 1535 c 1,278,279
 547 1536 547 1536 543 1539 c 1,280,281
 536 1533 536 1533 532 1524 c 0,282,283
 527 1514 527 1514 523 1509 c 0,284,285
 520 1508 520 1508 516 1507 c 0,286,287
 512 1505 512 1505 509 1505 c 1,288,-1
 509 1494 l 1,289,290
 503 1491 503 1491 499 1490 c 0,291,292
 498 1487 498 1487 500 1484 c 0,293,294
 501 1481 501 1481 499 1479 c 2,295,-1
 499 1477 l 1,296,-1
 496 1477 l 1,297,298
 496 1500 496 1500 499 1513 c 0,299,300
 500 1517 500 1517 497 1529 c 0,301,302
 495 1539 495 1539 496 1541 c 0,303,304
 498 1542 498 1542 501 1542 c 0,305,306
 504 1543 504 1543 506 1543 c 1,307,308
 502 1565 502 1565 503 1563 c 1,309,310
 510 1579 510 1579 509 1585 c 0,311,312
 508 1589 508 1589 516 1601 c 0,313,314
 522 1609 522 1609 513 1617 c 0,315,316
 512 1618 512 1618 509 1621 c 1,317,318
 513 1622 513 1622 486 1608 c 1,319,320
 486 1593 486 1593 469 1544 c 0,321,322
 456 1505 456 1505 466 1477 c 0,323,324
 467 1475 467 1475 463 1474 c 256,325,326
 459 1473 459 1473 459 1472 c 0,327,328
 458 1470 458 1470 463 1433 c 1,329,-1
 463 1425 l 1,330,331
 449 1429 449 1429 453 1441 c 0,332,333
 457 1456 457 1456 453 1461 c 1,334,-1
 446 1461 l 1,335,336
 454 1469 454 1469 450 1514 c 0,337,338
 446 1564 446 1564 446 1565 c 1,339,-1
 443 1565 l 1,340,-1
 443 1567 l 1,341,342
 429 1563 429 1563 426 1550 c 1,343,-1
 419 1550 l 1,344,345
 413 1564 413 1564 413 1567 c 1,346,-1
 406 1567 l 1,347,348
 400 1557 400 1557 399 1548 c 1,349,-1
 396 1548 l 1,350,351
 395 1575 395 1575 409 1587 c 0,352,353
 408 1589 408 1589 406 1592 c 256,354,355
 404 1595 404 1595 403 1597 c 0,356,357
 366 1595 366 1595 363 1549 c 0,358,359
 360 1511 360 1511 376 1481 c 0,360,361
 377 1478 377 1478 378 1471 c 0,362,363
 379 1465 379 1465 383 1459 c 0,364,365
 383 1458 383 1458 390 1454 c 0,366,367
 395 1450 395 1450 396 1449 c 0,368,369
 397 1444 397 1444 394 1435 c 0,370,371
 390 1426 390 1426 393 1420 c 2,372,373
 393 1420 393 1420 398 1416 c 0,374,375
 402 1413 402 1413 403 1412 c 0,376,377
 401 1393 401 1393 399 1377 c 1,378,379
 415 1338 415 1338 421 1265 c 0,380,381
 427 1183 427 1183 436 1151 c 0,382,383
 437 1148 437 1148 432 1140 c 0,384,385
 426 1131 426 1131 426 1129 c 0,386,387
 424 1121 424 1121 429 1119 c 0,388,389
 436 1115 436 1115 436 1116 c 0,390,391
 434 1119 434 1119 429 1105 c 0,392,393
 427 1100 427 1100 431 1094 c 0,394,395
 437 1083 437 1083 436 1086 c 1,396,397
 438 1081 438 1081 436 1066 c 0,398,399
 433 1052 433 1052 429 1047 c 0,400,401
 429 1046 429 1046 424 1044 c 0,402,403
 420 1041 420 1041 419 1040 c 0,404,405
 414 1026 414 1026 419 997 c 0,406,407
 420 993 420 993 412 981 c 0,408,409
 406 972 406 972 416 965 c 0,410,411
 419 964 419 964 426 965 c 1,412,413
 432 954 432 954 433 954 c 0,414,415
 435 953 435 953 439 953 c 256,416,417
 443 953 443 953 446 952 c 0,418,419
 454 950 454 950 466 926 c 1,420,421
 477 926 477 926 496 935 c 1,422,423
 498 981 498 981 513 1023 c 0,424,425
 515 1030 515 1030 510 1039 c 0,426,427
 505 1049 505 1049 506 1051 c 1,428,429
 505 1049 505 1049 523 1144 c 0,430,431
 523 1147 523 1147 521 1159 c 0,432,433
 520 1169 520 1169 523 1176 c 0,434,435
 532 1200 532 1200 548 1266 c 0,436,437
 562 1325 562 1325 573 1345 c 0,438,439
 576 1351 576 1351 578 1366 c 256,440,441
 580 1381 580 1381 579 1384 c 2,442,443
 579 1384 579 1384 574 1384 c 0,444,445
 571 1383 571 1383 573 1386 c 0,446,447
 584 1403 584 1403 589 1423 c 0,448,449
 619 1538 619 1538 616 1533 c 1,450,451
 619 1538 619 1538 617 1548 c 0,452,453
 614 1559 614 1559 616 1561 c 0,454,455
 617 1562 617 1562 623 1564 c 0,456,457
 628 1566 628 1566 629 1567 c 0,458,459
 634 1575 634 1575 637 1592 c 0,460,461
 639 1604 639 1604 653 1613 c 1,462,463
 652 1624 652 1624 644 1626 c 0,464,465
 642 1626 642 1626 635 1626 c 0,466,467
 630 1626 630 1626 626 1628 c 0,468,267
 623 1629 623 1629 613 1643 c 1,268,269
EndSplineSet
EndChar

StartChar: numbersign
Encoding: 35 35 6
Width: 1336
GlyphClass: 1
Flags: W
LayerCount: 2
Fore
SplineSet
1035 575 m 1,1,2
 1030 577 1030 577 1028 579 c 1,3,0
 1033 577 1033 577 1035 575 c 1,1,2
937 575 m 1,5,-1
 937 586 l 1,6,7
 982 587 982 587 989 582 c 1,8,-1
 1025 582 l 1,9,10
 1023 577 1023 577 1021 575 c 0,11,4
 953 576 953 576 937 575 c 1,5,-1
926 1012 m 1,12,13
 916 1012 916 1012 915 1012 c 2,14,-1
 887 1012 l 1,15,16
 889 1018 889 1018 891 1030 c 256,17,18
 893 1042 893 1042 894 1047 c 1,19,-1
 930 1047 l 2,20,21
 931 1045 931 1045 933 1044 c 0,22,23
 931 1026 931 1026 926 1019 c 1,24,-1
 926 1012 l 1,12,13
902 834 m 0,26,27
 895 828 895 828 894 825 c 0,28,29
 893 817 893 817 887 787 c 0,30,31
 888 786 888 786 893 785 c 0,32,33
 896 785 896 785 894 780 c 0,34,35
 894 778 894 778 888 769 c 0,36,37
 881 761 881 761 880 758 c 0,38,39
 876 745 876 745 879 722 c 0,40,41
 881 703 881 703 873 692 c 1,42,43
 874 692 874 692 863 688 c 0,44,45
 861 690 861 690 859 692 c 0,46,47
 860 701 860 701 866 718 c 0,48,49
 872 736 872 736 873 744 c 0,50,51
 874 747 874 747 870 757 c 0,52,53
 867 766 867 766 870 773 c 0,54,55
 876 791 876 791 879 819 c 0,56,57
 881 849 881 849 884 857 c 0,58,59
 891 881 891 881 890 921 c 0,60,61
 888 960 888 960 880 970 c 1,62,63
 889 975 889 975 894 984 c 1,64,-1
 922 984 l 1,65,66
 922 946 922 946 908 906 c 0,67,68
 904 893 904 893 908 873 c 0,69,70
 911 851 911 851 908 843 c 0,71,25
 907 840 907 840 902 834 c 0,26,27
849 1103 m 2,73,-1
 852 1103 l 1,74,-1
 852 1107 l 1,75,76
 857 1105 857 1105 859 1103 c 1,77,78
 857 1102 857 1102 856 1100 c 0,79,72
 842 1101 842 1101 849 1103 c 2,73,-1
820 463 m 1,80,-1
 820 466 l 1,81,82
 822 464 822 464 824 459 c 1,83,84
 810 460 810 460 817 463 c 2,85,-1
 820 463 l 1,80,-1
796 339 m 1,86,-1
 789 339 l 1,87,88
 790 342 790 342 792 348 c 256,89,90
 794 354 794 354 796 357 c 2,91,-1
 803 357 l 1,92,93
 799 350 799 350 796 346 c 2,94,-1
 796 339 l 1,86,-1
785 311 m 1,95,96
 786 313 786 313 787 317 c 0,97,98
 788 320 788 320 789 322 c 1,99,100
 791 319 791 319 792 311 c 1,101,-1
 785 311 l 1,95,96
771 241 m 1,103,-1
 768 241 l 1,104,105
 773 274 773 274 771 280 c 1,106,107
 777 284 777 284 782 294 c 1,108,109
 786 287 786 287 782 280 c 1,110,102
 782 258 782 258 771 241 c 1,103,-1
764 572 m 1,111,-1
 764 579 l 1,112,-1
 782 579 l 1,113,-1
 782 575 l 1,114,115
 777 573 777 573 775 572 c 2,116,-1
 764 572 l 1,111,-1
711 568 m 1,117,-1
 711 575 l 1,118,119
 737 575 737 575 743 579 c 1,120,-1
 750 579 l 1,121,122
 750 578 750 578 739 568 c 1,123,-1
 711 568 l 1,117,-1
637 659 m 0,125,126
 600 655 600 655 581 649 c 0,127,128
 569 646 569 646 552 648 c 0,129,130
 533 651 533 651 525 649 c 0,131,132
 440 632 440 632 440 632 c 2,133,134
 438 634 438 634 437 635 c 0,135,136
 437 654 437 654 444 676 c 0,137,138
 453 708 453 708 454 716 c 0,139,140
 456 724 456 724 452 739 c 0,141,142
 447 756 447 756 447 765 c 1,143,-1
 458 765 l 1,144,145
 456 776 456 776 458 815 c 1,146,-1
 468 815 l 1,147,148
 469 826 469 826 472 848 c 0,149,150
 476 874 476 874 477 882 c 0,151,152
 481 924 481 924 468 941 c 1,153,154
 466 937 466 937 479 949 c 0,155,156
 483 953 483 953 485 964 c 0,157,158
 487 976 487 976 489 980 c 0,159,160
 497 985 497 985 512 985 c 0,161,162
 530 984 530 984 539 987 c 0,163,164
 561 995 561 995 792 991 c 1,165,166
 805 873 805 873 792 801 c 0,167,168
 791 793 791 793 793 767 c 0,169,170
 795 744 795 744 792 737 c 2,171,-1
 792 684 l 1,172,173
 782 682 782 682 764 676 c 0,174,175
 743 668 743 668 739 667 c 0,176,177
 731 664 731 664 718 668 c 0,178,179
 705 671 705 671 701 670 c 0,180,124
 677 665 677 665 637 659 c 0,125,126
680 572 m 1,182,183
 677 572 677 572 687 572 c 0,184,185
 691 572 691 572 690 568 c 1,186,181
 679 573 679 573 680 572 c 1,182,183
644 565 m 1,187,188
 637 560 637 560 630 565 c 1,189,-1
 644 565 l 1,187,188
616 561 m 1,190,191
 607 557 607 557 584 554 c 0,192,193
 559 552 559 552 549 547 c 0,194,195
 545 541 545 541 542 537 c 0,196,197
 537 535 537 535 533 540 c 0,198,199
 528 545 528 545 521 544 c 0,200,201
 509 542 509 542 475 526 c 0,202,203
 445 512 445 512 419 512 c 1,204,205
 418 519 418 519 415 526 c 1,206,207
 510 590 510 590 595 589 c 1,208,209
 597 582 597 582 599 579 c 0,210,211
 603 567 603 567 616 565 c 1,212,-1
 616 561 l 1,190,191
408 1015 m 1,213,-1
 408 1019 l 1,214,215
 410 1017 410 1017 412 1012 c 1,216,217
 398 1013 398 1013 405 1015 c 2,218,-1
 408 1015 l 1,213,-1
408 966 m 1,219,-1
 408 956 l 1,220,221
 406 959 406 959 405 966 c 1,222,-1
 408 966 l 1,219,-1
405 917 m 1,223,-1
 401 917 l 1,224,-1
 401 949 l 1,225,226
 406 946 406 946 408 941 c 0,227,228
 414 932 414 932 405 920 c 1,229,-1
 405 917 l 1,223,-1
408 889 m 1,230,-1
 405 889 l 1,231,-1
 405 892 l 2,232,233
 405 893 405 893 405 903 c 1,234,-1
 408 903 l 1,235,-1
 408 889 l 1,230,-1
401 857 m 1,237,238
 400 859 400 859 398 861 c 0,239,240
 399 865 399 865 401 869 c 0,241,242
 404 873 404 873 405 878 c 1,243,244
 409 871 409 871 405 864 c 0,245,236
 403 859 403 859 401 857 c 1,237,238
419 1248 m 1,247,248
 422 1243 422 1243 422 1179 c 0,249,250
 422 1113 422 1113 415 1103 c 0,251,252
 413 1102 413 1102 408 1100 c 0,253,254
 406 1102 406 1102 401 1103 c 1,255,256
 410 1217 410 1217 408 1223 c 1,257,246
 419 1245 419 1245 419 1248 c 1,247,248
461 1146 m 1,258,259
 466 1144 466 1144 468 1142 c 1,260,-1
 465 1142 l 2,261,262
 463 1140 463 1140 461 1139 c 1,263,-1
 461 1146 l 1,258,259
637 1047 m 1,264,265
 662 1053 662 1053 658 1054 c 1,266,267
 681 1050 681 1050 687 1051 c 0,268,269
 739 1062 739 1062 761 1054 c 1,270,271
 785 1054 785 1054 796 1051 c 1,272,-1
 796 1015 l 1,273,274
 679 1016 679 1016 637 1012 c 1,275,276
 614 1025 614 1025 591 1019 c 0,277,278
 546 1006 546 1006 493 1012 c 1,279,280
 490 1027 490 1027 489 1033 c 1,281,282
 514 1034 514 1034 560 1047 c 1,283,-1
 637 1047 l 1,264,265
299 994 m 1,284,-1
 299 998 l 1,285,286
 304 1000 304 1000 306 1001 c 2,287,-1
 310 1001 l 1,288,289
 309 1000 309 1000 308 998 c 256,290,291
 307 996 307 996 306 994 c 2,292,-1
 299 994 l 1,284,-1
130 966 m 1,293,-1
 130 970 l 1,294,295
 135 972 135 972 137 973 c 0,296,297
 139 971 139 971 141 966 c 1,298,-1
 130 966 l 1,293,-1
127 963 m 1,299,300
 120 965 120 965 116 970 c 1,301,-1
 127 970 l 1,302,-1
 127 963 l 1,299,300
1028 1037 m 0,304,305
 1059 1036 1059 1036 1137 1019 c 1,306,-1
 1137 1015 l 1,307,308
 1103 1009 1103 1009 1021 1012 c 1,309,310
 1024 1027 1024 1027 1025 1033 c 0,311,303
 1027 1035 1027 1035 1028 1037 c 0,304,305
1271 1022 m 1,313,314
 1284 1022 1284 1022 1296 1015 c 1,315,-1
 1296 1012 l 1,316,317
 1228 1011 1228 1011 1222 1015 c 1,318,-1
 1172 1015 l 1,319,320
 1178 1031 1178 1031 1179 1033 c 0,321,312
 1242 1033 1242 1033 1271 1022 c 1,313,314
1440 540 m 1,322,323
 1374 561 1374 561 1352 554 c 1,324,325
 1352 554 1352 554 1334 544 c 1,326,327
 1332 551 1332 551 1331 558 c 1,328,329
 1287 556 1287 556 1257 572 c 1,330,331
 1243 566 1243 566 1206 574 c 0,332,333
 1171 581 1171 581 1158 589 c 1,334,-1
 1155 589 l 1,335,-1
 1155 593 l 1,336,337
 1315 579 1315 579 1324 586 c 0,338,339
 1331 588 1331 588 1334 593 c 0,340,341
 1336 595 1336 595 1338 596 c 1,342,343
 1334 599 1334 599 1331 604 c 1,344,345
 1297 606 1297 606 1208 607 c 0,346,347
 1206 607 1206 607 1199 612 c 0,348,349
 1191 617 1191 617 1190 618 c 0,350,351
 1181 620 1181 620 1070 625 c 1,352,353
 1051 620 1051 620 1023 630 c 0,354,355
 999 638 999 638 986 628 c 1,356,357
 975 631 975 631 968 642 c 1,358,359
 1042 662 1042 662 1134 632 c 0,360,361
 1149 627 1149 627 1180 632 c 0,362,363
 1205 635 1205 635 1215 625 c 1,364,365
 1225 626 1225 626 1260 649 c 1,366,367
 1258 674 1258 674 1237 677 c 0,368,369
 1234 677 1234 677 1216 678 c 0,370,371
 1201 678 1201 678 1190 681 c 0,372,373
 1166 687 1166 687 1101 684 c 0,374,375
 1035 682 1035 682 1007 688 c 0,376,377
 995 691 995 691 977 688 c 0,378,379
 962 685 962 685 958 688 c 2,380,-1
 951 688 l 1,381,382
 952 695 952 695 956 700 c 0,383,384
 960 706 960 706 961 709 c 2,385,-1
 961 748 l 2,386,387
 962 750 962 750 968 756 c 256,388,389
 974 762 974 762 975 765 c 0,390,391
 979 778 979 778 983 821 c 0,392,393
 987 862 987 862 989 868 c 0,394,395
 1000 888 1000 888 1000 889 c 0,396,397
 1001 896 1001 896 993 906 c 1,398,399
 998 959 998 959 1007 970 c 0,400,401
 1011 979 1011 979 1029 982 c 0,402,403
 1070 988 1070 988 1067 987 c 1,404,405
 1089 993 1089 993 1135 994 c 0,406,407
 1188 995 1188 995 1204 998 c 0,408,409
 1212 999 1212 999 1236 994 c 0,410,411
 1256 990 1256 990 1264 994 c 1,412,413
 1274 993 1274 993 1278 991 c 0,414,415
 1280 988 1280 988 1282 980 c 1,416,417
 1337 984 1337 984 1356 1001 c 1,418,-1
 1359 1001 l 1,419,420
 1352 1020 1352 1020 1330 1028 c 0,421,422
 1324 1030 1324 1030 1308 1034 c 0,423,424
 1294 1037 1294 1037 1285 1040 c 0,425,426
 1251 1052 1251 1052 1195 1062 c 0,427,428
 1119 1075 1119 1075 1102 1079 c 0,429,430
 1094 1081 1094 1081 1070 1078 c 0,431,432
 1050 1076 1050 1076 1039 1082 c 1,433,-1
 1032 1082 l 1,434,435
 1050 1172 1050 1172 1060 1181 c 1,436,437
 1059 1194 1059 1194 1054 1198 c 0,438,439
 1051 1200 1051 1200 1039 1206 c 1,440,441
 1038 1202 1038 1202 1051 1253 c 0,442,443
 1059 1284 1059 1284 1049 1297 c 0,444,445
 1046 1302 1046 1302 1043 1300 c 0,446,447
 1029 1292 1029 1292 1032 1294 c 1,448,449
 1018 1243 1018 1243 1018 1244 c 1,450,-1
 1007 1244 l 1,451,452
 1008 1247 1008 1247 1010 1258 c 1,453,-1
 986 1272 l 1,454,455
 983 1263 983 1263 974 1255 c 0,456,457
 964 1247 964 1247 961 1241 c 0,458,459
 958 1232 958 1232 961 1208 c 0,460,461
 964 1182 964 1182 961 1174 c 0,462,463
 961 1173 961 1173 956 1169 c 256,464,465
 951 1165 951 1165 951 1163 c 0,466,467
 947 1154 947 1154 951 1089 c 1,468,469
 908 1088 908 1088 901 1093 c 0,470,471
 886 1103 886 1103 892 1150 c 0,472,473
 899 1202 899 1202 891 1216 c 1,474,-1
 891 1223 l 1,475,476
 881 1221 881 1221 863 1202 c 0,477,478
 862 1201 862 1201 859 1202 c 0,479,480
 854 1207 854 1207 854 1207 c 1,481,482
 856 1212 856 1212 856 1213 c 1,483,484
 826 1209 826 1209 812 1178 c 0,485,486
 805 1162 805 1162 796 1118 c 0,487,488
 795 1112 795 1112 797 1106 c 0,489,490
 798 1101 798 1101 796 1096 c 0,491,492
 789 1090 789 1090 759 1095 c 0,493,494
 723 1101 723 1101 704 1096 c 0,495,496
 698 1095 698 1095 690 1097 c 0,497,498
 680 1100 680 1100 672 1100 c 0,499,500
 644 1101 644 1101 588 1102 c 0,501,502
 531 1103 531 1103 503 1103 c 1,503,504
 503 1148 503 1148 514 1202 c 0,505,506
 516 1209 516 1209 514 1230 c 0,507,508
 512 1249 512 1249 514 1255 c 0,509,510
 515 1256 515 1256 521 1262 c 0,511,512
 528 1267 528 1267 528 1269 c 0,513,514
 526 1276 526 1276 525 1283 c 0,515,516
 525 1289 525 1289 528 1292 c 0,517,518
 531 1296 531 1296 532 1297 c 1,519,520
 531 1294 531 1294 525 1329 c 1,521,522
 500 1324 500 1324 475 1234 c 0,523,524
 472 1223 472 1223 475 1201 c 0,525,526
 476 1184 476 1184 468 1170 c 1,527,-1
 468 1167 l 1,528,-1
 461 1167 l 1,529,530
 485 1298 485 1298 489 1308 c 1,531,532
 481 1313 481 1313 475 1322 c 1,533,534
 456 1318 456 1318 445 1298 c 0,535,536
 442 1294 442 1294 436 1280 c 0,537,538
 430 1268 430 1268 426 1262 c 0,539,540
 417 1258 417 1258 412 1272 c 1,541,542
 402 1271 402 1271 398 1265 c 1,543,544
 386 1268 386 1268 380 1276 c 1,545,546
 363 1275 363 1275 356 1269 c 0,547,548
 330 1248 330 1248 327 1188 c 1,549,550
 321 1187 321 1187 313 1184 c 0,551,552
 306 1182 306 1182 299 1181 c 1,553,554
 294 1171 294 1171 289 1167 c 1,555,556
 289 1109 289 1109 299 1093 c 1,557,558
 294 1081 294 1081 274 1075 c 0,559,560
 248 1068 248 1068 243 1065 c 0,561,562
 222 1051 222 1051 176 1033 c 0,563,564
 171 1032 171 1032 162 1031 c 0,565,566
 152 1030 152 1030 148 1030 c 0,567,568
 138 1025 138 1025 116 1012 c 0,569,570
 93 998 93 998 84 994 c 0,571,572
 77 991 77 991 63 991 c 0,573,574
 50 991 50 991 42 987 c 0,575,576
 39 986 39 986 35 979 c 0,577,578
 31 974 31 974 21 973 c 1,579,580
 19 955 19 955 28 938 c 1,581,582
 22 935 22 935 14 928 c 0,583,584
 4 919 4 919 0 917 c 1,585,586
 1 905 1 905 1 904 c 0,587,588
 2 902 2 902 11 899 c 0,589,590
 14 898 14 898 47 909 c 0,591,592
 81 920 81 920 92 927 c 1,593,594
 110 926 110 926 120 903 c 0,595,596
 125 901 125 901 127 899 c 0,597,598
 150 900 150 900 163 920 c 0,599,600
 179 944 179 944 190 949 c 0,601,602
 208 956 208 956 248 958 c 0,603,604
 283 959 283 959 292 966 c 1,605,606
 301 965 301 965 320 952 c 1,607,608
 329 836 329 836 327 825 c 0,609,610
 322 784 322 784 324 773 c 0,611,612
 332 730 332 730 327 706 c 0,613,614
 324 687 324 687 328 648 c 0,615,616
 330 618 330 618 320 604 c 1,617,618
 301 589 301 589 260 579 c 0,619,620
 207 566 207 566 194 561 c 1,621,622
 194 562 194 562 81 508 c 1,623,624
 81 486 81 486 99 470 c 0,625,626
 100 469 100 469 106 466 c 0,627,628
 111 464 111 464 113 463 c 0,629,630
 131 464 131 464 145 475 c 0,631,632
 172 496 172 496 169 494 c 1,633,634
 261 550 261 550 313 544 c 0,635,636
 315 542 315 542 317 540 c 0,637,638
 288 505 288 505 246 487 c 0,639,640
 241 485 241 485 225 482 c 0,641,642
 211 480 211 480 211 480 c 2,643,644
 209 479 209 479 202 471 c 0,645,646
 196 464 196 464 194 463 c 0,647,648
 189 460 189 460 181 462 c 0,649,650
 173 463 173 463 173 463 c 1,651,652
 166 455 166 455 158 445 c 0,653,654
 156 444 156 444 146 444 c 0,655,656
 138 444 138 444 130 438 c 0,657,658
 128 433 128 433 123 424 c 0,659,660
 119 423 119 423 111 422 c 256,661,662
 103 421 103 421 99 420 c 0,663,664
 94 417 94 417 87 405 c 256,665,666
 80 393 80 393 74 389 c 1,667,668
 76 374 76 374 81 368 c 1,669,-1
 81 364 l 1,670,671
 82 365 82 365 84 366 c 0,672,673
 87 367 87 367 88 368 c 1,674,-1
 88 364 l 1,675,676
 117 364 117 364 141 385 c 0,677,678
 143 387 143 387 176 424 c 1,679,-1
 187 424 l 1,680,681
 184 411 184 411 187 403 c 1,682,683
 178 400 178 400 169 399 c 1,684,685
 170 395 170 395 173 389 c 0,686,687
 175 381 175 381 176 378 c 0,688,689
 181 376 181 376 183 375 c 0,690,691
 204 376 204 376 222 406 c 1,692,-1
 232 406 l 1,693,694
 237 424 237 424 268 451 c 0,695,696
 300 477 300 477 320 480 c 1,697,698
 318 461 318 461 297 449 c 0,699,700
 293 447 293 447 278 441 c 0,701,702
 267 435 267 435 261 431 c 0,703,704
 252 425 252 425 238 406 c 0,705,706
 224 388 224 388 215 382 c 1,707,708
 215 353 215 353 250 346 c 1,709,710
 264 339 264 339 278 353 c 1,711,-1
 285 353 l 1,712,713
 282 360 282 360 275 364 c 1,714,715
 274 362 274 362 299 399 c 1,716,717
 304 397 304 397 306 392 c 0,718,719
 309 386 309 386 299 361 c 0,720,721
 289 337 289 337 296 325 c 0,722,723
 299 317 299 317 300 317 c 2,724,725
 300 317 300 317 310 315 c 1,726,727
 300 256 300 256 299 248 c 0,728,729
 299 244 299 244 302 225 c 0,730,731
 305 208 305 208 303 199 c 0,732,733
 289 139 289 139 289 139 c 1,734,735
 301 133 301 133 303 132 c 0,736,737
 306 126 306 126 306 117 c 256,738,739
 306 108 306 108 310 104 c 0,740,741
 311 102 311 102 313 100 c 1,742,743
 314 101 314 101 315 108 c 0,744,745
 315 115 315 115 317 118 c 256,746,747
 319 121 319 121 328 126 c 0,748,749
 336 131 336 131 338 135 c 0,750,751
 339 149 339 149 342 174 c 1,752,753
 384 266 384 266 380 375 c 1,754,-1
 391 375 l 1,755,756
 389 435 389 435 405 456 c 0,757,758
 414 467 414 467 436 473 c 0,759,760
 472 482 472 482 475 484 c 0,761,762
 500 494 500 494 550 507 c 0,763,764
 602 520 602 520 627 530 c 0,765,766
 640 535 640 535 667 533 c 0,767,768
 695 530 695 530 704 533 c 0,769,770
 741 544 741 544 775 544 c 1,771,772
 767 401 767 401 725 237 c 1,773,774
 743 221 743 221 739 223 c 1,775,776
 751 225 751 225 750 227 c 1,777,778
 763 226 763 226 789 206 c 1,779,780
 772 153 772 153 771 153 c 1,781,782
 774 142 774 142 785 132 c 1,783,-1
 785 128 l 1,784,785
 784 128 784 128 806 142 c 1,786,787
 807 157 807 157 827 216 c 0,788,789
 831 225 831 225 828 243 c 0,790,791
 825 259 825 259 827 265 c 0,792,793
 830 267 830 267 834 271 c 0,794,795
 839 274 839 274 841 276 c 0,796,797
 842 283 842 283 843 297 c 256,798,799
 844 311 844 311 845 318 c 0,800,801
 846 321 846 321 854 333 c 0,802,803
 861 344 861 344 863 350 c 0,804,805
 858 370 858 370 871 401 c 0,806,807
 891 451 891 451 891 449 c 1,808,809
 894 460 894 460 891 475 c 0,810,811
 888 489 888 489 891 498 c 0,812,813
 908 554 908 554 908 547 c 1,814,815
 996 552 996 552 1006 552 c 0,816,817
 1071 551 1071 551 1091 530 c 1,818,819
 1115 529 1115 529 1122 538 c 0,820,821
 1125 541 1125 541 1129 548 c 0,822,823
 1133 556 1133 556 1137 561 c 0,824,825
 1146 566 1146 566 1208 551 c 0,826,827
 1217 548 1217 548 1231 550 c 256,828,829
 1245 552 1245 552 1250 551 c 0,830,831
 1414 512 1414 512 1447 533 c 1,832,-1
 1451 533 l 1,833,-1
 1451 540 l 1,834,-1
 1440 540 l 1,322,323
EndSplineSet
EndChar

StartChar: dollar
Encoding: 36 36 7
Width: 981
GlyphClass: 1
Flags: W
LayerCount: 2
Fore
SplineSet
425 -236 m 2,0,1
 426 -233 426 -233 432 -223 c 1,2,-1
 425 -223 l 1,3,4
 425 -225 425 -225 424 -229 c 256,5,6
 423 -233 423 -233 422 -236 c 1,7,-1
 425 -236 l 2,0,1
129 1031 m 1,9,10
 125 1028 125 1028 123 1027 c 0,11,12
 97 984 97 984 126 921 c 1,13,-1
 145 921 l 1,14,15
 140 913 140 913 138 905 c 0,16,17
 139 904 139 904 145 901 c 1,18,19
 155 912 155 912 151 908 c 1,20,21
 146 939 146 939 140 969 c 0,22,23
 139 974 139 974 138 979 c 1,24,-1
 139 979 l 1,25,8
 130 1029 130 1029 129 1031 c 1,9,10
425 1367 m 1,26,-1
 429 1367 l 1,27,28
 427 1371 427 1371 425 1376 c 1,29,-1
 425 1367 l 1,26,-1
432 1386 m 2,30,31
 431 1384 431 1384 429 1379 c 1,32,33
 434 1383 434 1383 438 1386 c 1,34,-1
 432 1386 l 2,30,31
438 1386 m 1,35,-1
 444 1386 l 1,36,37
 442 1392 442 1392 438 1396 c 1,38,-1
 438 1386 l 1,35,-1
454 1405 m 1,39,-1
 454 1399 l 1,40,41
 458 1402 458 1402 460 1405 c 1,42,-1
 454 1405 l 1,39,-1
851 472 m 1,43,44
 856 493 856 493 858 498 c 1,45,46
 863 490 863 490 867 485 c 0,47,48
 865 483 865 483 854 472 c 1,49,-1
 851 472 l 1,43,44
643 307 m 256,51,52
 641 305 641 305 640 304 c 0,53,54
 611 332 611 332 643 643 c 1,55,56
 732 618 732 618 772 575 c 1,57,58
 782 498 782 498 745 418 c 0,59,60
 708 336 708 336 646 310 c 0,61,50
 645 309 645 309 643 307 c 256,51,52
706 284 m 1,62,63
 708 289 708 289 709 291 c 2,64,-1
 712 291 l 1,65,-1
 706 284 l 1,62,63
640 152 m 1,66,67
 636 162 636 162 646 197 c 0,68,69
 650 200 650 200 657 204 c 0,70,71
 665 208 665 208 668 210 c 0,72,73
 672 205 672 205 659 184 c 0,74,75
 648 166 648 166 640 158 c 1,76,-1
 640 152 l 1,66,67
593 1124 m 1,77,-1
 589 1124 l 1,78,79
 582 1203 582 1203 589 1228 c 1,80,81
 602 1219 602 1219 605 1183 c 0,82,83
 609 1150 609 1150 602 1128 c 1,84,-1
 593 1124 l 1,77,-1
400 200 m 1,86,87
 393 221 393 221 397 241 c 0,88,89
 402 265 402 265 400 278 c 0,90,91
 388 345 388 345 386 497 c 0,92,93
 384 634 384 634 372 675 c 1,94,-1
 394 785 l 1,95,96
 474 735 474 735 561 682 c 1,97,98
 574 640 574 640 583 469 c 256,99,100
 592 298 592 298 583 262 c 1,101,85
 546 183 546 183 400 200 c 1,86,87
542 204 m 1,103,-1
 555 204 l 1,104,105
 548 194 548 194 526 188 c 1,106,102
 529 194 529 194 542 204 c 1,103,-1
586 91 m 1,107,108
 580 85 580 85 548 69 c 0,109,110
 519 54 519 54 517 49 c 1,111,-1
 504 49 l 1,112,-1
 504 52 l 1,113,114
 513 61 513 61 542 79 c 0,115,116
 567 94 567 94 577 110 c 1,117,-1
 586 110 l 1,118,-1
 586 91 l 1,107,108
460 91 m 1,120,121
 464 92 464 92 473 94 c 0,122,123
 481 96 481 96 485 97 c 0,124,125
 488 97 488 97 492 95 c 0,126,127
 496 94 496 94 498 94 c 1,128,129
 481 89 481 89 466 84 c 0,130,119
 464 86 464 86 460 91 c 1,120,121
416 84 m 1,131,-1
 441 84 l 1,132,133
 436 62 436 62 447 49 c 1,134,135
 442 50 442 50 432 52 c 0,136,137
 421 54 421 54 416 55 c 1,138,-1
 416 84 l 1,131,-1
353 71 m 1,140,-1
 353 74 l 1,141,142
 359 77 359 77 362 78 c 0,143,144
 365 77 365 77 372 74 c 1,145,146
 371 73 371 73 370 71 c 256,147,148
 369 69 369 69 369 68 c 1,149,139
 350 72 350 72 353 71 c 1,140,-1
365 133 m 1,151,-1
 365 129 l 1,152,153
 341 112 341 112 287 131 c 256,154,155
 233 150 233 150 236 178 c 1,156,150
 293 150 293 150 365 133 c 1,151,-1
501 1289 m 1,157,158
 517 1253 517 1253 514 1185 c 0,159,160
 511 1097 511 1097 514 1076 c 0,161,162
 536 904 536 904 533 882 c 0,163,164
 532 881 532 881 531 879 c 256,165,166
 530 877 530 877 529 876 c 0,167,168
 447 933 447 933 384 976 c 1,169,170
 377 1123 377 1123 388 1155 c 0,171,172
 400 1189 400 1189 495 1289 c 1,173,-1
 501 1289 l 1,157,158
558 769 m 1,174,175
 480 787 480 787 470 824 c 1,176,177
 492 820 492 820 517 807 c 0,178,179
 548 791 548 791 558 788 c 1,180,-1
 558 769 l 1,174,175
536 1522 m 1,181,182
 538 1513 538 1513 539 1506 c 1,183,184
 531 1510 531 1510 529 1522 c 1,185,-1
 536 1522 l 1,181,182
217 1053 m 1,186,187
 215 1055 215 1055 211 1060 c 1,188,189
 247 1134 247 1134 271 1173 c 1,190,191
 276 1169 276 1169 280 1163 c 1,192,193
 262 1134 262 1134 217 1060 c 1,194,-1
 217 1053 l 1,186,187
261 1044 m 1,196,197
 265 1058 265 1058 265 1056 c 0,198,199
 266 1055 266 1055 268 1047 c 1,200,195
 263 1045 263 1045 261 1044 c 1,196,197
690 1202 m 1,201,202
 694 1199 694 1199 697 1195 c 1,203,-1
 690 1202 l 1,201,202
719 1170 m 1,204,205
 725 1160 725 1160 741 1134 c 1,206,207
 738 1136 738 1136 719 1150 c 1,208,-1
 719 1170 l 1,204,205
876 582 m 1,210,211
 866 592 866 592 855 616 c 0,212,213
 844 643 844 643 835 653 c 256,214,215
 826 663 826 663 794 673 c 0,216,217
 765 682 765 682 750 701 c 1,218,-1
 772 698 l 1,219,-1
 772 711 l 1,220,221
 757 719 757 719 713 755 c 0,222,223
 677 786 677 786 646 795 c 1,224,225
 639 815 639 815 639 986 c 0,226,227
 638 1156 638 1156 646 1173 c 0,228,229
 647 1174 647 1174 653 1182 c 1,230,231
 662 1176 662 1176 725 1111 c 1,232,233
 717 1107 717 1107 750 1124 c 1,234,235
 766 1104 766 1104 776 1098 c 1,236,237
 777 1106 777 1106 779 1108 c 1,238,239
 821 1027 821 1027 823 995 c 0,240,241
 826 992 826 992 839 982 c 1,242,243
 818 1163 818 1163 700 1292 c 0,244,245
 695 1298 695 1298 666 1321 c 0,246,247
 644 1339 644 1339 637 1354 c 1,248,249
 630 1482 630 1482 624 1593 c 0,250,251
 621 1602 621 1602 604 1621 c 0,252,253
 589 1638 589 1638 586 1657 c 0,254,255
 583 1677 583 1677 592 1700 c 0,256,257
 602 1727 602 1727 602 1748 c 1,258,-1
 580 1751 l 1,259,260
 562 1737 562 1737 555 1700 c 0,261,262
 548 1662 548 1662 529 1648 c 1,263,264
 536 1524 536 1524 536 1525 c 1,265,-1
 533 1525 l 1,266,267
 530 1542 530 1542 517 1638 c 1,268,269
 493 1646 493 1646 479 1635 c 1,270,-1
 470 1631 l 1,271,272
 466 1594 466 1594 480 1517 c 0,273,274
 493 1448 493 1448 482 1409 c 1,275,276
 490 1414 490 1414 492 1415 c 1,277,-1
 492 1383 l 1,278,279
 483 1380 483 1380 437 1361 c 0,280,281
 404 1347 404 1347 388 1347 c 1,282,283
 385 1351 385 1351 381 1359 c 0,284,285
 377 1366 377 1366 375 1370 c 0,286,287
 422 1472 422 1472 394 1619 c 1,288,289
 383 1625 383 1625 378 1628 c 0,290,291
 375 1627 375 1627 369 1625 c 0,292,293
 362 1623 362 1623 359 1622 c 0,294,295
 335 1606 335 1606 347 1541 c 1,296,297
 329 1532 329 1532 274 1535 c 1,298,299
 253 1503 253 1503 271 1384 c 0,300,301
 290 1261 290 1261 274 1228 c 0,302,303
 262 1202 262 1202 213 1128 c 0,304,305
 172 1067 172 1067 160 1027 c 1,306,307
 159 1028 159 1028 170 1018 c 1,308,-1
 173 1018 l 1,309,310
 176 1041 176 1041 176 1047 c 0,311,312
 178 1048 178 1048 182 1050 c 1,313,314
 183 1046 183 1046 184 1035 c 0,315,316
 185 1026 185 1026 186 1021 c 1,317,318
 150 989 150 989 139 979 c 1,319,320
 140 971 140 971 140 969 c 0,321,322
 146 950 146 950 174 931 c 0,323,324
 201 913 201 913 205 889 c 1,325,326
 213 885 213 885 220 888 c 0,327,328
 229 891 229 891 236 889 c 0,329,330
 314 863 314 863 296 856 c 1,331,332
 317 818 317 818 321 739 c 0,333,334
 326 629 326 629 331 604 c 0,335,336
 332 599 332 599 369 207 c 1,337,338
 329 221 329 221 300 224 c 0,339,340
 254 228 254 228 258 197 c 1,341,342
 192 213 192 213 162 280 c 0,343,344
 155 296 155 296 139 343 c 0,345,346
 125 386 125 386 113 410 c 1,347,-1
 113 417 l 1,348,-1
 110 417 l 1,349,350
 88 391 88 391 88 391 c 2,351,352
 86 389 86 389 83 386 c 256,353,354
 80 383 80 383 78 381 c 1,355,356
 38 421 38 421 16 517 c 0,357,358
 -5 610 -5 610 9 675 c 0,359,360
 8 676 8 676 7 679 c 0,361,362
 6 681 6 681 6 682 c 1,363,364
 -5 679 -5 679 -10 672 c 0,365,366
 -11 670 -11 670 -4 607 c 0,367,368
 -2 592 -2 592 -8 558 c 0,369,370
 -14 528 -14 528 -7 504 c 0,371,372
 30 384 30 384 145 223 c 0,373,374
 150 215 150 215 175 170 c 0,375,376
 192 137 192 137 211 123 c 0,377,378
 243 98 243 98 288 80 c 0,379,380
 342 59 342 59 348 55 c 0,381,382
 400 25 400 25 378 -84 c 1,383,-1
 400 -84 l 1,384,385
 392 -71 392 -71 391 -61 c 1,386,387
 408 -71 408 -71 418 -121 c 0,388,389
 429 -173 429 -173 416 -203 c 0,390,391
 416 -204 416 -204 419 -210 c 1,392,-1
 425 -210 l 2,393,394
 426 -209 426 -209 429 -208 c 0,395,396
 431 -207 431 -207 432 -207 c 1,397,398
 408 -57 408 -57 413 32 c 1,399,400
 511 22 511 22 589 58 c 1,401,402
 594 45 594 45 592 10 c 0,403,404
 590 -27 590 -27 596 -45 c 0,405,406
 612 -101 612 -101 604 -226 c 0,407,408
 595 -351 595 -351 615 -420 c 1,409,-1
 624 -423 l 1,410,411
 628 -412 628 -412 627 -413 c 1,412,413
 593 -334 593 -334 640 -155 c 1,414,415
 626 -119 626 -119 634 -58 c 0,416,417
 634 -56 634 -56 632 47 c 0,418,419
 630 111 630 111 656 136 c 1,420,421
 653 134 653 134 779 291 c 1,422,423
 799 306 799 306 823 323 c 1,424,425
 946 493 946 493 930 585 c 1,426,427
 920 592 920 592 917 595 c 0,428,209
 900 589 900 589 876 582 c 1,210,211
EndSplineSet
EndChar

StartChar: percent
Encoding: 37 37 8
Width: 1034
GlyphClass: 1
Flags: W
LayerCount: 2
Fore
SplineSet
845 67 m 1,0,-1
 842 67 l 1,1,2
 846 90 846 90 877 140 c 0,3,4
 915 202 915 202 921 216 c 1,5,-1
 924 216 l 1,6,7
 924 186 924 186 897 137 c 256,8,9
 870 88 870 88 845 74 c 1,10,-1
 845 67 l 1,0,-1
662 77 m 1,12,13
 729 80 729 80 790 172 c 0,14,15
 842 250 842 250 858 329 c 1,16,17
 866 316 866 316 855 248 c 0,18,19
 838 149 838 149 811 108 c 0,20,21
 770 48 770 48 681 54 c 1,22,11
 672 65 672 65 662 77 c 1,12,13
728 435 m 1,24,25
 772 434 772 434 833 413 c 1,26,27
 868 357 868 357 798 237 c 0,28,29
 733 122 733 122 672 99 c 1,30,31
 612 132 612 132 620 253 c 0,32,33
 628 364 628 364 672 409 c 1,34,23
 703 424 703 424 728 435 c 1,24,25
741 468 m 1,35,36
 747 469 747 469 754 471 c 0,37,38
 780 466 780 466 804 461 c 1,39,-1
 810 452 l 1,40,41
 780 455 780 455 751 458 c 0,42,43
 749 459 749 459 741 464 c 1,44,-1
 741 468 l 1,35,36
867 445 m 1,46,47
 878 434 878 434 874 439 c 0,48,45
 870 441 870 441 867 445 c 1,46,47
911 280 m 0,50,51
 912 277 912 277 913 272 c 0,52,53
 914 266 914 266 915 264 c 1,54,-1
 902 264 l 2,55,56
 901 265 901 265 900 267 c 256,57,58
 899 269 899 269 899 271 c 2,59,-1
 902 325 l 1,60,49
 912 315 912 315 911 280 c 0,50,51
811 519 m 0,62,63
 794 536 794 536 763 539 c 1,64,65
 745 528 745 528 715 514 c 0,66,67
 682 499 682 499 670 492 c 0,68,69
 620 465 620 465 593 422 c 0,70,71
 530 324 530 324 556 178 c 0,72,73
 582 23 582 23 687 -1 c 0,74,75
 727 -10 727 -10 801 19 c 0,76,77
 909 61 909 61 948 174 c 0,78,79
 989 291 989 291 930 416 c 0,80,81
 925 426 925 426 842 487 c 1,82,61
 845 485 845 485 811 519 c 0,62,63
180 1379 m 1,83,-1
 179 1378 l 1,84,85
 180 1378 180 1378 180 1379 c 1,86,-1
 180 1379 l 1,83,-1
634 1059 m 2,88,-1
 631 1059 l 1,89,90
 652 1155 652 1155 776 1298 c 1,91,92
 782 1285 782 1285 718 1188 c 0,93,94
 646 1078 646 1078 640 1062 c 0,95,87
 638 1061 638 1061 634 1059 c 2,88,-1
482 826 m 0,97,98
 403 677 403 677 410 684 c 1,99,-1
 407 684 l 1,100,101
 424 764 424 764 561 975 c 0,102,103
 561 981 561 981 555 994 c 1,104,105
 576 990 576 990 586 1014 c 1,106,107
 598 990 598 990 558 936 c 0,108,96
 497 853 497 853 482 826 c 0,97,98
290 429 m 1,110,111
 295 445 295 445 304 474 c 0,112,113
 314 505 314 505 318 519 c 1,114,115
 327 503 327 503 317 478 c 0,116,117
 300 439 300 439 299 435 c 0,118,109
 293 431 293 431 290 429 c 1,110,111
287 403 m 1,119,120
 281 399 281 399 277 397 c 2,121,-1
 274 397 l 1,122,123
 278 406 278 406 287 426 c 1,124,-1
 287 403 l 1,119,120
262 358 m 1,125,126
 266 369 266 369 268 374 c 1,127,-1
 271 374 l 1,128,129
 270 371 270 371 269 366 c 0,130,131
 268 360 268 360 268 358 c 1,132,-1
 262 358 l 1,125,126
243 313 m 1,134,-1
 246 313 l 1,135,136
 242 306 242 306 240 303 c 1,137,133
 241 306 241 306 243 313 c 1,134,-1
277 519 m 1,139,140
 286 493 286 493 262 462 c 0,141,142
 228 418 228 418 227 416 c 1,143,144
 225 426 225 426 224 432 c 1,145,138
 217 427 217 427 277 519 c 1,139,140
224 261 m 1,146,-1
 227 261 l 1,147,148
 225 255 225 255 224 251 c 1,149,-1
 224 261 l 1,146,-1
208 209 m 1,150,151
 212 226 212 226 214 238 c 1,152,153
 216 235 216 235 214 209 c 1,154,-1
 208 209 l 1,150,151
142 1014 m 1,156,157
 127 1025 127 1025 126 1030 c 0,158,159
 125 1033 125 1033 129 1052 c 1,160,161
 76 1110 76 1110 79 1160 c 0,162,163
 82 1200 82 1200 129 1275 c 0,164,165
 153 1313 153 1313 154 1314 c 0,166,167
 171 1323 171 1323 209 1333 c 0,168,169
 252 1343 252 1343 274 1353 c 1,170,171
 295 1347 295 1347 385 1272 c 1,172,173
 386 1188 386 1188 314 1096 c 0,174,175
 242 1005 242 1005 167 994 c 1,176,155
 147 1003 147 1003 142 1014 c 1,156,157
915 1408 m 1,177,178
 893 1404 893 1404 880 1388 c 0,179,180
 863 1367 863 1367 855 1362 c 1,181,182
 861 1374 861 1374 861 1382 c 2,183,-1
 861 1388 l 1,184,185
 850 1387 850 1387 823 1372 c 1,186,-1
 807 1372 l 1,187,-1
 807 1375 l 1,188,189
 813 1377 813 1377 823 1379 c 1,190,191
 814 1386 814 1386 786 1381 c 0,192,193
 757 1377 757 1377 732 1395 c 1,194,-1
 684 1372 l 1,195,196
 592 1376 592 1376 542 1379 c 0,197,198
 537 1380 537 1380 457 1409 c 0,199,200
 395 1432 395 1432 354 1442 c 0,201,202
 225 1475 225 1475 173 1430 c 1,203,204
 175 1431 175 1431 167 1427 c 0,205,206
 167 1425 167 1425 169 1422 c 0,207,208
 170 1419 170 1419 170 1417 c 1,209,210
 177 1420 177 1420 189 1424 c 0,211,212
 203 1428 203 1428 208 1430 c 1,213,-1
 208 1414 l 1,214,-1
 217 1401 l 1,215,216
 210 1396 210 1396 180 1379 c 1,217,-1
 186 1379 l 1,218,219
 183 1376 183 1376 176 1372 c 1,220,221
 179 1377 179 1377 179 1378 c 1,222,223
 130 1350 130 1350 113 1343 c 1,224,225
 116 1347 116 1347 164 1404 c 1,226,-1
 164 1417 l 1,227,228
 82 1384 82 1384 25 1208 c 0,229,230
 -35 1022 -35 1022 57 959 c 0,231,232
 74 946 74 946 167 946 c 0,233,234
 305 945 305 945 388 1026 c 0,235,236
 471 1109 471 1109 460 1240 c 1,237,238
 572 1240 572 1240 621 1259 c 1,239,240
 612 1199 612 1199 557 1134 c 0,241,242
 490 1056 490 1056 476 1023 c 0,243,244
 433 901 433 901 391 781 c 1,245,246
 372 752 372 752 342 705 c 0,247,248
 302 643 302 643 293 629 c 0,249,250
 216 505 216 505 157 253 c 0,251,252
 95 -10 95 -10 113 -169 c 1,253,-1
 116 -169 l 1,254,255
 133 -135 133 -135 140 -73 c 0,256,257
 148 -4 148 -4 157 22 c 0,258,259
 185 97 185 97 251 235 c 0,260,261
 324 388 324 388 347 445 c 0,262,263
 447 693 447 693 498 781 c 0,264,265
 550 871 550 871 650 1002 c 0,266,267
 784 1179 784 1179 810 1217 c 0,268,269
 816 1225 816 1225 881 1295 c 0,270,271
 927 1344 927 1344 937 1385 c 1,272,-1
 915 1408 l 1,177,178
EndSplineSet
EndChar

StartChar: ampersand
Encoding: 38 38 9
Width: 1343
GlyphClass: 1
Flags: W
LayerCount: 2
Fore
SplineSet
301 196 m 0,1,2
 180 332 180 332 190 413 c 1,3,4
 186 415 186 415 180 417 c 0,5,6
 173 419 173 419 171 420 c 0,7,8
 167 427 167 427 168 426 c 0,9,10
 200 447 200 447 232 530 c 1,11,-1
 251 530 l 1,12,13
 273 581 273 581 344 669 c 0,14,15
 419 762 419 762 443 810 c 1,16,-1
 459 810 l 1,17,18
 485 730 485 730 517 698 c 0,19,20
 519 697 519 697 523 696 c 256,21,22
 527 695 527 695 530 694 c 1,23,24
 528 704 528 704 520 717 c 1,25,-1
 520 733 l 1,26,-1
 523 733 l 1,27,28
 547 711 547 711 590 657 c 0,29,30
 638 596 638 596 658 575 c 1,31,32
 652 559 652 559 690 522 c 0,33,34
 728 486 728 486 741 488 c 1,35,36
 740 478 740 478 741 477 c 2,37,38
 741 477 741 477 751 478 c 1,39,40
 754 467 754 467 754 465 c 0,41,42
 675 395 675 395 615 281 c 0,43,44
 607 265 607 265 514 58 c 1,45,0
 424 58 424 58 301 196 c 0,1,2
635 246 m 0,47,48
 626 232 626 232 611 188 c 0,49,50
 598 150 598 150 581 136 c 1,51,52
 619 249 619 249 738 410 c 1,53,54
 741 405 741 405 739 402 c 0,55,56
 731 391 731 391 732 391 c 1,57,46
 713 355 713 355 635 246 c 0,47,48
616 91 m 1,58,-1
 619 91 l 1,59,60
 619 88 619 88 616 81 c 1,61,-1
 616 91 l 1,58,-1
603 104 m 1,63,64
 604 98 604 98 600 94 c 0,65,66
 597 85 597 85 591 81 c 1,67,62
 600 98 600 98 603 104 c 1,63,64
591 -3 m 1,68,69
 594 15 594 15 597 36 c 1,70,71
 605 31 605 31 610 29 c 1,72,73
 602 -9 602 -9 603 -3 c 1,74,-1
 591 -3 l 1,68,69
292 94 m 1,76,77
 293 94 293 94 296 87 c 0,78,75
 297 85 297 85 292 94 c 1,76,77
232 178 m 1,79,80
 230 179 230 179 227 181 c 256,81,82
 224 183 224 183 222 184 c 1,83,84
 223 185 223 185 224 186 c 256,85,86
 225 187 225 187 225 187 c 1,87,-1
 232 181 l 1,88,-1
 232 178 l 1,79,80
219 191 m 1,90,91
 213 190 213 190 206 194 c 1,92,89
 218 191 218 191 219 191 c 1,90,91
193 207 m 0,94,95
 192 208 192 208 193 213 c 1,96,-1
 196 213 l 2,97,98
 197 212 197 212 200 210 c 0,99,100
 202 208 202 208 203 207 c 0,101,102
 202 205 202 205 201 202 c 256,103,104
 200 199 200 199 200 197 c 1,105,93
 198 200 198 200 193 207 c 0,94,95
168 526 m 1,107,108
 159 520 159 520 155 517 c 1,109,110
 156 519 156 519 158 523 c 0,111,112
 160 528 160 528 161 530 c 1,113,106
 162 529 162 529 168 526 c 1,107,108
142 187 m 1,114,115
 126 192 126 192 119 213 c 1,116,117
 133 207 133 207 142 191 c 1,118,-1
 142 187 l 1,114,115
103 488 m 1,120,121
 113 473 113 473 85 422 c 0,122,123
 58 373 58 373 39 362 c 1,124,119
 40 365 40 365 103 488 c 1,120,121
59 326 m 1,126,-1
 55 326 l 1,127,128
 51 333 51 333 49 336 c 0,129,130
 55 344 55 344 72 372 c 0,131,132
 86 395 86 395 97 407 c 1,133,134
 100 401 100 401 103 394 c 1,135,136
 77 377 77 377 71 333 c 1,137,125
 73 333 73 333 59 326 c 1,126,-1
135 462 m 0,139,140
 132 460 132 460 126 455 c 1,141,142
 127 459 127 459 132 473 c 0,143,144
 136 484 136 484 139 491 c 1,145,138
 143 481 143 481 135 462 c 0,139,140
232 659 m 0,147,148
 229 658 229 658 225 656 c 1,149,150
 239 679 239 679 238 678 c 0,151,146
 239 676 239 676 232 659 c 0,147,148
299 749 m 0,153,154
 296 747 296 747 288 739 c 0,155,156
 281 733 281 733 276 730 c 1,157,158
 281 741 281 741 305 775 c 1,159,152
 307 773 307 773 299 749 c 0,153,154
328 749 m 2,160,161
 330 752 330 752 312 730 c 1,162,163
 313 733 313 733 317 739 c 0,164,165
 320 746 320 746 321 749 c 2,166,-1
 328 749 l 2,160,161
325 794 m 1,167,168
 319 785 319 785 312 781 c 1,169,-1
 318 794 l 1,170,-1
 325 794 l 1,167,168
337 810 m 1,171,172
 336 809 336 809 333 806 c 256,173,174
 330 803 330 803 328 801 c 1,175,176
 328 803 328 803 329 806 c 256,177,178
 330 809 330 809 331 810 c 2,179,-1
 337 810 l 1,171,172
337 823 m 1,180,181
 341 826 341 826 347 830 c 1,182,183
 353 827 353 827 337 820 c 1,184,-1
 337 823 l 1,180,181
344 1120 m 1,185,186
 365 1053 365 1053 395 1036 c 1,187,-1
 395 1020 l 1,188,189
 377 1027 377 1027 356 1063 c 0,190,191
 337 1094 337 1094 331 1120 c 1,192,-1
 344 1120 l 1,185,186
514 743 m 1,193,194
 513 741 513 741 512 738 c 256,195,196
 511 735 511 735 510 733 c 1,197,-1
 510 743 l 1,198,-1
 514 743 l 1,193,194
574 1301 m 0,200,201
 610 1260 610 1260 619 1220 c 1,202,203
 598 1203 598 1203 526 1107 c 0,204,205
 461 1021 461 1021 440 1014 c 1,206,207
 412 1069 412 1069 405 1085 c 1,208,-1
 405 1088 l 1,209,210
 413 1087 413 1087 424 1078 c 1,211,212
 409 1104 409 1104 379 1156 c 1,213,214
 363 1202 363 1202 416 1264 c 0,215,216
 430 1281 430 1281 461 1311 c 0,217,218
 489 1339 489 1339 498 1350 c 1,219,199
 536 1345 536 1345 574 1301 c 0,200,201
469 1450 m 1,220,221
 467 1453 467 1453 472 1443 c 1,222,223
 464 1438 464 1438 462 1437 c 2,224,-1
 459 1437 l 1,225,226
 460 1438 460 1438 461 1443 c 0,227,228
 462 1447 462 1447 462 1450 c 1,229,-1
 469 1450 l 1,220,221
591 1346 m 1,230,231
 589 1343 589 1343 587 1340 c 1,232,233
 583 1349 583 1349 584 1346 c 2,234,-1
 591 1346 l 1,230,231
600 1324 m 1,235,236
 600 1325 600 1325 599 1329 c 0,237,238
 598 1332 598 1332 597 1333 c 1,239,240
 601 1330 601 1330 603 1324 c 1,241,-1
 600 1324 l 1,235,236
623 1311 m 1,242,243
 622 1309 622 1309 621 1306 c 256,244,245
 620 1303 620 1303 619 1301 c 1,246,247
 616 1307 616 1307 613 1311 c 1,248,-1
 623 1311 l 1,242,243
635 1282 m 2,249,250
 637 1280 637 1280 642 1272 c 1,251,252
 634 1275 634 1275 629 1282 c 1,253,-1
 635 1282 l 2,249,250
645 1246 m 1,254,255
 644 1254 644 1254 642 1266 c 1,256,257
 654 1249 654 1249 651 1253 c 1,258,259
 651 1252 651 1252 650 1250 c 0,260,261
 649 1247 649 1247 648 1246 c 2,262,-1
 645 1246 l 1,254,255
674 1130 m 1,263,264
 674 1129 674 1129 675 1127 c 0,265,266
 677 1125 677 1125 677 1124 c 2,267,-1
 655 1111 l 1,268,-1
 667 1130 l 1,269,-1
 674 1130 l 1,263,264
699 1182 m 1,270,271
 704 1176 704 1176 719 1156 c 1,272,273
 715 1154 715 1154 690 1137 c 1,274,-1
 687 1137 l 1,275,276
 688 1152 688 1152 690 1182 c 1,277,-1
 699 1182 l 1,270,271
613 668 m 256,279,280
 610 671 610 671 623 662 c 1,281,278
 616 665 616 665 613 668 c 256,279,280
632 639 m 1,282,283
 639 635 639 635 645 623 c 1,284,-1
 632 623 l 1,285,-1
 632 639 l 1,282,283
706 549 m 0,287,288
 707 547 707 547 709 543 c 1,289,290
 680 552 680 552 671 597 c 1,291,292
 679 592 679 592 690 577 c 0,293,294
 700 562 700 562 709 555 c 0,295,286
 707 552 707 552 706 549 c 0,287,288
1110 120 m 1,296,-1
 1110 123 l 1,297,-1
 1129 123 l 1,298,299
 1132 118 1132 118 1132 116 c 0,300,301
 1131 107 1131 107 1134 106 c 0,302,303
 1135 106 1135 106 1145 110 c 1,304,305
 1143 92 1143 92 1142 84 c 1,306,307
 1147 83 1147 83 1194 37 c 0,308,309
 1240 -8 1240 -8 1241 -13 c 1,310,-1
 1244 -13 l 2,311,312
 1247 -11 1247 -11 1254 -8 c 0,313,314
 1260 -5 1260 -5 1264 -3 c 1,315,316
 1255 14 1255 14 1232 34 c 0,317,318
 1202 59 1202 59 1199 62 c 0,319,320
 1161 107 1161 107 1084 186 c 0,321,322
 1004 270 1004 270 969 310 c 0,323,324
 958 322 958 322 904 369 c 0,325,326
 864 405 864 405 847 436 c 1,327,328
 954 568 954 568 1145 704 c 1,329,330
 1142 702 1142 702 1191 744 c 0,331,332
 1219 770 1219 770 1241 772 c 1,333,334
 1243 780 1243 780 1244 785 c 1,335,336
 994 689 994 689 796 504 c 1,337,-1
 783 504 l 1,338,339
 736 562 736 562 664 666 c 0,340,341
 576 793 576 793 549 830 c 0,342,343
 543 838 543 838 536 858 c 0,344,345
 531 872 531 872 520 878 c 1,346,347
 524 915 524 915 561 951 c 0,348,349
 605 996 605 996 613 1014 c 1,350,-1
 623 1014 l 1,351,352
 617 1000 617 1000 607 975 c 1,353,354
 662 997 662 997 690 1059 c 1,355,356
 692 1058 692 1058 699 1049 c 1,357,358
 761 1107 761 1107 767 1143 c 1,359,360
 755 1159 755 1159 693 1288 c 0,361,362
 631 1416 631 1416 632 1421 c 1,363,364
 627 1425 627 1425 618 1430 c 0,365,366
 608 1436 608 1436 604 1440 c 0,367,368
 589 1451 589 1451 584 1475 c 1,369,370
 578 1475 578 1475 566 1474 c 0,371,372
 555 1473 555 1473 549 1472 c 1,373,374
 537 1488 537 1488 539 1501 c 1,375,376
 529 1503 529 1503 511 1508 c 0,377,378
 495 1513 495 1513 482 1514 c 1,379,380
 459 1479 459 1479 413 1441 c 0,381,382
 358 1395 358 1395 334 1408 c 1,383,384
 312 1393 312 1393 265 1299 c 0,385,386
 217 1204 217 1204 219 1172 c 0,387,388
 218 1171 218 1171 216 1166 c 1,389,390
 226 1161 226 1161 235 1162 c 1,391,392
 260 1111 260 1111 280 991 c 0,393,394
 281 991 281 991 286 990 c 0,395,396
 290 989 290 989 292 988 c 0,397,398
 301 1003 301 1003 302 1036 c 0,399,400
 303 1037 303 1037 304 1038 c 256,401,402
 305 1039 305 1039 305 1040 c 1,403,404
 356 955 356 955 373 927 c 1,405,406
 377 938 377 938 270 781 c 0,407,408
 249 750 249 750 204 671 c 0,409,410
 164 599 164 599 135 562 c 0,411,412
 101 518 101 518 75 484 c 0,413,414
 70 476 70 476 62 445 c 0,415,416
 54 416 54 416 49 407 c 0,417,418
 2 331 2 331 1 326 c 0,419,420
 -1 319 -1 319 2 302 c 0,421,422
 5 283 5 283 4 275 c 1,423,424
 194 91 194 91 228 64 c 0,425,426
 389 -67 389 -67 504 -68 c 1,427,-1
 504 -64 l 1,428,429
 492 -50 492 -50 448 -39 c 0,430,431
 408 -30 408 -30 401 -9 c 1,432,433
 441 -10 441 -10 476 -21 c 0,434,435
 518 -35 518 -35 523 -55 c 0,436,437
 527 -57 527 -57 530 -58 c 0,438,439
 540 -35 540 -35 539 -35 c 1,440,441
 546 -34 546 -34 594 -48 c 1,442,443
 592 -55 592 -55 587 -80 c 0,444,445
 590 -85 590 -85 600 -100 c 1,446,447
 593 -101 593 -101 623 -97 c 1,448,449
 625 -91 625 -91 632 -71 c 1,450,451
 641 -73 641 -73 655 -77 c 0,452,453
 672 -82 672 -82 677 -84 c 0,454,455
 678 -83 678 -83 680 -80 c 2,456,-1
 680 -64 l 1,457,458
 624 -43 624 -43 673 115 c 0,459,460
 720 267 720 267 767 291 c 1,461,462
 774 302 774 302 772 306 c 1,463,464
 773 305 773 305 760 320 c 1,465,466
 766 327 766 327 812 388 c 1,467,468
 811 387 811 387 815 394 c 1,469,470
 832 377 832 377 889 294 c 1,471,472
 931 253 931 253 978 207 c 1,473,474
 1013 141 1013 141 1010 146 c 1,475,476
 1077 70 1077 70 1078 68 c 0,477,478
 1113 73 1113 73 1132 58 c 0,479,480
 1141 51 1141 51 1141 51 c 2,481,482
 1141 50 1141 50 1135 42 c 1,483,484
 1206 -47 1206 -47 1273 -87 c 1,485,486
 1260 -52 1260 -52 1197 11 c 0,487,488
 1136 71 1136 71 1126 104 c 1,489,-1
 1110 120 l 1,296,-1
EndSplineSet
EndChar

StartChar: quotesingle
Encoding: 39 39 10
Width: 346
GlyphClass: 1
Flags: W
LayerCount: 2
Fore
SplineSet
136 1379 m 1,1,2
 131 1380 131 1380 128 1380 c 1,3,0
 133 1379 133 1379 136 1379 c 1,1,2
103 1429 m 1,4,5
 99 1430 99 1430 97 1431 c 0,6,7
 95 1431 95 1431 95 1431 c 257,8,9
 95 1431 95 1431 88 1429 c 0,10,11
 84 1432 84 1432 84 1434 c 2,12,13
 84 1434 84 1434 85 1438 c 1,14,-1
 96 1438 l 2,15,16
 98 1435 98 1435 103 1433 c 1,17,-1
 103 1429 l 1,4,5
89 1469 m 0,19,20
 93 1461 93 1461 96 1459 c 0,21,22
 94 1455 94 1455 88 1450 c 1,23,-1
 81 1450 l 1,24,25
 81 1450 81 1450 81 1477 c 1,26,18
 87 1475 87 1475 89 1469 c 0,19,20
55 1483 m 1,28,29
 55 1485 55 1485 52 1489 c 1,30,-1
 63 1489 l 2,31,32
 64 1488 64 1488 66 1487 c 1,33,34
 65 1486 65 1486 63 1485 c 0,35,27
 60 1484 60 1484 55 1483 c 1,28,29
296 1575 m 1,37,38
 287 1574 287 1574 281 1571 c 0,39,40
 273 1568 273 1568 267 1567 c 1,41,42
 267 1560 267 1560 262 1534 c 0,43,44
 257 1509 257 1509 256 1507 c 0,45,46
 255 1506 255 1506 240 1497 c 0,47,48
 233 1493 233 1493 234 1481 c 1,49,50
 224 1482 224 1482 219 1485 c 1,51,52
 212 1480 212 1480 207 1472 c 0,53,54
 203 1463 203 1463 198 1459 c 0,55,56
 193 1458 193 1458 183 1455 c 1,57,-1
 183 1446 l 1,58,59
 174 1443 174 1443 172 1442 c 0,60,61
 171 1440 171 1440 173 1437 c 0,62,63
 174 1435 174 1435 172 1433 c 2,64,-1
 172 1431 l 1,65,-1
 168 1431 l 1,66,67
 168 1451 168 1451 172 1463 c 0,68,69
 173 1466 173 1466 170 1476 c 0,70,71
 167 1485 167 1485 168 1487 c 0,72,73
 170 1487 170 1487 174 1488 c 0,74,75
 178 1488 178 1488 179 1489 c 0,76,77
 176 1505 176 1505 176 1505 c 2,78,79
 177 1507 177 1507 179 1510 c 256,80,81
 181 1513 181 1513 182 1514 c 0,82,83
 185 1518 185 1518 183 1524 c 0,84,85
 182 1528 182 1528 190 1538 c 0,86,87
 197 1545 197 1545 187 1552 c 0,88,89
 186 1553 186 1553 185 1554 c 256,90,91
 184 1555 184 1555 183 1556 c 0,92,93
 175 1554 175 1554 169 1551 c 0,94,95
 160 1546 160 1546 158 1545 c 0,96,97
 157 1532 157 1532 139 1489 c 0,98,99
 125 1456 125 1456 136 1431 c 0,100,101
 136 1429 136 1429 133 1428 c 0,102,103
 129 1427 129 1427 128 1427 c 0,104,105
 127 1425 127 1425 132 1394 c 1,106,-1
 132 1386 l 1,107,108
 117 1389 117 1389 121 1400 c 0,109,110
 126 1414 126 1414 121 1418 c 1,111,-1
 114 1418 l 1,112,113
 123 1424 123 1424 118 1463 c 0,114,115
 113 1506 113 1506 114 1507 c 1,116,-1
 110 1507 l 1,117,-1
 110 1509 l 1,118,119
 95 1506 95 1506 92 1494 c 1,120,-1
 85 1494 l 1,121,122
 78 1506 78 1506 77 1509 c 2,123,-1
 70 1509 l 1,124,125
 64 1501 64 1501 63 1492 c 1,126,-1
 59 1492 l 1,127,128
 58 1516 58 1516 74 1526 c 1,129,130
 72 1528 72 1528 70 1531 c 0,131,132
 68 1533 68 1533 66 1535 c 0,133,134
 26 1533 26 1533 23 1493 c 0,135,136
 20 1461 20 1461 37 1435 c 0,137,138
 39 1432 39 1432 40 1426 c 0,139,140
 41 1421 41 1421 45 1416 c 0,141,142
 46 1415 46 1415 52 1411 c 0,143,144
 58 1408 58 1408 59 1407 c 0,145,146
 61 1403 61 1403 57 1395 c 256,147,148
 53 1387 53 1387 55 1382 c 0,149,150
 56 1382 56 1382 61 1379 c 256,151,152
 66 1376 66 1376 66 1375 c 0,153,154
 65 1363 65 1363 63 1345 c 1,155,156
 80 1311 80 1311 86 1248 c 0,157,158
 94 1177 94 1177 103 1149 c 0,159,160
 104 1147 104 1147 99 1140 c 0,161,162
 92 1132 92 1132 92 1130 c 0,163,164
 89 1123 89 1123 95 1121 c 0,165,166
 103 1118 103 1118 103 1119 c 0,167,168
 101 1122 101 1122 96 1110 c 0,169,170
 93 1105 93 1105 97 1100 c 0,171,172
 104 1091 104 1091 103 1093 c 1,173,174
 105 1089 105 1089 102 1076 c 0,175,176
 100 1064 100 1064 96 1060 c 0,177,178
 95 1059 95 1059 90 1057 c 256,179,180
 85 1055 85 1055 85 1054 c 0,181,182
 79 1041 79 1041 85 1017 c 0,183,184
 93 982 93 982 81 989 c 1,185,186
 84 988 84 988 92 989 c 1,187,188
 99 979 99 979 99 979 c 2,189,190
 102 978 102 978 107 978 c 0,191,192
 111 978 111 978 114 977 c 0,193,194
 122 976 122 976 136 955 c 1,195,196
 148 955 148 955 168 962 c 1,197,198
 171 1003 171 1003 187 1039 c 0,199,200
 189 1045 189 1045 184 1053 c 0,201,202
 178 1061 178 1061 179 1063 c 1,203,204
 178 1061 178 1061 198 1143 c 0,205,206
 198 1146 198 1146 196 1156 c 0,207,208
 195 1165 195 1165 198 1171 c 0,209,210
 208 1192 208 1192 225 1248 c 0,211,212
 241 1300 241 1300 252 1317 c 0,213,214
 256 1322 256 1322 258 1335 c 0,215,216
 261 1348 261 1348 260 1351 c 0,217,218
 259 1351 259 1351 254 1351 c 0,219,220
 250 1350 250 1350 252 1352 c 0,221,222
 265 1368 265 1368 270 1384 c 0,223,224
 303 1484 303 1484 300 1479 c 1,225,226
 303 1484 303 1484 300 1493 c 0,227,228
 298 1502 298 1502 300 1504 c 2,229,230
 300 1504 300 1504 307 1506 c 0,231,232
 313 1508 313 1508 314 1509 c 0,233,234
 319 1516 319 1516 322 1531 c 0,235,236
 325 1541 325 1541 340 1548 c 1,237,238
 339 1559 339 1559 330 1560 c 0,239,240
 328 1560 328 1560 321 1560 c 0,241,242
 315 1560 315 1560 311 1561 c 0,243,36
 307 1563 307 1563 296 1575 c 1,37,38
EndSplineSet
EndChar

StartChar: parenleft
Encoding: 40 40 11
Width: 597
GlyphClass: 1
Flags: W
LayerCount: 2
Fore
SplineSet
460 -84 m 1,0,1
 452 -81 452 -81 447 -75 c 0,2,3
 446 -72 446 -72 447 -62 c 1,4,5
 441 -57 441 -57 460 -79 c 1,6,-1
 460 -84 l 1,0,1
439 -41 m 1,7,-1
 430 -41 l 1,8,-1
 430 -33 l 1,9,10
 432 -33 432 -33 435 -35 c 0,11,12
 437 -36 437 -36 439 -37 c 2,13,-1
 439 -41 l 1,7,-1
350 116 m 1,15,16
 341 135 341 135 341 146 c 1,17,18
 343 145 343 145 347 144 c 0,19,20
 351 142 351 142 354 142 c 0,21,22
 356 136 356 136 358 133 c 0,23,24
 356 124 356 124 354 120 c 0,25,14
 352 118 352 118 350 116 c 1,15,16
256 129 m 1,27,28
 264 120 264 120 265 120 c 1,29,26
 256 128 256 128 256 129 c 1,27,28
143 1049 m 256,31,32
 146 1044 146 1044 146 1042 c 0,33,34
 143 1031 143 1031 134 1009 c 0,35,36
 122 983 122 983 120 979 c 0,37,38
 128 944 128 944 120 928 c 1,39,40
 121 929 121 929 107 923 c 1,41,42
 116 1110 116 1110 146 1178 c 1,43,44
 148 1201 148 1201 150 1217 c 0,45,46
 154 1224 154 1224 170 1242 c 0,47,48
 184 1258 184 1258 188 1272 c 1,49,-1
 197 1272 l 1,50,51
 205 1226 205 1226 181 1161 c 0,52,53
 177 1151 177 1151 159 1109 c 0,54,55
 147 1078 147 1078 141 1059 c 0,56,30
 140 1054 140 1054 143 1049 c 256,31,32
99 732 m 1,57,-1
 95 732 l 1,58,59
 88 763 88 763 86 779 c 1,60,-1
 99 779 l 1,61,62
 93 762 93 762 99 753 c 1,63,-1
 99 732 l 1,57,-1
697 -341 m 0,65,66
 685 -339 685 -339 681 -334 c 0,67,68
 671 -323 671 -323 650 -289 c 0,69,70
 632 -259 632 -259 617 -245 c 1,71,-1
 617 -237 l 1,72,73
 655 -245 655 -245 673 -245 c 1,74,75
 667 -210 667 -210 583 -164 c 1,76,-1
 583 -152 l 1,77,78
 561 -149 561 -149 543 -118 c 0,79,80
 518 -73 518 -73 515 -71 c 0,81,82
 519 -63 519 -63 521 -63 c 0,83,84
 531 -66 531 -66 532 -67 c 1,85,86
 532 -51 532 -51 515 -20 c 1,87,88
 506 -19 506 -19 498 -20 c 1,89,90
 491 -5 491 -5 472 13 c 0,91,92
 450 34 450 34 443 44 c 0,93,94
 438 52 438 52 436 68 c 0,95,96
 433 87 433 87 430 95 c 0,97,98
 426 105 426 105 380 218 c 0,99,100
 348 295 348 295 333 346 c 1,101,102
 331 338 331 338 337 363 c 1,103,104
 312 436 312 436 307 473 c 0,105,106
 306 480 306 480 312 490 c 0,107,108
 318 499 318 499 316 511 c 0,109,110
 313 525 313 525 303 563 c 0,111,112
 293 598 293 598 290 613 c 0,113,114
 292 622 292 622 294 639 c 1,115,116
 292 639 292 639 288 641 c 0,117,118
 284 642 284 642 282 643 c 0,119,120
 282 650 282 650 284 666 c 0,121,122
 285 682 285 682 286 690 c 0,123,124
 283 699 283 699 281 730 c 0,125,126
 278 765 278 765 277 770 c 0,127,128
 251 909 251 909 367 1123 c 0,129,130
 415 1213 415 1213 422 1217 c 1,131,-1
 422 1242 l 1,132,133
 401 1237 401 1237 388 1225 c 0,134,135
 379 1220 379 1220 379 1208 c 0,136,137
 379 1193 379 1193 375 1187 c 0,138,139
 370 1179 370 1179 354 1157 c 0,140,141
 338 1137 338 1137 333 1127 c 0,142,143
 286 1037 286 1037 290 1042 c 1,144,-1
 290 1034 l 1,145,-1
 282 1034 l 1,146,147
 285 1109 285 1109 328 1204 c 0,148,149
 330 1218 330 1218 333 1238 c 0,150,151
 335 1243 335 1243 343 1255 c 0,152,153
 352 1267 352 1267 354 1272 c 0,154,155
 355 1278 355 1278 356 1291 c 256,156,157
 357 1304 357 1304 358 1310 c 0,158,159
 361 1315 361 1315 370 1319 c 0,160,161
 381 1324 381 1324 384 1327 c 1,162,163
 383 1327 383 1327 382 1335 c 0,164,165
 381 1344 381 1344 384 1348 c 0,166,167
 386 1353 386 1353 398 1367 c 0,168,169
 413 1385 413 1385 420 1394 c 0,170,171
 446 1429 446 1429 439 1442 c 1,172,173
 440 1467 440 1467 460 1477 c 0,174,175
 484 1490 484 1490 490 1501 c 0,176,177
 492 1504 492 1504 494 1510 c 0,178,179
 492 1513 492 1513 490 1518 c 1,180,181
 361 1473 361 1473 311 1399 c 0,182,183
 302 1386 302 1386 284 1344 c 0,184,185
 269 1309 269 1309 252 1293 c 1,186,-1
 252 1289 l 1,187,188
 246 1292 246 1292 243 1297 c 0,189,190
 240 1305 240 1305 255 1376 c 0,191,192
 270 1446 270 1446 260 1463 c 1,193,-1
 260 1467 l 1,194,195
 262 1467 262 1467 265 1465 c 0,196,197
 268 1464 268 1464 269 1463 c 1,198,199
 317 1603 317 1603 328 1612 c 1,200,-1
 328 1650 l 1,201,-1
 324 1650 l 1,202,203
 319 1640 319 1640 307 1628 c 0,204,205
 294 1614 294 1614 290 1608 c 0,206,207
 280 1590 280 1590 270 1560 c 0,208,209
 259 1525 259 1525 252 1510 c 0,210,211
 250 1505 250 1505 239 1492 c 0,212,213
 229 1479 229 1479 226 1472 c 0,214,215
 220 1452 220 1452 224 1423 c 0,216,217
 228 1392 228 1392 226 1382 c 0,218,219
 218 1345 218 1345 191 1325 c 0,220,221
 156 1298 156 1298 150 1289 c 1,222,-1
 150 1272 l 1,223,224
 144 1261 144 1261 120 1238 c 1,225,-1
 120 1234 l 1,226,227
 113 1238 113 1238 112 1251 c 1,228,229
 110 1249 110 1249 102 1223 c 0,230,231
 94 1196 94 1196 95 1191 c 0,232,233
 98 1170 98 1170 68 1079 c 0,234,235
 37 988 37 988 48 928 c 0,236,237
 51 908 51 908 44 852 c 0,238,239
 36 797 36 797 44 766 c 0,240,241
 48 750 48 750 53 708 c 0,242,243
 57 668 57 668 61 656 c 0,244,245
 60 648 60 648 59 634 c 0,246,247
 57 620 57 620 56 613 c 0,248,249
 57 611 57 611 82 554 c 0,250,251
 86 544 86 544 84 510 c 0,252,253
 81 474 81 474 86 456 c 0,254,255
 88 450 88 450 97 437 c 256,256,257
 106 424 106 424 107 418 c 0,258,259
 106 405 106 405 103 380 c 0,260,261
 105 373 105 373 111 362 c 0,262,263
 119 349 119 349 120 346 c 0,264,265
 124 336 124 336 121 319 c 0,266,267
 118 301 118 301 120 295 c 0,268,269
 123 293 123 293 129 288 c 0,270,271
 134 284 134 284 137 282 c 0,272,273
 142 272 142 272 138 259 c 0,274,275
 133 245 133 245 137 235 c 0,276,277
 139 234 139 234 144 231 c 0,278,279
 148 228 148 228 150 227 c 0,280,281
 149 220 149 220 146 205 c 1,282,283
 158 167 158 167 171 154 c 0,284,285
 173 148 173 148 175 146 c 1,286,-1
 175 150 l 1,287,288
 184 151 184 151 180 154 c 0,289,290
 179 156 179 156 173 163 c 256,291,292
 167 170 167 170 167 171 c 0,293,294
 174 201 174 201 175 197 c 1,295,296
 159 256 159 256 158 252 c 1,297,298
 159 254 159 254 133 329 c 0,299,300
 129 341 129 341 136 351 c 0,301,302
 143 362 143 362 141 371 c 0,303,304
 138 388 138 388 125 424 c 0,305,306
 111 465 111 465 107 477 c 0,307,308
 105 487 105 487 111 494 c 0,309,310
 117 502 117 502 116 511 c 1,311,312
 116 509 116 509 107 537 c 1,313,314
 114 568 114 568 107 588 c 0,315,316
 106 591 106 591 99 599 c 0,317,318
 91 607 91 607 90 609 c 0,319,320
 83 627 83 627 89 663 c 0,321,322
 94 697 94 697 90 707 c 1,323,-1
 90 715 l 1,324,325
 105 706 105 706 103 668 c 1,326,327
 108 660 108 660 119 646 c 0,328,329
 129 632 129 632 133 626 c 1,330,331
 133 626 133 626 127 606 c 0,332,333
 121 585 121 585 124 575 c 0,334,335
 125 573 125 573 133 562 c 0,336,337
 141 552 141 552 141 550 c 0,338,339
 143 543 143 543 141 509 c 0,340,341
 138 476 138 476 141 469 c 0,342,343
 144 467 144 467 154 460 c 1,344,345
 154 460 154 460 151 450 c 256,346,347
 148 440 148 440 150 435 c 0,348,349
 152 428 152 428 160 415 c 0,350,351
 169 401 169 401 171 397 c 2,352,-1
 171 367 l 2,353,354
 173 363 173 363 182 348 c 0,355,356
 191 334 191 334 192 329 c 0,357,358
 193 325 193 325 189 311 c 0,359,360
 186 299 186 299 188 290 c 0,361,362
 190 284 190 284 198 273 c 0,363,364
 208 260 208 260 209 256 c 2,365,-1
 209 235 l 2,366,367
 212 229 212 229 225 206 c 0,368,369
 236 185 236 185 239 176 c 2,370,-1
 239 142 l 1,371,372
 246 125 246 125 264 96 c 0,373,374
 285 64 285 64 290 52 c 0,375,376
 297 13 297 13 299 1 c 0,377,378
 302 -7 302 -7 316 -20 c 0,379,380
 330 -34 330 -34 333 -41 c 1,381,382
 332 -40 332 -40 335 -64 c 0,383,384
 337 -88 337 -88 341 -96 c 0,385,386
 348 -110 348 -110 372 -139 c 0,387,388
 394 -165 394 -165 401 -181 c 1,389,-1
 401 -207 l 2,390,391
 404 -217 404 -217 423 -238 c 0,392,393
 440 -257 440 -257 443 -271 c 1,394,395
 462 -274 462 -274 473 -292 c 1,396,-1
 481 -292 l 1,397,398
 480 -281 480 -281 460 -266 c 1,399,400
 471 -259 471 -259 455 -243 c 0,401,402
 433 -221 433 -221 435 -224 c 1,403,404
 430 -214 430 -214 417 -178 c 0,405,406
 408 -149 408 -149 396 -135 c 0,407,408
 394 -132 394 -132 388 -132 c 256,409,410
 382 -132 382 -132 379 -130 c 1,411,412
 387 -126 387 -126 371 -82 c 0,413,414
 357 -43 357 -43 350 -33 c 1,415,-1
 350 -28 l 1,416,417
 375 -37 375 -37 379 -37 c 0,418,419
 406 -108 406 -108 452 -147 c 1,420,421
 465 -140 465 -140 477 -156 c 0,422,423
 480 -160 480 -160 488 -180 c 0,424,425
 495 -200 495 -200 498 -203 c 0,426,427
 505 -205 505 -205 520 -209 c 0,428,429
 533 -213 533 -213 541 -215 c 0,430,431
 544 -218 544 -218 543 -223 c 0,432,433
 543 -230 543 -230 545 -232 c 0,434,435
 547 -235 547 -235 553 -235 c 256,436,437
 559 -235 559 -235 562 -237 c 256,438,439
 565 -239 565 -239 567 -246 c 0,440,441
 568 -255 568 -255 571 -258 c 0,442,443
 575 -264 575 -264 587 -269 c 0,444,445
 600 -276 600 -276 605 -279 c 1,446,447
 592 -287 592 -287 609 -309 c 0,448,449
 612 -313 612 -313 620 -314 c 0,450,451
 630 -315 630 -315 634 -317 c 0,452,453
 640 -321 640 -321 642 -331 c 0,454,455
 644 -343 644 -343 647 -347 c 0,456,457
 651 -353 651 -353 668 -362 c 0,458,459
 686 -372 686 -372 694 -381 c 1,460,461
 730 -375 730 -375 728 -377 c 1,462,-1
 736 -377 l 1,463,-1
 736 -372 l 1,464,465
 731 -369 731 -369 725 -360 c 0,466,467
 719 -350 719 -350 715 -347 c 0,468,64
 710 -343 710 -343 697 -341 c 0,65,66
EndSplineSet
EndChar

StartChar: parenright
Encoding: 41 41 12
Width: 505
GlyphClass: 1
Flags: W
LayerCount: 2
Fore
SplineSet
315 906 m 1,0,1
 322 920 322 920 324 923 c 0,2,3
 329 921 329 921 332 919 c 2,4,-1
 336 919 l 1,5,6
 336 918 336 918 324 906 c 1,7,-1
 315 906 l 1,0,1
307 928 m 1,8,9
 307 926 307 926 287 1008 c 0,10,11
 274 1065 274 1065 251 1076 c 1,12,13
 251 1076 251 1076 273 1098 c 1,14,-1
 281 1098 l 1,15,16
 297 990 297 990 328 949 c 1,17,18
 326 943 326 943 324 940 c 0,19,20
 319 936 319 936 315 937 c 0,21,22
 313 937 313 937 311 928 c 1,23,-1
 307 928 l 1,8,9
260 1115 m 0,25,26
 258 1112 258 1112 256 1110 c 1,27,28
 247 1148 247 1148 247 1144 c 0,29,30
 252 1141 252 1141 264 1132 c 1,31,24
 263 1119 263 1119 260 1115 c 0,25,26
243 1170 m 1,32,-1
 251 1170 l 1,33,-1
 251 1161 l 1,34,-1
 243 1161 l 1,35,-1
 243 1170 l 1,32,-1
22 -135 m 1,36,-1
 18 -135 l 1,37,38
 13 -123 13 -123 9 -113 c 1,39,-1
 18 -113 l 1,40,41
 20 -119 20 -119 22 -122 c 2,42,-1
 22 -135 l 1,36,-1
222 1208 m 1,43,-1
 217 1208 l 1,44,45
 216 1213 216 1213 213 1221 c 1,46,-1
 222 1221 l 1,47,-1
 222 1208 l 1,43,-1
90 1442 m 1,48,-1
 90 1450 l 1,49,50
 109 1454 109 1454 120 1455 c 1,51,52
 120 1437 120 1437 132 1412 c 1,53,54
 110 1421 110 1421 94 1442 c 1,55,-1
 90 1442 l 1,48,-1
81 1463 m 1,56,-1
 77 1463 l 1,57,-1
 77 1472 l 1,58,-1
 81 1472 l 1,59,-1
 81 1463 l 1,56,-1
455 855 m 0,61,62
 449 871 449 871 454 899 c 0,63,64
 458 924 458 924 464 932 c 1,65,66
 463 940 463 940 460 949 c 1,67,-1
 443 949 l 1,68,69
 440 960 440 960 436 962 c 0,70,71
 431 963 431 963 430 966 c 0,72,73
 430 972 430 972 432 985 c 0,74,75
 433 997 433 997 434 1004 c 0,76,77
 432 1015 432 1015 425 1046 c 0,78,79
 419 1075 419 1075 417 1085 c 256,80,81
 415 1095 415 1095 419 1125 c 0,82,83
 424 1155 424 1155 421 1166 c 0,84,85
 421 1168 421 1168 415 1171 c 0,86,87
 409 1173 409 1173 409 1174 c 0,88,89
 404 1180 404 1180 399 1200 c 0,90,91
 392 1224 392 1224 392 1225 c 0,92,93
 388 1234 388 1234 389 1244 c 0,94,95
 389 1252 389 1252 387 1255 c 0,96,97
 387 1279 387 1279 378 1286 c 0,98,99
 376 1287 376 1287 369 1291 c 0,100,101
 362 1294 362 1294 358 1297 c 0,102,103
 347 1312 347 1312 347 1341 c 0,104,105
 346 1376 346 1376 341 1391 c 0,106,107
 330 1420 330 1420 321 1470 c 0,108,109
 312 1525 312 1525 302 1557 c 0,110,111
 300 1564 300 1564 285 1598 c 0,112,113
 275 1623 275 1623 273 1642 c 1,114,115
 258 1644 258 1644 222 1642 c 0,116,117
 220 1639 220 1639 217 1637 c 0,118,119
 220 1559 220 1559 260 1506 c 1,120,-1
 260 1467 l 1,121,122
 255 1471 255 1471 247 1476 c 1,123,124
 251 1461 251 1461 171 1633 c 1,125,126
 159 1634 159 1634 158 1633 c 2,127,-1
 149 1633 l 1,128,129
 166 1559 166 1559 171 1548 c 0,130,131
 172 1544 172 1544 182 1531 c 0,132,133
 190 1521 190 1521 192 1510 c 1,134,-1
 205 1510 l 1,135,136
 207 1465 207 1465 239 1412 c 1,137,-1
 256 1404 l 1,138,139
 260 1396 260 1396 256 1385 c 0,140,141
 251 1374 251 1374 256 1365 c 0,142,143
 290 1298 290 1298 290 1302 c 1,144,145
 290 1300 290 1300 286 1295 c 0,146,147
 283 1290 283 1290 285 1285 c 0,148,149
 286 1284 286 1284 294 1277 c 0,150,151
 301 1271 301 1271 302 1263 c 0,152,153
 303 1261 303 1261 298 1256 c 0,154,155
 294 1251 294 1251 294 1251 c 1,156,157
 296 1245 296 1245 300 1229 c 0,158,159
 304 1216 304 1216 307 1208 c 0,160,161
 305 1207 305 1207 302 1206 c 256,162,163
 299 1205 299 1205 298 1204 c 256,164,165
 297 1203 297 1203 294 1204 c 1,166,167
 300 1200 300 1200 251 1289 c 0,168,169
 172 1434 172 1434 141 1472 c 1,170,171
 138 1485 138 1485 137 1489 c 0,172,173
 123 1506 123 1506 90 1519 c 0,174,175
 53 1533 53 1533 35 1518 c 1,176,177
 -30 1529 -30 1529 -29 1620 c 0,178,179
 -32 1622 -32 1622 -33 1624 c 1,180,181
 -28 1625 -28 1625 -67 1607 c 1,182,183
 -74 1537 -74 1537 -16 1497 c 0,184,185
 -13 1496 -13 1496 -8 1495 c 0,186,187
 -2 1493 -2 1493 1 1493 c 0,188,189
 23 1472 23 1472 64 1408 c 1,190,-1
 77 1408 l 1,191,192
 80 1393 80 1393 107 1348 c 0,193,194
 109 1345 109 1345 118 1342 c 0,195,196
 127 1338 127 1338 128 1336 c 0,197,198
 129 1328 129 1328 130 1312 c 0,199,200
 132 1297 132 1297 132 1289 c 0,201,202
 135 1282 135 1282 150 1269 c 0,203,204
 164 1256 164 1256 166 1251 c 0,205,206
 170 1241 170 1241 167 1230 c 256,207,208
 164 1219 164 1219 166 1212 c 0,209,210
 168 1208 168 1208 177 1195 c 256,211,212
 186 1182 186 1182 188 1178 c 2,213,-1
 188 1157 l 2,214,215
 189 1155 189 1155 196 1152 c 0,216,217
 204 1150 204 1150 205 1149 c 0,218,219
 206 1147 206 1147 205 1129 c 256,220,221
 204 1111 204 1111 205 1110 c 0,222,223
 206 1107 206 1107 213 1099 c 0,224,225
 221 1091 221 1091 222 1089 c 0,226,227
 226 1079 226 1079 225 1059 c 0,228,229
 223 1041 223 1041 230 1030 c 0,230,231
 231 1029 231 1029 234 1030 c 2,232,-1
 243 1030 l 1,233,234
 242 961 242 961 260 953 c 1,235,236
 257 944 257 944 251 940 c 1,237,-1
 251 932 l 1,238,-1
 268 932 l 1,239,240
 267 879 267 879 285 830 c 0,241,242
 289 820 289 820 285 800 c 0,243,244
 280 779 280 779 281 775 c 0,245,246
 301 687 301 687 302 694 c 1,247,248
 298 676 298 676 293 621 c 0,249,250
 289 578 289 578 281 558 c 0,251,252
 276 546 276 546 279 523 c 0,253,254
 283 500 283 500 281 494 c 0,255,256
 280 491 280 491 273 484 c 0,257,258
 265 476 265 476 264 473 c 2,259,-1
 264 443 l 1,260,261
 240 355 240 355 243 363 c 1,262,263
 246 357 246 357 247 354 c 0,264,265
 242 343 242 343 223 312 c 0,266,267
 207 283 207 283 200 269 c 0,268,269
 197 261 197 261 194 244 c 0,270,271
 192 227 192 227 188 218 c 0,272,273
 184 212 184 212 173 201 c 0,274,275
 161 190 161 190 158 184 c 0,276,277
 152 175 152 175 147 155 c 0,278,279
 143 135 143 135 137 125 c 0,280,281
 134 121 134 121 124 116 c 0,282,283
 113 112 113 112 111 108 c 0,284,285
 110 101 110 101 107 89 c 0,286,287
 104 76 104 76 103 69 c 1,288,289
 99 77 99 77 89 71 c 0,290,291
 81 67 81 67 77 61 c 0,292,293
 -80 -159 -80 -159 -76 -156 c 1,294,295
 -73 -182 -73 -182 -38 -190 c 1,296,297
 -87 -287 -87 -287 -80 -351 c 0,298,299
 -79 -358 -79 -358 -87 -370 c 0,300,301
 -93 -381 -93 -381 -89 -389 c 1,302,-1
 -89 -398 l 1,303,304
 -76 -394 -76 -394 -76 -394 c 1,305,306
 -67 -373 -67 -373 -59 -318 c 0,307,308
 -51 -268 -51 -268 -38 -241 c 0,309,310
 -36 -239 -36 -239 -30 -236 c 0,311,312
 -22 -234 -22 -234 -21 -233 c 0,313,314
 -21 -232 -21 -232 -18 -228 c 0,315,316
 -16 -221 -16 -221 -18 -208 c 0,317,318
 -20 -196 -20 -196 -16 -190 c 0,319,320
 -13 -186 -13 -186 -12 -187 c 0,321,322
 -11 -189 -11 -189 -8 -186 c 0,323,324
 27 -159 27 -159 43 -122 c 1,325,-1
 43 -101 l 1,326,327
 47 -93 47 -93 62 -79 c 256,328,329
 77 -65 77 -65 81 -58 c 1,330,331
 108 -58 108 -58 115 -62 c 0,332,333
 121 -71 121 -71 108 -85 c 0,334,335
 94 -102 94 -102 94 -109 c 0,336,337
 96 -152 96 -152 94 -156 c 0,338,339
 78 -190 78 -190 77 -186 c 1,340,341
 75 -187 75 -187 68 -192 c 0,342,343
 63 -195 63 -195 60 -198 c 2,344,-1
 52 -198 l 1,345,346
 72 -112 72 -112 73 -118 c 1,347,-1
 73 -109 l 1,348,-1
 64 -109 l 1,349,350
 61 -115 61 -115 56 -127 c 0,351,352
 52 -140 52 -140 47 -147 c 0,353,354
 39 -154 39 -154 26 -164 c 0,355,356
 25 -167 25 -167 26 -178 c 0,357,358
 28 -188 28 -188 22 -194 c 0,359,360
 18 -198 18 -198 2 -208 c 0,361,362
 -12 -217 -12 -217 -16 -224 c 1,363,364
 -16 -223 -16 -223 -18 -228 c 0,365,366
 -20 -231 -20 -231 -21 -232 c 1,367,368
 -20 -232 -20 -232 -21 -233 c 0,369,370
 -52 -302 -52 -302 -46 -296 c 1,371,372
 -45 -313 -45 -313 -29 -330 c 1,373,374
 6 -330 6 -330 51 -263 c 0,375,376
 107 -182 107 -182 120 -173 c 1,377,378
 118 -164 118 -164 115 -160 c 1,379,380
 119 -154 119 -154 130 -149 c 0,381,382
 142 -144 142 -144 145 -139 c 0,383,384
 151 -129 151 -129 156 -111 c 256,385,386
 161 -93 161 -93 166 -84 c 0,387,388
 171 -76 171 -76 187 -60 c 0,389,390
 204 -43 204 -43 209 -37 c 0,391,392
 214 -30 214 -30 220 -7 c 0,393,394
 225 15 225 15 230 23 c 0,395,396
 274 87 274 87 268 108 c 1,397,398
 272 114 272 114 281 116 c 0,399,400
 282 120 282 120 302 154 c 0,401,402
 305 159 305 159 300 160 c 256,403,404
 295 161 295 161 298 167 c 1,405,406
 304 169 304 169 311 171 c 1,407,408
 315 178 315 178 312 184 c 0,409,410
 308 190 308 190 311 197 c 0,411,412
 315 200 315 200 324 205 c 0,413,414
 324 206 324 206 320 218 c 256,415,416
 316 230 316 230 319 239 c 256,417,418
 322 248 322 248 334 263 c 0,419,420
 346 280 346 280 349 286 c 2,421,-1
 349 316 l 2,422,423
 350 318 350 318 355 323 c 0,424,425
 361 328 361 328 362 329 c 1,426,427
 361 330 361 330 358 341 c 0,428,429
 358 343 358 343 364 348 c 256,430,431
 370 353 370 353 370 354 c 0,432,433
 375 364 375 364 375 375 c 0,434,435
 376 385 376 385 379 392 c 0,436,437
 385 406 385 406 404 490 c 0,438,439
 404 500 404 500 416 534 c 0,440,441
 425 564 425 564 421 571 c 1,442,443
 421 582 421 582 433 627 c 0,444,445
 442 662 442 662 434 677 c 1,446,447
 434 700 434 700 447 715 c 0,448,449
 452 721 452 721 447 743 c 0,450,451
 442 767 442 767 443 770 c 0,452,453
 444 777 444 777 453 803 c 0,454,455
 462 827 462 827 464 843 c 1,456,60
 463 837 463 837 455 855 c 0,61,62
EndSplineSet
EndChar

StartChar: asterisk
Encoding: 42 42 13
Width: 893
GlyphClass: 1
Flags: W
LayerCount: 2
Fore
SplineSet
759 1497 m 1,0,1
 758 1493 758 1493 764 1506 c 1,2,-1
 771 1506 l 1,3,4
 770 1504 770 1504 766 1497 c 1,5,-1
 759 1497 l 1,0,1
668 1426 m 2,6,7
 664 1425 664 1425 673 1424 c 1,8,9
 670 1420 670 1420 659 1417 c 0,10,11
 645 1414 645 1414 643 1412 c 0,12,13
 637 1409 637 1409 628 1398 c 0,14,15
 620 1388 620 1388 614 1384 c 0,16,17
 612 1383 612 1383 606 1381 c 0,18,19
 601 1380 601 1380 598 1377 c 0,20,21
 597 1376 597 1376 595 1370 c 0,22,23
 593 1365 593 1365 591 1363 c 0,24,25
 588 1361 588 1361 582 1360 c 0,26,27
 575 1358 575 1358 572 1356 c 2,28,-1
 570 1356 l 1,29,30
 594 1400 594 1400 593 1396 c 1,31,32
 604 1395 604 1395 643 1417 c 0,33,34
 680 1439 680 1439 687 1448 c 1,35,-1
 692 1448 l 1,36,37
 690 1443 690 1443 671 1426 c 1,38,-1
 668 1426 l 2,6,7
586 1443 m 1,40,41
 590 1442 590 1442 591 1440 c 1,42,39
 588 1442 588 1442 586 1443 c 1,40,41
650 1487 m 1,43,44
 646 1477 646 1477 629 1467 c 0,45,46
 609 1455 609 1455 605 1450 c 1,47,-1
 600 1450 l 1,48,49
 605 1459 605 1459 621 1469 c 0,50,51
 638 1480 638 1480 643 1487 c 1,52,-1
 650 1487 l 1,43,44
508 1549 m 0,54,55
 519 1610 519 1610 514 1618 c 0,56,57
 516 1622 516 1622 521 1623 c 1,58,59
 521 1653 521 1653 530 1663 c 1,60,61
 529 1661 529 1661 537 1672 c 1,62,-1
 542 1672 l 2,63,64
 543 1671 543 1671 544 1670 c 0,65,66
 544 1661 544 1661 523 1602 c 0,67,68
 520 1593 520 1593 521 1575 c 0,69,70
 523 1558 523 1558 521 1553 c 0,71,72
 505 1499 505 1499 505 1476 c 1,73,53
 498 1487 498 1487 508 1549 c 0,54,55
506 1321 m 0,75,76
 507 1323 507 1323 507 1324 c 1,77,78
 509 1322 509 1322 505 1319 c 1,79,74
 505 1320 505 1320 506 1321 c 0,75,76
502 1452 m 1,80,-1
 500 1452 l 1,81,-1
 500 1469 l 1,82,-1
 505 1469 l 1,83,84
 504 1460 504 1460 502 1457 c 2,85,-1
 502 1452 l 1,80,-1
542 1674 m 1,87,88
 543 1677 543 1677 544 1679 c 1,89,86
 546 1677 546 1677 542 1674 c 1,87,88
495 1665 m 1,90,-1
 493 1665 l 1,91,-1
 493 1670 l 1,92,-1
 495 1670 l 1,93,-1
 495 1665 l 1,90,-1
523 1186 m 1,95,-1
 519 1186 l 1,96,97
 520 1190 520 1190 521 1193 c 1,98,94
 522 1191 522 1191 523 1186 c 1,95,-1
783 1513 m 2,100,-1
 776 1513 l 1,101,102
 778 1518 778 1518 783 1522 c 1,103,-1
 783 1525 l 1,104,105
 737 1512 737 1512 720 1499 c 1,106,-1
 717 1499 l 1,107,108
 719 1502 719 1502 720 1504 c 0,109,110
 721 1507 721 1507 750 1522 c 1,111,112
 750 1529 750 1529 752 1534 c 1,113,114
 728 1553 728 1553 729 1553 c 1,115,116
 721 1555 721 1555 680 1536 c 0,117,118
 646 1521 646 1521 591 1480 c 0,119,120
 586 1477 586 1477 578 1466 c 0,121,122
 570 1456 570 1456 565 1452 c 0,123,124
 523 1421 523 1421 521 1417 c 1,125,-1
 516 1417 l 1,126,127
 526 1499 526 1499 542 1543 c 1,128,129
 544 1563 544 1563 544 1571 c 0,130,131
 547 1580 547 1580 565 1639 c 1,132,-1
 565 1653 l 2,133,134
 568 1658 568 1658 575 1672 c 0,135,136
 582 1685 582 1685 584 1691 c 1,137,138
 577 1695 577 1695 575 1695 c 0,139,140
 566 1701 566 1701 556 1693 c 1,141,-1
 549 1693 l 1,142,143
 555 1722 555 1722 563 1730 c 1,144,145
 562 1735 562 1735 561 1740 c 1,146,147
 557 1739 557 1739 549 1738 c 0,148,149
 541 1738 541 1738 537 1737 c 0,150,151
 535 1730 535 1730 528 1726 c 0,152,153
 519 1722 519 1722 516 1719 c 0,154,155
 512 1712 512 1712 506 1698 c 0,156,157
 500 1682 500 1682 498 1677 c 0,158,159
 496 1675 496 1675 495 1674 c 2,160,-1
 493 1674 l 1,161,162
 494 1713 494 1713 505 1728 c 1,163,164
 505 1743 505 1743 495 1747 c 0,165,166
 494 1747 494 1747 472 1737 c 1,167,168
 469 1721 469 1721 467 1690 c 0,169,170
 466 1658 466 1658 465 1651 c 256,171,172
 464 1644 464 1644 468 1635 c 0,173,174
 472 1625 472 1625 472 1623 c 2,175,-1
 469 1618 l 2,176,177
 465 1612 465 1612 465 1611 c 0,178,179
 456 1576 456 1576 465 1518 c 0,180,181
 465 1516 465 1516 462 1510 c 0,182,183
 458 1504 458 1504 458 1504 c 1,184,185
 447 1466 447 1466 456 1450 c 1,186,-1
 456 1445 l 1,187,-1
 451 1445 l 1,188,189
 451 1509 451 1509 444 1532 c 1,190,191
 452 1562 452 1562 446 1592 c 0,192,193
 430 1683 430 1683 453 1709 c 1,194,195
 453 1716 453 1716 449 1723 c 1,196,197
 444 1722 444 1722 442 1721 c 0,198,199
 424 1721 424 1721 421 1716 c 0,200,201
 416 1710 416 1710 414 1671 c 0,202,203
 413 1630 413 1630 418 1623 c 1,204,-1
 418 1611 l 2,205,206
 421 1609 421 1609 395 1632 c 1,207,208
 388 1631 388 1631 385 1630 c 2,209,-1
 381 1630 l 1,210,211
 384 1605 384 1605 392 1595 c 0,212,213
 393 1594 393 1594 397 1594 c 256,214,215
 401 1594 401 1594 402 1592 c 0,216,217
 404 1589 404 1589 401 1574 c 0,218,219
 399 1558 399 1558 400 1555 c 0,220,221
 400 1553 400 1553 404 1543 c 256,222,223
 408 1533 408 1533 409 1532 c 0,224,225
 410 1526 410 1526 407 1516 c 0,226,227
 403 1507 403 1507 404 1501 c 0,228,229
 411 1471 411 1471 421 1436 c 1,230,231
 419 1428 419 1428 418 1424 c 0,232,233
 415 1371 415 1371 423 1359 c 0,234,235
 422 1355 422 1355 421 1354 c 2,236,-1
 421 1352 l 1,237,238
 406 1357 406 1357 383 1391 c 1,239,-1
 383 1403 l 1,240,241
 376 1408 376 1408 367 1415 c 0,242,243
 361 1422 361 1422 343 1451 c 0,244,245
 329 1473 329 1473 318 1485 c 0,246,247
 314 1489 314 1489 303 1496 c 0,248,249
 293 1503 293 1503 290 1508 c 0,250,251
 281 1520 281 1520 273 1546 c 0,252,253
 265 1573 265 1573 257 1585 c 1,254,255
 248 1585 248 1585 248 1585 c 2,256,257
 241 1585 241 1585 234 1581 c 1,258,259
 233 1562 233 1562 243 1555 c 1,260,261
 242 1554 242 1554 241 1553 c 0,262,263
 228 1546 228 1546 213 1576 c 1,264,265
 187 1577 187 1577 180 1576 c 0,266,267
 179 1575 179 1575 177 1574 c 0,268,269
 179 1558 179 1558 195 1548 c 0,270,271
 200 1546 200 1546 210 1541 c 0,272,273
 220 1537 220 1537 224 1534 c 0,274,275
 226 1533 226 1533 227 1529 c 0,276,277
 228 1526 228 1526 229 1525 c 0,278,279
 232 1522 232 1522 241 1518 c 0,280,281
 249 1514 249 1514 252 1511 c 0,282,283
 258 1503 258 1503 273 1480 c 0,284,285
 285 1459 285 1459 294 1450 c 1,286,-1
 294 1448 l 1,287,288
 295 1448 295 1448 297 1449 c 0,289,290
 298 1449 298 1449 299 1450 c 1,291,292
 311 1423 311 1423 318 1417 c 0,293,294
 319 1416 319 1416 324 1415 c 0,295,296
 328 1415 328 1415 329 1412 c 0,297,298
 332 1409 332 1409 336 1400 c 0,299,300
 339 1393 339 1393 343 1389 c 1,301,302
 342 1383 342 1383 339 1380 c 256,303,304
 336 1377 336 1377 306 1405 c 0,305,306
 296 1415 296 1415 283 1433 c 0,307,308
 281 1436 281 1436 276 1438 c 0,309,310
 270 1441 270 1441 269 1443 c 0,311,312
 264 1448 264 1448 260 1460 c 0,313,314
 255 1473 255 1473 252 1478 c 0,315,316
 247 1485 247 1485 236 1492 c 0,317,318
 221 1500 221 1500 217 1504 c 1,319,320
 206 1504 206 1504 191 1492 c 1,321,322
 191 1500 191 1500 234 1438 c 0,323,324
 253 1411 253 1411 257 1408 c 1,325,326
 253 1399 253 1399 250 1396 c 0,327,328
 251 1393 251 1393 283 1370 c 0,329,330
 302 1357 302 1357 313 1319 c 1,331,-1
 322 1319 l 1,332,333
 322 1320 322 1320 334 1293 c 1,334,-1
 343 1293 l 1,335,336
 343 1285 343 1285 341 1282 c 2,337,-1
 341 1277 l 1,338,-1
 334 1277 l 1,339,-1
 334 1270 l 1,340,341
 313 1266 313 1266 267 1234 c 256,342,343
 221 1202 221 1202 215 1186 c 0,344,345
 214 1183 214 1183 217 1179 c 1,346,347
 214 1171 214 1171 173 1146 c 0,348,349
 167 1143 167 1143 159 1131 c 0,350,351
 150 1119 150 1119 147 1116 c 0,352,353
 142 1111 142 1111 103 1092 c 1,354,355
 106 1083 106 1083 114 1081 c 1,356,357
 112 1072 112 1072 84 1039 c 1,358,359
 85 1033 85 1033 86 1032 c 0,360,361
 88 1027 88 1027 93 1024 c 0,362,363
 99 1020 99 1020 100 1018 c 1,364,365
 97 1017 97 1017 117 1029 c 0,366,367
 119 1030 119 1030 125 1030 c 0,368,369
 130 1031 130 1031 133 1032 c 2,370,371
 133 1032 133 1032 148 1053 c 0,372,373
 164 1076 164 1076 166 1078 c 0,374,375
 167 1080 167 1080 171 1081 c 0,376,377
 176 1081 176 1081 177 1083 c 0,378,379
 179 1084 179 1084 180 1089 c 0,380,381
 180 1094 180 1094 182 1095 c 2,382,383
 182 1095 182 1095 195 1096 c 256,384,385
 208 1097 208 1097 213 1099 c 0,386,387
 214 1100 214 1100 217 1104 c 0,388,389
 219 1108 219 1108 220 1109 c 0,390,391
 222 1110 222 1110 235 1112 c 0,392,393
 246 1115 246 1115 250 1118 c 0,394,395
 251 1119 251 1119 260 1129 c 0,396,397
 266 1137 266 1137 271 1139 c 0,398,399
 316 1162 316 1162 327 1174 c 1,400,401
 329 1171 329 1171 359 1186 c 0,402,403
 389 1202 389 1202 395 1209 c 1,404,405
 407 1205 407 1205 414 1188 c 0,406,407
 418 1181 418 1181 412 1164 c 0,408,409
 406 1145 406 1145 406 1141 c 0,410,411
 407 1130 407 1130 385 1074 c 0,412,413
 385 1072 385 1072 389 1057 c 0,414,415
 394 1041 394 1041 392 1034 c 0,416,417
 391 1028 391 1028 386 1008 c 0,418,419
 382 994 382 994 381 985 c 0,420,421
 379 961 379 961 395 947 c 1,422,423
 401 948 401 948 406 950 c 1,424,425
 415 1014 415 1014 446 1085 c 0,426,427
 449 1091 449 1091 447 1098 c 0,428,429
 446 1106 446 1106 446 1109 c 0,430,431
 450 1130 450 1130 460 1151 c 1,432,433
 466 1149 466 1149 468 1146 c 256,434,435
 470 1143 470 1143 472 1141 c 0,436,437
 476 1139 476 1139 485 1139 c 0,438,439
 493 1139 493 1139 498 1137 c 0,440,441
 505 1133 505 1133 515 1117 c 0,442,443
 526 1099 526 1099 530 1095 c 0,444,445
 532 1093 532 1093 537 1092 c 1,446,447
 539 1085 539 1085 565 1060 c 0,448,449
 567 1058 567 1058 569 1051 c 0,450,451
 570 1045 570 1045 572 1043 c 0,452,453
 575 1041 575 1041 582 1041 c 0,454,455
 589 1040 589 1040 591 1039 c 0,456,457
 592 1037 592 1037 595 1034 c 0,458,459
 597 1030 597 1030 598 1029 c 0,460,461
 603 1026 603 1026 616 1020 c 0,462,463
 628 1015 628 1015 633 1011 c 1,464,465
 632 1013 632 1013 636 1001 c 0,466,467
 638 999 638 999 652 997 c 0,468,469
 665 996 665 996 671 992 c 0,470,471
 672 991 672 991 674 986 c 256,472,473
 676 981 676 981 678 980 c 0,474,475
 681 978 681 978 689 974 c 0,476,477
 697 971 697 971 701 968 c 2,478,-1
 717 968 l 2,479,480
 718 968 718 968 675 1004 c 0,481,482
 672 1006 672 1006 668 1014 c 256,483,484
 664 1022 664 1022 661 1025 c 0,485,486
 659 1026 659 1026 653 1029 c 256,487,488
 647 1032 647 1032 645 1034 c 2,489,-1
 645 1041 l 2,490,491
 642 1044 642 1044 633 1053 c 256,492,493
 624 1062 624 1062 621 1067 c 0,494,495
 619 1071 619 1071 617 1081 c 0,496,497
 616 1090 616 1090 612 1095 c 0,498,499
 609 1099 609 1099 601 1101 c 0,500,501
 592 1104 592 1104 589 1106 c 0,502,503
 579 1113 579 1113 567 1131 c 0,504,505
 554 1152 554 1152 547 1158 c 1,506,-1
 547 1162 l 1,507,-1
 549 1162 l 1,508,509
 546 1169 546 1169 593 1130 c 1,510,511
 602 1130 602 1130 610 1134 c 1,512,513
 607 1145 607 1145 594 1153 c 0,514,515
 568 1168 568 1168 572 1165 c 1,516,517
 570 1166 570 1166 570 1170 c 0,518,519
 569 1175 569 1175 568 1176 c 0,520,521
 565 1179 565 1179 557 1182 c 0,522,523
 549 1186 549 1186 547 1188 c 2,524,-1
 537 1204 l 2,525,526
 533 1209 533 1209 523 1215 c 0,527,528
 513 1222 513 1222 509 1225 c 0,529,530
 481 1254 481 1254 484 1254 c 1,531,532
 483 1262 483 1262 484 1263 c 0,533,534
 484 1264 484 1264 502 1289 c 0,535,536
 504 1288 504 1288 507 1287 c 0,537,538
 510 1287 510 1287 512 1286 c 0,539,540
 513 1287 513 1287 514 1291 c 256,541,542
 515 1295 515 1295 516 1296 c 0,543,544
 520 1298 520 1298 527 1299 c 0,545,546
 534 1301 534 1301 537 1303 c 0,547,548
 541 1305 541 1305 557 1318 c 0,549,550
 570 1329 570 1329 579 1333 c 1,551,-1
 579 1342 l 1,552,553
 598 1346 598 1346 657 1396 c 0,554,555
 659 1398 659 1398 694 1417 c 0,556,557
 699 1420 699 1420 706 1429 c 0,558,559
 714 1440 714 1440 717 1443 c 2,560,-1
 724 1443 l 2,561,562
 727 1444 727 1444 729 1448 c 0,563,564
 732 1453 732 1453 734 1455 c 0,565,566
 736 1456 736 1456 742 1457 c 0,567,568
 748 1457 748 1457 750 1459 c 0,569,570
 751 1460 751 1460 752 1464 c 256,571,572
 753 1468 753 1468 755 1469 c 0,573,574
 759 1472 759 1472 770 1476 c 0,575,576
 780 1479 780 1479 785 1483 c 0,577,578
 787 1484 787 1484 791 1489 c 0,579,580
 794 1495 794 1495 797 1497 c 0,581,582
 796 1502 796 1502 795 1506 c 0,583,584
 793 1511 793 1511 792 1515 c 1,585,99
 785 1515 785 1515 783 1513 c 2,100,-1
EndSplineSet
EndChar

StartChar: plus
Encoding: 43 43 14
Width: 1014
GlyphClass: 1
Flags: W
LayerCount: 2
Fore
SplineSet
437 647 m 1,0,-1
 87 647 l 1,1,-1
 87 787 l 1,2,-1
 437 787 l 1,3,-1
 437 1156 l 1,4,-1
 438 1157 l 1,5,-1
 577 1157 l 1,6,-1
 577 787 l 1,7,-1
 926 787 l 1,8,-1
 927 786 l 1,9,-1
 927 647 l 1,10,-1
 577 647 l 1,11,-1
 577 277 l 1,12,-1
 437 277 l 1,13,-1
 437 647 l 1,0,-1
EndSplineSet
EndChar

StartChar: comma
Encoding: 44 44 15
Width: 485
GlyphClass: 1
Flags: W
LayerCount: 2
Fore
SplineSet
304 -125 m 0,1,2
 302 -123 302 -123 301 -122 c 2,3,4
 301 -122 301 -122 306 -103 c 1,5,6
 309 -105 309 -105 312 -106 c 0,7,8
 311 -116 311 -116 309 -122 c 0,9,0
 307 -123 307 -123 304 -125 c 0,1,2
250 83 m 1,11,12
 241 81 241 81 237 78 c 0,13,14
 222 81 222 81 215 98 c 0,15,16
 210 113 210 113 213 131 c 1,17,-1
 221 131 l 1,18,19
 219 135 219 135 218 137 c 0,20,21
 218 140 218 140 226 169 c 1,22,23
 238 166 238 166 242 153 c 0,24,25
 245 150 245 150 244 145 c 0,26,27
 244 138 244 138 239 134 c 1,28,29
 240 125 240 125 242 118 c 1,30,31
 248 118 248 118 252 120 c 256,32,33
 256 122 256 122 263 123 c 1,34,35
 263 116 263 116 261 113 c 1,36,10
 261 117 261 117 250 83 c 1,11,12
186 30 m 2,37,38
 184 29 184 29 183 33 c 1,39,-1
 181 33 l 1,40,-1
 183 38 l 1,41,-1
 186 38 l 1,42,-1
 186 30 l 2,37,38
173 54 m 1,44,45
 178 48 178 48 178 49 c 2,46,43
 178 49 178 49 173 54 c 1,44,45
170 62 m 1,47,-1
 167 62 l 2,48,49
 166 65 166 65 165 70 c 1,50,-1
 170 70 l 1,51,-1
 170 62 l 1,47,-1
162 83 m 1,52,-1
 167 83 l 1,53,-1
 167 75 l 1,54,-1
 165 75 l 1,55,-1
 162 83 l 1,52,-1
352 137 m 0,57,58
 355 159 355 159 351 194 c 0,59,60
 347 237 347 237 336 252 c 1,61,62
 329 269 329 269 306 276 c 0,63,64
 296 281 296 281 275 278 c 256,65,66
 254 275 254 275 242 268 c 0,67,68
 241 267 241 267 237 262 c 0,69,70
 234 258 234 258 231 257 c 0,71,72
 227 255 227 255 219 258 c 0,73,74
 212 260 212 260 207 257 c 0,75,76
 177 257 177 257 171 248 c 0,77,78
 170 246 170 246 166 236 c 0,79,80
 163 227 163 227 157 220 c 0,81,82
 155 217 155 217 142 207 c 0,83,84
 132 198 132 198 130 193 c 0,85,86
 130 191 130 191 131 188 c 0,87,88
 132 184 132 184 133 182 c 0,89,90
 132 180 132 180 127 177 c 0,91,92
 123 173 123 173 122 172 c 0,93,94
 121 168 121 168 117 133 c 256,95,96
 113 98 113 98 114 94 c 0,97,98
 116 88 116 88 122 76 c 0,99,100
 129 64 129 64 130 59 c 0,101,102
 133 51 133 51 130 37 c 256,103,104
 127 23 127 23 130 17 c 0,105,106
 136 3 136 3 135 6 c 1,107,108
 143 4 143 4 151 -2 c 0,109,110
 160 -8 160 -8 165 -10 c 0,111,112
 177 -7 177 -7 224 -15 c 0,113,114
 262 -22 262 -22 269 -10 c 1,115,116
 278 -11 278 -11 278 -11 c 2,117,118
 280 -12 280 -12 282 -18 c 0,119,120
 282 -80 282 -80 277 -93 c 1,121,122
 277 -93 277 -93 273 -97 c 0,123,124
 269 -100 269 -100 269 -101 c 0,125,126
 268 -104 268 -104 270 -112 c 0,127,128
 272 -119 272 -119 271 -120 c 0,129,130
 263 -125 263 -125 263 -125 c 1,131,-1
 263 -149 l 2,132,133
 263 -150 263 -150 258 -154 c 0,134,135
 253 -157 253 -157 253 -160 c 0,136,137
 255 -174 255 -174 255 -176 c 0,138,139
 255 -177 255 -177 248 -191 c 0,140,141
 243 -202 243 -202 242 -210 c 1,142,143
 245 -210 245 -210 250 -209 c 0,144,145
 256 -208 256 -208 258 -208 c 0,146,147
 289 -143 289 -143 298 -130 c 1,148,-1
 298 -128 l 1,149,-1
 304 -128 l 1,150,151
 302 -154 302 -154 285 -189 c 0,152,153
 269 -224 269 -224 253 -237 c 1,154,155
 255 -242 255 -242 255 -245 c 1,156,157
 265 -243 265 -243 266 -240 c 0,158,159
 272 -228 272 -228 271 -229 c 1,160,161
 286 -222 286 -222 288 -221 c 0,162,163
 295 -211 295 -211 302 -193 c 0,164,165
 311 -169 311 -169 314 -162 c 0,166,167
 378 -39 378 -39 346 81 c 0,168,56
 345 87 345 87 352 137 c 0,57,58
EndSplineSet
EndChar

StartChar: hyphen
Encoding: 45 45 16
AltUni2: 0000ad.ffffffff.0 0000ad.ffffffff.0
Width: 670
GlyphClass: 1
Flags: W
LayerCount: 2
Fore
SplineSet
224 450 m 0,1,2
 231 452 231 452 232 453 c 2,3,-1
 240 453 l 1,4,5
 237 446 237 446 216 448 c 1,6,0
 218 449 218 449 224 450 c 0,1,2
214 450 m 1,7,8
 210 448 210 448 206 450 c 1,9,-1
 214 450 l 1,7,8
446 450 m 1,10,11
 442 448 442 448 438 450 c 1,12,-1
 446 450 l 1,10,11
470 434 m 1,13,14
 466 432 466 432 462 434 c 1,15,-1
 470 434 l 1,13,14
475 453 m 1,16,-1
 475 450 l 2,17,18
 474 449 474 449 473 448 c 0,19,20
 465 449 465 449 462 453 c 1,21,-1
 475 453 l 1,16,-1
483 456 m 1,22,-1
 491 456 l 1,23,-1
 491 453 l 2,24,25
 490 452 490 452 487 452 c 0,26,27
 485 451 485 451 483 450 c 1,28,-1
 483 456 l 1,22,-1
393 512 m 1,30,31
 396 510 396 510 398 509 c 1,32,29
 394 510 394 510 393 512 c 1,30,31
477 470 m 0,34,35
 495 469 495 469 502 472 c 0,36,37
 557 488 557 488 572 488 c 1,38,-1
 572 493 l 1,39,40
 559 498 559 498 540 498 c 0,41,42
 516 497 516 497 510 498 c 0,43,44
 493 501 493 501 406 509 c 1,45,46
 415 515 415 515 440 514 c 0,47,48
 470 513 470 513 475 514 c 0,49,50
 478 515 478 515 493 519 c 0,51,52
 504 522 504 522 510 522 c 1,53,54
 506 525 506 525 467 530 c 1,55,56
 476 535 476 535 502 536 c 0,57,58
 526 537 526 537 534 544 c 1,59,-1
 537 544 l 1,60,61
 530 549 530 549 522 548 c 0,62,63
 513 548 513 548 507 541 c 1,64,65
 500 543 500 543 497 549 c 1,66,67
 442 539 442 539 321 543 c 0,68,69
 190 546 190 546 142 541 c 1,70,71
 139 529 139 529 140 518 c 0,72,73
 142 503 142 503 142 496 c 1,74,75
 129 496 129 496 123 491 c 0,76,77
 121 488 121 488 115 477 c 1,78,79
 126 467 126 467 142 461 c 1,80,-1
 142 458 l 1,81,82
 130 456 130 456 118 458 c 1,83,84
 101 433 101 433 99 432 c 0,85,86
 99 421 99 421 102 418 c 1,87,88
 99 419 99 419 142 421 c 1,89,90
 143 415 143 415 144 413 c 2,91,-1
 144 407 l 1,92,93
 197 404 197 404 235 413 c 0,94,95
 248 416 248 416 268 415 c 0,96,97
 287 413 287 413 297 416 c 2,98,-1
 374 416 l 2,99,100
 385 418 385 418 421 417 c 0,101,102
 458 415 458 415 475 418 c 0,103,104
 498 422 498 422 558 421 c 1,105,-1
 558 424 l 1,106,107
 500 437 500 437 483 426 c 1,108,109
 482 429 482 429 481 434 c 1,110,111
 529 436 529 436 545 448 c 1,112,-1
 548 448 l 1,113,114
 545 453 545 453 537 456 c 1,115,116
 538 455 538 455 521 448 c 1,117,118
 503 453 503 453 497 453 c 1,119,-1
 497 456 l 1,120,-1
 499 456 l 2,121,122
 501 458 501 458 505 460 c 256,123,124
 509 462 509 462 510 464 c 0,125,126
 512 465 512 465 513 466 c 1,127,128
 511 467 511 467 510 469 c 0,129,130
 462 468 462 468 393 458 c 0,131,132
 386 458 386 458 373 457 c 0,133,134
 359 456 359 456 353 456 c 1,135,-1
 353 450 l 1,136,137
 349 449 349 449 345 453 c 0,138,139
 342 456 342 456 337 456 c 0,140,141
 329 454 329 454 294 453 c 0,142,143
 265 451 265 451 251 448 c 1,144,-1
 251 450 l 2,145,146
 250 451 250 451 249 453 c 1,147,148
 243 450 243 450 339 469 c 0,149,150
 360 473 360 473 397 468 c 0,151,152
 433 464 433 464 454 469 c 0,153,33
 459 470 459 470 477 470 c 0,34,35
EndSplineSet
EndChar

StartChar: period
Encoding: 46 46 17
Width: 468
GlyphClass: 1
Flags: W
LayerCount: 2
Fore
SplineSet
325 95 m 1,0,1
 324 74 324 74 313 49 c 0,2,3
 301 23 301 23 301 7 c 1,4,5
 297 8 297 8 295 10 c 1,6,7
 299 12 299 12 287 -6 c 0,8,9
 284 -12 284 -12 266 -22 c 1,10,-1
 266 -30 l 1,11,12
 268 -30 268 -30 226 -41 c 0,13,14
 214 -44 214 -44 197 -40 c 0,15,16
 174 -33 174 -33 170 -33 c 0,17,18
 148 14 148 14 138 26 c 1,19,-1
 138 31 l 1,20,21
 148 28 148 28 164 23 c 0,22,23
 168 18 168 18 170 15 c 2,24,-1
 191 15 l 1,25,26
 234 11 234 11 269 52 c 0,27,28
 271 55 271 55 277 59 c 0,29,30
 282 64 282 64 285 66 c 0,31,32
 287 70 287 70 287 78 c 0,33,34
 288 85 288 85 290 90 c 0,35,36
 294 91 294 91 298 92 c 0,37,38
 300 95 300 95 297 100 c 0,39,40
 295 105 295 105 295 106 c 0,41,42
 317 152 317 152 317 154 c 1,43,-1
 319 154 l 1,44,45
 329 133 329 133 338 130 c 1,46,47
 331 117 331 117 333 95 c 1,48,-1
 325 95 l 1,0,1
127 127 m 0,50,51
 127 116 127 116 124 111 c 0,52,53
 123 107 123 107 122 106 c 1,54,55
 114 127 114 127 121 152 c 0,56,57
 122 157 122 157 128 173 c 0,58,59
 133 187 133 187 135 197 c 1,60,61
 127 202 127 202 119 199 c 1,62,63
 122 215 122 215 124 218 c 2,64,-1
 124 223 l 1,65,66
 129 221 129 221 130 213 c 1,67,68
 136 210 136 210 138 210 c 0,69,70
 143 215 143 215 156 224 c 0,71,72
 168 232 168 232 172 237 c 1,73,74
 180 234 180 234 183 231 c 1,75,76
 158 217 158 217 151 197 c 0,77,78
 151 194 151 194 150 186 c 0,79,80
 149 179 149 179 148 175 c 1,81,82
 152 177 152 177 138 170 c 0,83,84
 137 169 137 169 130 146 c 0,85,49
 128 139 128 139 127 127 c 0,50,51
127 84 m 1,86,-1
 124 84 l 1,87,-1
 124 103 l 1,88,-1
 130 103 l 1,89,90
 127 91 127 91 127 90 c 2,91,-1
 127 84 l 1,86,-1
111 183 m 1,93,94
 110 185 110 185 108 186 c 1,95,96
 109 188 109 188 114 197 c 1,97,98
 116 193 116 193 114 189 c 256,99,92
 112 185 112 185 111 183 c 1,93,94
223 213 m 2,101,-1
 242 213 l 1,102,103
 238 205 238 205 222 197 c 0,104,105
 204 188 204 188 199 183 c 0,106,107
 179 162 179 162 172 140 c 0,108,109
 171 136 171 136 172 127 c 0,110,111
 172 120 172 120 170 116 c 2,112,-1
 170 111 l 1,113,-1
 167 111 l 1,114,115
 166 167 166 167 167 164 c 1,116,117
 170 179 170 179 187 193 c 0,118,119
 206 208 206 208 210 215 c 1,120,100
 220 215 220 215 223 213 c 2,101,-1
263 194 m 1,121,-1
 263 189 l 1,122,123
 261 191 261 191 263 167 c 0,124,125
 265 140 265 140 251 119 c 0,126,127
 246 113 246 113 236 102 c 0,128,129
 225 90 225 90 221 84 c 1,130,131
 215 85 215 85 205 92 c 1,132,133
 204 140 204 140 217 157 c 0,134,135
 221 162 221 162 232 173 c 0,136,137
 245 184 245 184 253 194 c 1,138,-1
 263 194 l 1,121,-1
319 162 m 1,139,140
 318 159 318 159 317 159 c 1,141,142
 320 158 320 158 314 162 c 1,143,-1
 319 162 l 1,139,140
359 127 m 0,145,146
 360 132 360 132 359 135 c 256,147,148
 358 138 358 138 353 146 c 0,149,150
 347 154 347 154 346 156 c 2,151,-1
 346 170 l 1,152,-1
 341 170 l 1,153,154
 335 176 335 176 322 194 c 0,155,156
 287 243 287 243 254 260 c 0,157,158
 209 284 209 284 148 263 c 0,159,160
 138 260 138 260 123 247 c 0,161,162
 106 233 106 233 98 229 c 1,163,164
 73 131 73 131 108 42 c 1,165,166
 104 26 104 26 114 4 c 0,167,168
 116 0 116 0 126 -8 c 0,169,170
 137 -16 137 -16 138 -17 c 0,171,172
 138 -20 138 -20 140 -36 c 1,173,174
 145 -43 145 -43 170 -53 c 0,175,176
 194 -62 194 -62 196 -68 c 1,177,178
 201 -65 201 -65 233 -61 c 0,179,180
 263 -58 263 -58 266 -54 c 0,181,182
 267 -51 267 -51 269 -41 c 1,183,184
 271 -42 271 -42 274 -42 c 0,185,186
 278 -43 278 -43 279 -44 c 0,187,188
 284 -42 284 -42 306 -14 c 0,189,190
 308 -13 308 -13 314 -12 c 1,191,192
 316 -2 316 -2 323 9 c 0,193,194
 333 24 333 24 335 28 c 0,195,196
 338 50 338 50 338 52 c 0,197,198
 338 53 338 53 342 56 c 256,199,200
 346 59 346 59 346 60 c 0,201,202
 349 69 349 69 351 85 c 0,203,204
 352 100 352 100 357 108 c 1,205,-1
 362 108 l 1,206,207
 361 106 361 106 357 122 c 1,208,144
 357 122 357 122 359 127 c 0,145,146
EndSplineSet
EndChar

StartChar: slash
Encoding: 47 47 18
Width: 744
GlyphClass: 1
Flags: W
LayerCount: 2
Fore
SplineSet
606 1180 m 1,0,-1
 603 1186 l 2,1,2
 604 1188 604 1188 599 1180 c 1,3,-1
 606 1180 l 1,0,-1
622 1351 m 1,5,6
 621 1364 621 1364 631 1393 c 1,7,-1
 644 1393 l 1,8,9
 641 1370 641 1370 631 1361 c 0,10,4
 630 1359 630 1359 622 1351 c 1,5,6
593 1403 m 1,11,-1
 593 1412 l 1,12,13
 597 1409 597 1409 599 1403 c 1,14,-1
 593 1403 l 1,11,-1
562 1319 m 1,16,17
 568 1339 568 1339 577 1367 c 1,18,19
 581 1362 581 1362 568 1322 c 1,20,15
 572 1324 572 1324 562 1319 c 1,16,17
546 1270 m 1,21,22
 543 1280 543 1280 543 1283 c 1,23,24
 542 1282 542 1282 552 1296 c 1,25,26
 550 1281 550 1281 549 1270 c 1,27,-1
 546 1270 l 1,21,22
535 1254 m 256,29,30
 536 1256 536 1256 536 1257 c 1,31,-1
 540 1257 l 1,32,33
 538 1256 538 1256 536 1254 c 256,34,35
 534 1252 534 1252 533 1251 c 1,36,28
 534 1252 534 1252 535 1254 c 256,29,30
423 1083 m 1,38,39
 434 1162 434 1162 514 1351 c 1,40,41
 544 1317 544 1317 429 1086 c 0,42,37
 427 1085 427 1085 423 1083 c 1,38,39
489 1118 m 1,43,44
 485 1127 485 1127 486 1125 c 2,45,-1
 492 1125 l 1,46,-1
 489 1118 l 1,43,44
678 1464 m 1,48,49
 670 1446 670 1446 653 1409 c 1,50,51
 647 1406 647 1406 644 1403 c 2,52,-1
 640 1403 l 1,53,54
 646 1429 646 1429 650 1451 c 0,55,56
 647 1453 647 1453 642 1457 c 0,57,58
 637 1462 637 1462 634 1464 c 2,59,-1
 618 1464 l 1,60,61
 606 1438 606 1438 609 1444 c 1,62,-1
 606 1438 l 1,63,64
 595 1464 595 1464 584 1470 c 0,65,66
 581 1471 581 1471 576 1472 c 256,67,68
 571 1473 571 1473 568 1474 c 0,69,70
 562 1461 562 1461 541 1419 c 0,71,72
 524 1385 524 1385 514 1364 c 1,73,74
 520 1360 520 1360 502 1373 c 1,75,76
 459 1340 459 1340 426 1192 c 0,77,78
 375 964 375 964 379 976 c 1,79,80
 296 718 296 718 193 524 c 0,81,82
 181 502 181 502 166 442 c 0,83,84
 150 379 150 379 155 366 c 1,85,86
 124 328 124 328 104 247 c 0,87,88
 79 145 79 145 66 117 c 0,89,90
 -51 -142 -51 -142 -63 -209 c 1,91,-1
 -63 -213 l 1,92,93
 -58 -215 -58 -215 -49 -219 c 0,94,95
 -39 -223 -39 -223 -35 -226 c 1,96,97
 -6 -160 -6 -160 63 14 c 0,98,99
 124 166 124 166 164 253 c 0,100,101
 179 284 179 284 216 390 c 0,102,103
 247 475 247 475 275 521 c 1,104,105
 272 528 272 528 281 537 c 1,106,107
 285 535 285 535 287 534 c 0,108,109
 278 509 278 509 254 441 c 0,110,111
 233 384 233 384 221 349 c 0,112,113
 217 334 217 334 200 277 c 0,114,115
 188 232 188 232 180 204 c 1,116,117
 119 68 119 68 120 43 c 1,118,119
 88 28 88 28 84 -6 c 0,120,121
 79 -47 79 -47 60 -64 c 1,122,123
 62 -68 62 -68 66 -80 c 1,124,125
 79 -85 79 -85 92 -77 c 1,126,127
 76 -88 76 -88 218 253 c 0,128,129
 237 299 237 299 270 407 c 0,130,131
 303 514 303 514 322 559 c 0,132,133
 334 584 334 584 394 708 c 0,134,135
 400 725 400 725 409 753 c 0,136,137
 420 789 420 789 423 798 c 0,138,139
 445 838 445 838 475 918 c 0,140,141
 508 1004 508 1004 527 1041 c 0,142,143
 594 1173 594 1173 596 1186 c 0,144,145
 600 1187 600 1187 603 1190 c 0,146,147
 604 1191 604 1191 606 1186 c 1,148,149
 615 1200 615 1200 657 1298 c 0,150,151
 694 1381 694 1381 722 1409 c 1,152,153
 718 1426 718 1426 702 1442 c 0,154,155
 686 1457 686 1457 685 1461 c 2,156,47
 685 1461 685 1461 678 1464 c 1,48,49
650 1477 m 1,157,158
 646 1471 646 1471 649 1471 c 2,159,-1
 653 1471 l 2,160,161
 657 1471 657 1471 659 1470 c 1,162,-1
 650 1477 l 1,157,158
681 1486 m 1,163,-1
 672 1486 l 1,164,165
 676 1477 676 1477 688 1474 c 1,166,-1
 681 1486 l 1,163,-1
656 1480 m 1,168,169
 662 1482 662 1482 666 1483 c 1,170,171
 663 1487 663 1487 659 1490 c 1,172,167
 658 1486 658 1486 656 1480 c 1,168,169
EndSplineSet
EndChar

StartChar: zero
Encoding: 48 48 19
Width: 1021
GlyphClass: 1
Flags: W
LayerCount: 2
Fore
SplineSet
838 1091 m 1,0,1
 843 1077 843 1077 845 1069 c 1,2,3
 834 1077 834 1077 833 1091 c 1,4,-1
 838 1091 l 1,0,1
838 1032 m 1,5,-1
 835 1032 l 1,6,-1
 835 1029 l 1,7,-1
 830 1029 l 1,8,-1
 830 1042 l 1,9,-1
 838 1035 l 1,10,-1
 838 1032 l 1,5,-1
860 889 m 1,12,13
 860 872 860 872 857 867 c 2,14,-1
 857 863 l 1,15,16
 851 872 851 872 851 897 c 1,17,11
 852 897 852 897 860 889 c 1,12,13
867 995 m 1,18,19
 867 978 867 978 870 973 c 2,20,-1
 870 941 l 1,21,-1
 867 941 l 1,22,23
 854 970 854 970 851 973 c 0,24,25
 852 981 852 981 860 995 c 1,26,-1
 867 995 l 1,18,19
789 220 m 0,28,29
 782 198 782 198 783 189 c 0,30,31
 784 167 784 167 786 170 c 1,32,33
 784 170 784 170 781 168 c 0,34,35
 778 168 778 168 776 167 c 1,36,37
 777 169 777 169 770 139 c 1,38,39
 745 86 745 86 745 89 c 0,40,41
 744 90 744 90 736 92 c 1,42,43
 731 77 731 77 720 64 c 1,44,-1
 720 61 l 1,45,-1
 714 61 l 1,46,47
 717 79 717 79 773 192 c 0,48,49
 783 211 783 211 796 255 c 0,50,51
 809 296 809 296 817 311 c 1,52,53
 817 311 817 311 804 261 c 1,54,27
 802 265 802 265 789 220 c 0,28,29
249 976 m 2,56,-1
 246 976 l 1,57,58
 246 977 246 977 249 985 c 1,59,60
 253 983 253 983 254 982 c 1,61,55
 251 979 251 979 249 976 c 2,56,-1
271 1010 m 1,62,-1
 264 1010 l 1,63,64
 265 1017 265 1017 267 1020 c 0,65,66
 269 1025 269 1025 271 1029 c 1,67,68
 272 1025 272 1025 271 1023 c 2,69,-1
 271 1010 l 1,62,-1
276 1042 m 1,70,-1
 276 1032 l 1,71,72
 272 1034 272 1034 271 1042 c 1,73,-1
 276 1042 l 1,70,-1
690 185 m 0,75,76
 691 181 691 181 692 180 c 0,77,78
 674 126 674 126 617 67 c 1,79,80
 613 70 613 70 611 67 c 0,81,82
 605 62 605 62 527 20 c 1,83,84
 510 24 510 24 502 36 c 1,85,86
 491 34 491 34 486 30 c 0,87,88
 485 29 485 29 489 2 c 1,89,90
 506 -1 506 -1 530 -5 c 1,91,-1
 530 -8 l 1,92,93
 520 -14 520 -14 517 -23 c 0,94,95
 514 -23 514 -23 464 -20 c 1,96,-1
 464 -30 l 1,97,98
 468 -31 468 -31 475 -34 c 256,99,100
 482 -37 482 -37 486 -39 c 1,101,102
 484 -51 484 -51 470 -54 c 1,103,-1
 470 -57 l 2,104,105
 468 -58 468 -58 464 -54 c 1,106,-1
 451 -54 l 1,107,108
 454 -47 454 -47 455 -45 c 1,109,110
 416 -27 416 -27 305 70 c 1,111,-1
 305 86 l 1,112,113
 309 87 309 87 311 89 c 1,114,115
 313 87 313 87 315 81 c 0,116,117
 318 75 318 75 320 74 c 0,118,119
 325 70 325 70 338 65 c 0,120,121
 350 60 350 60 355 55 c 1,122,-1
 358 55 l 1,123,124
 357 55 357 55 336 86 c 1,125,-1
 327 86 l 1,126,127
 327 87 327 87 319 101 c 0,128,129
 316 109 316 109 320 117 c 1,130,-1
 320 121 l 1,131,132
 306 120 306 120 301 117 c 1,133,134
 293 120 293 120 282 131 c 0,135,136
 271 143 271 143 261 145 c 1,137,138
 260 151 260 151 256 164 c 0,139,140
 251 177 251 177 252 180 c 0,141,142
 253 181 253 181 254 186 c 0,143,144
 257 190 257 190 258 192 c 0,145,146
 257 194 257 194 252 195 c 0,147,148
 246 198 246 198 246 198 c 1,149,150
 245 203 245 203 244 212 c 0,151,152
 243 222 243 222 242 227 c 0,153,154
 242 228 242 228 236 234 c 0,155,156
 231 240 231 240 230 242 c 0,157,158
 234 259 234 259 233 264 c 0,159,160
 212 339 212 339 211 336 c 1,161,162
 213 344 213 344 221 365 c 0,163,164
 231 387 231 387 233 395 c 1,165,166
 229 398 229 398 227 402 c 1,167,168
 188 393 188 393 189 330 c 1,169,170
 181 332 181 332 177 336 c 0,171,172
 166 349 166 349 161 393 c 0,173,174
 154 439 154 439 148 448 c 1,175,176
 149 460 149 460 149 459 c 1,177,178
 149 460 149 460 155 461 c 1,179,180
 154 581 154 581 161 598 c 0,181,182
 163 603 163 603 172 616 c 0,183,184
 183 632 183 632 187 639 c 0,185,186
 205 670 205 670 195 685 c 1,187,-1
 195 692 l 1,188,189
 168 682 168 682 173 685 c 1,190,-1
 170 685 l 1,191,192
 187 772 187 772 199 823 c 1,193,-1
 211 823 l 1,194,195
 213 872 213 872 211 876 c 2,196,-1
 211 879 l 1,197,-1
 208 879 l 1,198,199
 204 872 204 872 202 870 c 2,200,-1
 202 867 l 1,201,-1
 195 870 l 1,202,203
 182 835 182 835 173 832 c 1,204,-1
 173 829 l 1,205,-1
 177 829 l 2,206,207
 178 829 178 829 189 829 c 1,208,209
 188 816 188 816 186 801 c 1,210,-1
 173 801 l 1,211,212
 174 810 174 810 183 820 c 1,213,214
 181 821 181 821 173 826 c 1,215,216
 169 815 169 815 167 810 c 0,217,218
 165 806 165 806 173 789 c 0,219,220
 178 774 178 774 167 764 c 1,221,222
 170 761 170 761 177 761 c 1,223,224
 175 757 175 757 169 727 c 0,225,226
 165 706 165 706 158 698 c 1,227,-1
 158 695 l 1,228,-1
 155 695 l 1,229,-1
 155 698 l 2,230,231
 156 701 156 701 161 704 c 1,232,-1
 161 723 l 1,233,-1
 158 723 l 1,234,235
 156 718 156 718 149 706 c 0,236,237
 144 697 144 697 143 692 c 0,238,239
 141 687 141 687 144 680 c 0,240,241
 146 674 146 674 145 673 c 0,242,243
 144 646 144 646 136 633 c 1,244,-1
 136 629 l 1,245,-1
 133 629 l 1,246,247
 131 653 131 653 143 732 c 0,248,249
 144 737 144 737 140 752 c 0,250,251
 138 765 138 765 139 770 c 0,252,253
 144 786 144 786 159 846 c 0,254,255
 172 895 172 895 180 919 c 0,256,257
 195 961 195 961 208 988 c 0,258,259
 208 991 208 991 209 998 c 0,260,261
 211 1004 211 1004 211 1007 c 0,262,263
 213 1008 213 1008 217 1008 c 0,264,265
 221 1009 221 1009 224 1010 c 0,266,267
 229 1016 229 1016 233 1028 c 0,268,269
 239 1042 239 1042 242 1047 c 0,270,271
 246 1053 246 1053 260 1071 c 0,272,273
 271 1085 271 1085 276 1094 c 1,274,275
 284 1094 284 1094 288 1090 c 0,276,277
 292 1089 292 1089 296 1089 c 0,278,279
 297 1084 297 1084 298 1082 c 2,280,-1
 298 1079 l 1,281,282
 294 1081 294 1081 293 1082 c 0,283,284
 271 1078 271 1078 267 1059 c 0,285,286
 262 1028 262 1028 261 1025 c 0,287,288
 259 1022 259 1022 250 1017 c 0,289,290
 241 1011 241 1011 239 1007 c 0,291,292
 235 1000 235 1000 231 976 c 256,293,294
 227 952 227 952 230 948 c 0,295,296
 229 947 229 947 208 936 c 1,297,298
 209 930 209 930 214 929 c 1,299,300
 213 920 213 920 205 910 c 0,301,302
 204 910 204 910 205 897 c 1,303,-1
 195 897 l 1,304,305
 208 885 208 885 227 882 c 1,306,307
 228 887 228 887 230 896 c 0,308,309
 233 905 233 905 233 908 c 0,310,311
 235 920 235 920 227 926 c 1,312,313
 237 935 237 935 246 953 c 0,314,315
 257 971 257 971 264 979 c 1,316,-1
 264 995 l 1,317,318
 260 992 260 992 258 988 c 1,319,-1
 254 988 l 1,320,321
 254 987 254 987 267 1007 c 1,322,-1
 276 1007 l 1,323,324
 280 1031 280 1031 289 1042 c 1,325,-1
 289 1057 l 1,326,327
 285 1055 285 1055 283 1051 c 1,328,-1
 280 1051 l 1,329,330
 281 1058 281 1058 286 1060 c 1,331,-1
 286 1067 l 1,332,333
 288 1064 288 1064 289 1057 c 1,334,335
 307 1064 307 1064 314 1089 c 0,336,337
 318 1090 318 1090 320 1091 c 0,338,339
 336 1089 336 1089 352 1066 c 0,340,341
 368 1040 368 1040 380 1035 c 0,342,343
 390 1031 390 1031 455 1069 c 1,344,-1
 455 1079 l 1,345,-1
 467 1079 l 1,346,347
 475 1109 475 1109 549 1153 c 1,348,-1
 564 1153 l 1,349,350
 579 1162 579 1162 589 1170 c 1,351,352
 576 1170 576 1170 661 1091 c 0,353,354
 664 1089 664 1089 670 1089 c 1,355,356
 672 1068 672 1068 694 1039 c 0,357,358
 719 1008 719 1008 723 991 c 1,359,-1
 726 991 l 2,360,361
 727 992 727 992 728 995 c 0,362,363
 729 996 729 996 729 998 c 1,364,-1
 732 998 l 1,365,366
 729 1007 729 1007 719 1021 c 0,367,368
 707 1034 707 1034 704 1042 c 2,369,-1
 704 1057 l 2,370,371
 703 1059 703 1059 698 1060 c 0,372,373
 694 1062 694 1062 692 1064 c 0,374,375
 689 1066 689 1066 687 1074 c 256,376,377
 685 1082 685 1082 683 1085 c 0,378,379
 679 1086 679 1086 673 1089 c 0,380,381
 668 1094 668 1094 664 1110 c 0,382,383
 659 1126 659 1126 655 1132 c 0,384,385
 617 1183 617 1183 617 1185 c 0,386,387
 642 1189 642 1189 648 1185 c 1,388,389
 647 1186 647 1186 670 1151 c 0,390,391
 680 1143 680 1143 685 1138 c 0,392,393
 698 1120 698 1120 723 1069 c 0,394,395
 729 1058 729 1058 735 1036 c 0,396,397
 743 1009 743 1009 745 1004 c 2,398,-1
 745 976 l 2,399,400
 746 975 746 975 748 974 c 0,401,402
 750 974 750 974 751 973 c 0,403,404
 752 970 752 970 749 963 c 0,405,406
 746 957 746 957 748 951 c 0,407,408
 749 950 749 950 751 949 c 0,409,410
 753 949 753 949 754 948 c 0,411,412
 756 941 756 941 753 923 c 0,413,414
 750 906 750 906 751 901 c 0,415,416
 782 763 782 763 770 704 c 0,417,418
 770 701 770 701 773 689 c 0,419,420
 776 675 776 675 776 673 c 0,421,422
 775 650 775 650 767 623 c 1,423,424
 766 628 766 628 776 614 c 1,425,426
 767 605 767 605 771 584 c 0,427,428
 777 557 777 557 776 554 c 0,429,430
 774 542 774 542 768 520 c 0,431,432
 762 500 762 500 761 486 c 0,433,434
 760 480 760 480 762 467 c 256,435,436
 764 454 764 454 764 451 c 0,437,438
 761 445 761 445 751 426 c 1,439,440
 751 426 751 426 749 390 c 0,441,442
 748 352 748 352 745 342 c 0,443,444
 745 341 745 341 740 336 c 0,445,446
 736 330 736 330 736 330 c 2,447,448
 734 326 734 326 736 318 c 0,449,450
 739 311 739 311 739 311 c 2,451,452
 737 306 737 306 730 296 c 0,453,454
 722 285 722 285 720 283 c 0,455,456
 725 270 725 270 717 254 c 0,457,458
 715 253 715 253 707 249 c 0,459,460
 708 246 708 246 709 242 c 0,461,462
 711 238 711 238 711 236 c 0,463,464
 709 229 709 229 700 212 c 0,465,466
 691 196 691 196 689 189 c 0,467,74
 689 187 689 187 690 185 c 0,75,76
707 36 m 1,468,-1
 702 36 l 2,469,470
 701 34 701 34 707 55 c 1,471,472
 711 49 711 49 707 42 c 1,473,-1
 707 36 l 1,468,-1
617 -43 m 0,475,476
 594 -58 594 -58 592 -61 c 2,477,-1
 561 -61 l 1,478,-1
 561 -57 l 1,479,480
 569 -53 569 -53 587 -37 c 0,481,482
 602 -23 602 -23 617 -20 c 1,483,-1
 617 -11 l 1,484,485
 625 -9 625 -9 630 -5 c 1,486,-1
 636 -5 l 1,487,488
 634 -9 634 -9 633 -11 c 0,489,474
 632 -32 632 -32 617 -43 c 0,475,476
417 -49 m 1,491,492
 416 -46 416 -46 414 -39 c 1,493,494
 418 -40 418 -40 421 -42 c 2,495,-1
 424 -42 l 1,496,497
 422 -44 422 -44 421 -45 c 0,498,490
 419 -47 419 -47 417 -49 c 1,491,492
205 151 m 1,500,501
 197 156 197 156 189 170 c 1,502,499
 199 166 199 166 205 151 c 1,500,501
186 311 m 1,504,505
 187 301 187 301 193 288 c 0,506,507
 199 277 199 277 199 273 c 2,508,-1
 199 267 l 1,509,510
 186 270 186 270 173 308 c 1,511,503
 180 310 180 310 186 311 c 1,504,505
148 648 m 1,512,-1
 148 645 l 1,513,-1
 145 645 l 1,514,-1
 145 651 l 1,515,516
 150 650 150 650 152 648 c 1,517,-1
 148 648 l 1,512,-1
155 658 m 0,519,520
 153 656 153 656 152 654 c 2,521,-1
 148 654 l 1,522,523
 149 663 149 663 152 692 c 1,524,-1
 161 692 l 1,525,526
 157 672 157 672 158 670 c 0,527,518
 157 663 157 663 155 658 c 0,519,520
189 143 m 1,528,-1
 186 143 l 1,529,530
 182 148 182 148 169 160 c 0,531,532
 156 170 156 170 152 177 c 0,533,534
 149 181 149 181 148 189 c 0,535,536
 148 198 148 198 145 202 c 0,537,538
 34 394 34 394 42 564 c 1,539,-1
 52 564 l 1,540,541
 53 556 53 556 50 546 c 0,542,543
 49 535 49 535 49 532 c 0,544,545
 49 531 49 531 54 524 c 0,546,547
 58 518 58 518 58 517 c 0,548,549
 63 503 63 503 66 467 c 0,550,551
 69 436 69 436 77 420 c 0,552,553
 79 419 79 419 81 417 c 0,554,555
 84 415 84 415 86 414 c 0,556,557
 88 408 88 408 84 399 c 0,558,559
 80 389 80 389 80 386 c 0,560,561
 80 382 80 382 86 374 c 0,562,563
 92 365 92 365 92 364 c 0,564,565
 102 341 102 341 105 330 c 0,566,567
 105 329 105 329 102 317 c 1,568,569
 130 240 130 240 130 239 c 1,570,-1
 143 239 l 1,571,572
 145 221 145 221 161 190 c 0,573,574
 178 157 178 157 189 151 c 1,575,-1
 189 143 l 1,528,-1
39 616 m 1,576,-1
 37 616 l 1,577,578
 36 624 36 624 37 633 c 1,579,-1
 42 633 l 1,580,581
 37 616 37 616 39 620 c 1,582,-1
 39 616 l 1,576,-1
59 660 m 0,584,585
 61 663 61 663 61 663 c 2,586,587
 63 662 63 662 58 658 c 1,588,583
 58 659 58 659 59 660 c 0,584,585
71 851 m 0,590,591
 78 858 78 858 80 860 c 0,592,593
 64 889 64 889 89 939 c 0,594,595
 94 947 94 947 116 980 c 0,596,597
 134 1005 134 1005 139 1025 c 1,598,-1
 148 1025 l 1,599,-1
 148 1023 l 1,600,-1
 152 1023 l 1,601,602
 120 969 120 969 83 870 c 0,603,604
 79 858 79 858 76 835 c 0,605,606
 75 808 75 808 74 804 c 256,607,608
 73 800 73 800 75 796 c 0,609,610
 77 793 77 793 77 791 c 0,611,612
 75 782 75 782 61 723 c 0,613,614
 60 717 60 717 62 709 c 0,615,616
 63 701 63 701 61 698 c 2,617,-1
 61 692 l 1,618,-1
 58 692 l 1,619,620
 58 834 58 834 61 842 c 0,621,589
 63 846 63 846 71 851 c 0,590,591
117 1105 m 0,623,624
 124 1129 124 1129 130 1138 c 1,625,626
 126 1132 126 1132 214 1241 c 1,627,628
 225 1235 225 1235 230 1210 c 1,629,630
 242 1208 242 1208 276 1219 c 1,631,-1
 276 1217 l 1,632,-1
 280 1217 l 1,633,634
 259 1184 259 1184 199 1141 c 0,635,636
 195 1139 195 1139 197 1136 c 2,637,-1
 199 1132 l 1,638,639
 194 1128 194 1128 181 1123 c 0,640,641
 169 1119 169 1119 165 1113 c 0,642,643
 160 1109 160 1109 158 1089 c 1,644,-1
 148 1089 l 1,645,646
 144 1085 144 1085 140 1077 c 0,647,648
 135 1066 135 1066 133 1064 c 0,649,650
 131 1059 131 1059 120 1054 c 0,651,652
 110 1048 110 1048 108 1045 c 0,653,654
 105 1039 105 1039 98 1025 c 0,655,656
 92 1013 92 1013 86 1007 c 1,657,-1
 86 1001 l 1,658,-1
 83 1001 l 1,659,660
 84 1019 84 1019 105 1069 c 0,661,622
 107 1076 107 1076 117 1105 c 0,623,624
367 1328 m 0,663,664
 371 1327 371 1327 374 1323 c 1,665,-1
 377 1323 l 1,666,-1
 377 1320 l 1,667,-1
 374 1320 l 2,668,669
 371 1318 371 1318 361 1320 c 1,670,671
 353 1304 353 1304 332 1292 c 0,672,673
 305 1276 305 1276 298 1269 c 1,674,-1
 293 1269 l 1,675,676
 296 1284 296 1284 316 1300 c 0,677,678
 337 1318 337 1318 342 1328 c 1,679,662
 365 1328 365 1328 367 1328 c 0,663,664
370 1217 m 2,681,-1
 361 1217 l 1,682,-1
 361 1222 l 1,683,684
 365 1227 365 1227 370 1235 c 1,685,-1
 382 1235 l 1,686,687
 382 1231 382 1231 380 1227 c 0,688,689
 378 1224 378 1224 377 1219 c 1,690,680
 372 1217 372 1217 370 1217 c 2,681,-1
483 1263 m 1,692,-1
 483 1260 l 1,693,-1
 486 1260 l 1,694,-1
 486 1257 l 1,695,696
 481 1255 481 1255 470 1248 c 0,697,698
 460 1243 460 1243 455 1241 c 0,699,700
 448 1241 448 1241 436 1240 c 0,701,702
 423 1239 423 1239 417 1239 c 0,703,704
 416 1236 416 1236 414 1229 c 1,705,-1
 408 1229 l 1,706,707
 411 1239 411 1239 422 1247 c 0,708,709
 435 1258 435 1258 439 1263 c 1,710,691
 459 1257 459 1257 483 1263 c 1,692,-1
519 1329 m 0,712,713
 546 1334 546 1334 564 1328 c 0,714,715
 599 1318 599 1318 626 1298 c 1,716,717
 613 1272 613 1272 570 1286 c 0,718,719
 557 1291 557 1291 538 1301 c 0,720,721
 515 1312 515 1312 514 1313 c 0,722,723
 509 1315 509 1315 492 1316 c 0,724,725
 476 1317 476 1317 473 1320 c 1,726,727
 477 1326 477 1326 480 1328 c 0,728,711
 493 1324 493 1324 519 1329 c 0,712,713
536 1416 m 1,729,730
 537 1413 537 1413 537 1410 c 0,731,732
 537 1406 537 1406 539 1404 c 2,733,-1
 539 1401 l 1,734,735
 527 1403 527 1403 523 1407 c 1,736,-1
 520 1407 l 1,737,738
 524 1409 524 1409 536 1410 c 1,739,-1
 536 1416 l 1,729,730
552 1407 m 1,741,742
 549 1407 549 1407 558 1407 c 0,743,744
 562 1407 562 1407 561 1404 c 1,745,740
 551 1408 551 1408 552 1407 c 1,741,742
604 1375 m 1,746,-1
 608 1375 l 1,747,-1
 608 1369 l 1,748,-1
 604 1369 l 1,749,-1
 604 1375 l 1,746,-1
617 1360 m 1,751,752
 615 1361 615 1361 614 1366 c 1,753,750
 616 1364 616 1364 617 1360 c 1,751,752
633 1363 m 1,754,755
 637 1358 637 1358 642 1354 c 1,756,-1
 642 1348 l 1,757,758
 625 1347 625 1347 622 1350 c 0,759,760
 620 1354 620 1354 623 1363 c 1,761,-1
 633 1363 l 1,754,755
564 1244 m 1,762,763
 614 1218 614 1218 617 1210 c 1,764,-1
 626 1210 l 1,765,-1
 626 1200 l 1,766,767
 600 1200 600 1200 592 1200 c 1,768,769
 577 1230 577 1230 564 1241 c 1,770,-1
 564 1244 l 1,762,763
549 1244 m 1,772,773
 544 1246 544 1246 542 1247 c 1,774,771
 546 1246 546 1246 549 1244 c 1,772,773
498 1132 m 256,776,777
 497 1134 497 1134 495 1132 c 0,778,779
 459 1125 459 1125 421 1064 c 1,780,781
 404 1063 404 1063 389 1057 c 1,782,783
 387 1061 387 1061 382 1064 c 0,784,785
 376 1068 376 1068 374 1069 c 0,786,787
 331 1115 331 1115 339 1113 c 1,788,789
 339 1119 339 1119 339 1132 c 1,790,-1
 348 1132 l 1,791,792
 351 1140 351 1140 348 1145 c 1,793,794
 355 1164 355 1164 398 1192 c 0,795,796
 441 1219 441 1219 464 1219 c 1,797,-1
 464 1229 l 1,798,799
 470 1226 470 1226 473 1222 c 1,800,801
 502 1226 502 1226 510 1241 c 1,802,803
 531 1239 531 1239 549 1218 c 0,804,805
 571 1196 571 1196 583 1192 c 1,806,-1
 583 1188 l 1,807,808
 522 1166 522 1166 502 1141 c 0,809,810
 499 1138 499 1138 502 1136 c 0,811,812
 504 1135 504 1135 502 1132 c 0,813,775
 499 1130 499 1130 498 1132 c 256,776,777
695 1210 m 1,814,815
 626 1240 626 1240 611 1260 c 0,816,817
 607 1262 607 1262 604 1263 c 1,818,819
 617 1267 617 1267 623 1276 c 0,820,821
 625 1275 625 1275 637 1275 c 0,822,823
 647 1274 647 1274 651 1273 c 0,824,825
 663 1268 663 1268 675 1246 c 0,826,827
 688 1222 688 1222 695 1217 c 1,828,-1
 695 1210 l 1,814,815
726 1129 m 1,830,-1
 726 1126 l 1,831,-1
 720 1126 l 1,832,833
 716 1134 716 1134 707 1149 c 0,834,835
 699 1164 699 1164 695 1173 c 1,836,837
 700 1171 700 1171 706 1168 c 256,838,839
 712 1165 712 1165 717 1163 c 1,840,829
 717 1139 717 1139 726 1129 c 1,830,-1
800 1146 m 0,842,843
 796 1135 796 1135 795 1129 c 1,844,-1
 792 1129 l 1,845,846
 790 1134 790 1134 785 1140 c 0,847,848
 780 1145 780 1145 779 1148 c 0,849,850
 780 1151 780 1151 781 1158 c 0,851,852
 782 1166 782 1166 783 1170 c 0,853,854
 781 1174 781 1174 771 1187 c 0,855,856
 762 1200 762 1200 761 1204 c 0,857,858
 759 1209 759 1209 764 1211 c 0,859,860
 768 1214 768 1214 767 1217 c 0,861,862
 765 1221 765 1221 758 1232 c 0,863,864
 752 1243 752 1243 748 1251 c 1,865,866
 799 1218 799 1218 804 1163 c 0,867,841
 805 1156 805 1156 800 1146 c 0,842,843
936 944 m 1,869,870
 935 943 935 943 917 1047 c 0,871,872
 917 1051 917 1051 919 1057 c 0,873,874
 919 1064 919 1064 919 1067 c 0,875,876
 911 1099 911 1099 857 1179 c 1,877,878
 858 1177 858 1177 851 1197 c 1,879,880
 840 1210 840 1210 809 1239 c 0,881,882
 780 1265 780 1265 767 1282 c 0,883,884
 764 1285 764 1285 748 1302 c 0,885,886
 735 1315 735 1315 732 1320 c 0,887,888
 713 1360 713 1360 717 1357 c 1,889,890
 715 1361 715 1361 702 1361 c 256,891,892
 689 1361 689 1361 683 1366 c 0,893,894
 625 1414 625 1414 584 1430 c 0,895,896
 525 1452 525 1452 461 1429 c 0,897,898
 459 1428 459 1428 445 1426 c 0,899,900
 431 1426 431 1426 424 1422 c 0,901,902
 408 1416 408 1416 378 1392 c 256,903,904
 348 1368 348 1368 333 1363 c 1,905,-1
 333 1354 l 1,906,907
 325 1352 325 1352 323 1348 c 0,908,909
 320 1343 320 1343 317 1341 c 0,910,911
 313 1339 313 1339 305 1338 c 0,912,913
 297 1338 297 1338 293 1335 c 0,914,915
 288 1332 288 1332 277 1319 c 0,916,917
 267 1307 267 1307 261 1304 c 256,918,919
 255 1301 255 1301 245 1299 c 0,920,921
 235 1298 235 1298 230 1294 c 0,922,923
 225 1292 225 1292 219 1281 c 0,924,925
 212 1272 212 1272 208 1269 c 0,926,927
 170 1246 170 1246 167 1241 c 0,928,929
 167 1238 167 1238 166 1230 c 0,930,931
 165 1223 165 1223 165 1219 c 0,932,933
 162 1217 162 1217 148 1208 c 0,934,935
 133 1199 133 1199 130 1195 c 0,936,937
 97 1149 97 1149 55 1025 c 1,938,-1
 55 991 l 2,939,940
 53 986 53 986 49 976 c 0,941,942
 45 967 45 967 42 961 c 0,943,944
 40 951 40 951 41 934 c 0,945,946
 43 917 43 917 42 914 c 2,947,-1
 37 907 l 1,948,949
 33 878 33 878 30 842 c 0,950,951
 29 838 29 838 24 830 c 0,952,953
 18 821 18 821 17 820 c 0,954,955
 16 813 16 813 20 810 c 0,956,957
 24 805 24 805 24 801 c 0,958,959
 16 742 16 742 20 732 c 1,960,961
 7 718 7 718 5 698 c 1,962,-1
 15 698 l 1,963,964
 8 586 8 586 11 557 c 1,965,966
 11 560 11 560 17 538 c 0,967,968
 20 529 20 529 11 520 c 1,969,970
 13 513 13 513 13 513 c 1,971,-1
 15 514 l 2,972,973
 17 514 17 514 20 514 c 1,974,975
 15 491 15 491 30 464 c 1,976,977
 22 454 22 454 27 439 c 0,978,979
 28 435 28 435 30 418 c 0,980,981
 32 403 32 403 37 395 c 0,982,983
 42 391 42 391 46 389 c 1,984,985
 46 389 46 389 43 382 c 0,986,987
 41 374 41 374 42 370 c 0,988,989
 56 336 56 336 55 333 c 1,990,-1
 64 333 l 1,991,992
 65 304 65 304 77 286 c 0,993,994
 77 285 77 285 81 284 c 0,995,996
 85 281 85 281 86 279 c 0,997,998
 87 275 87 275 88 267 c 0,999,1000
 88 258 88 258 89 254 c 0,1001,1002
 92 250 92 250 100 244 c 0,1003,1004
 109 237 109 237 111 232 c 0,1005,1006
 115 226 115 226 122 207 c 0,1007,1008
 127 190 127 190 133 183 c 1,1009,-1
 133 180 l 1,1010,1011
 134 180 134 180 136 181 c 256,1012,1013
 138 182 138 182 139 183 c 1,1014,1015
 153 148 153 148 152 151 c 1,1016,1017
 156 144 156 144 170 134 c 0,1018,1019
 185 125 185 125 189 117 c 1,1020,-1
 202 117 l 1,1021,1022
 201 119 201 119 200 123 c 0,1023,1024
 199 128 199 128 199 130 c 1,1025,1026
 199 130 199 130 202 130 c 0,1027,1028
 203 130 203 130 205 133 c 2,1029,1030
 205 133 205 133 202 145 c 1,1031,-1
 205 145 l 2,1032,1033
 207 147 207 147 211 148 c 1,1034,1035
 213 144 213 144 223 134 c 0,1036,1037
 230 126 230 126 233 117 c 1,1038,-1
 242 117 l 1,1039,-1
 286 52 l 2,1040,1041
 357 -54 357 -54 436 -86 c 1,1042,1043
 429 -112 429 -112 392 -138 c 1,1044,1045
 394 -149 394 -149 402 -155 c 1,1046,1047
 401 -154 401 -154 446 -138 c 1,1048,-1
 446 -126 l 1,1049,1050
 457 -124 457 -124 472 -113 c 0,1051,1052
 488 -100 488 -100 495 -98 c 0,1053,1054
 500 -97 500 -97 513 -100 c 0,1055,1056
 527 -104 527 -104 530 -104 c 2,1057,-1
 586 -89 l 2,1058,1059
 587 -87 587 -87 589 -83 c 0,1060,1061
 591 -78 591 -78 592 -76 c 1,1062,1063
 599 -97 599 -97 595 -92 c 1,1064,1065
 596 -81 596 -81 520 -201 c 1,1066,-1
 508 -201 l 1,1067,1068
 506 -215 506 -215 508 -217 c 0,1069,1070
 524 -227 524 -227 589 -133 c 1,1071,-1
 589 -130 l 1,1072,1073
 597 -134 597 -134 595 -133 c 1,1074,1075
 602 -120 602 -120 623 -95 c 0,1076,1077
 625 -95 625 -95 628 -93 c 0,1078,1079
 631 -92 631 -92 633 -92 c 1,1080,-1
 633 -79 l 1,1081,1082
 641 -75 641 -75 645 -73 c 0,1083,1084
 651 -66 651 -66 658 -48 c 0,1085,1086
 664 -32 664 -32 670 -27 c 0,1087,1088
 675 -23 675 -23 685 -27 c 1,1089,1090
 704 18 704 18 732 45 c 1,1091,-1
 732 49 l 1,1092,1093
 735 45 735 45 736 39 c 1,1094,-1
 739 39 l 2,1095,1096
 740 41 740 41 740 44 c 0,1097,1098
 741 47 741 47 742 49 c 2,1099,-1
 745 49 l 1,1100,1101
 746 53 746 53 744 54 c 0,1102,1103
 740 54 740 54 739 55 c 1,1104,1105
 739 54 739 54 776 117 c 0,1106,1107
 777 119 777 119 778 125 c 0,1108,1109
 779 130 779 130 779 133 c 0,1110,1111
 781 135 781 135 787 139 c 0,1112,1113
 793 142 793 142 795 145 c 0,1114,1115
 797 151 797 151 804 177 c 0,1116,1117
 804 180 804 180 803 189 c 0,1118,1119
 802 197 802 197 801 202 c 1,1120,1121
 803 202 803 202 806 203 c 256,1122,1123
 809 204 809 204 811 205 c 1,1124,1125
 811 205 811 205 808 207 c 0,1126,1127
 806 230 806 230 811 239 c 1,1128,-1
 820 242 l 1,1129,1130
 824 248 824 248 820 251 c 0,1131,1132
 815 254 815 254 817 261 c 0,1133,1134
 817 264 817 264 823 271 c 0,1135,1136
 829 277 829 277 830 279 c 0,1137,1138
 830 282 830 282 829 300 c 0,1139,1140
 829 317 829 317 833 323 c 1,1141,1142
 830 326 830 326 823 326 c 1,1143,1144
 830 336 830 336 838 377 c 0,1145,1146
 840 382 840 382 838 390 c 0,1147,1148
 835 399 835 399 835 402 c 0,1149,1150
 856 495 856 495 873 545 c 0,1151,1152
 877 556 877 556 879 582 c 0,1153,1154
 881 603 881 603 889 614 c 1,1155,1156
 889 638 889 638 885 648 c 1,1157,-1
 870 648 l 1,1158,1159
 868 721 868 721 873 748 c 1,1160,1161
 868 745 868 745 867 739 c 1,1162,-1
 864 739 l 1,1163,1164
 858 766 858 766 857 770 c 1,1165,-1
 860 770 l 2,1166,1167
 861 770 861 770 864 770 c 2,1168,-1
 870 770 l 1,1169,-1
 870 782 l 1,1170,1171
 865 781 865 781 864 779 c 2,1172,-1
 857 779 l 1,1173,1174
 859 812 859 812 876 826 c 0,1175,1176
 877 827 877 827 879 826 c 0,1177,1178
 889 821 889 821 890 805 c 0,1179,1180
 894 777 894 777 895 776 c 0,1181,1182
 915 707 915 707 898 616 c 1,1183,1184
 900 617 900 617 907 620 c 1,1185,1186
 910 627 910 627 919 642 c 0,1187,1188
 927 655 927 655 929 663 c 0,1189,1190
 941 701 941 701 923 786 c 0,1191,1192
 921 793 921 793 902 841 c 0,1193,1194
 889 872 889 872 898 889 c 1,1195,-1
 898 895 l 1,1196,1197
 907 890 907 890 911 889 c 1,1198,-1
 911 892 l 1,1199,-1
 914 892 l 1,1200,1201
 912 936 912 936 891 1018 c 0,1202,1203
 868 1111 868 1111 845 1138 c 1,1204,-1
 845 1153 l 1,1205,1206
 847 1153 847 1153 848 1151 c 0,1207,1208
 860 1143 860 1143 873 1115 c 0,1209,1210
 885 1085 885 1085 885 1067 c 1,1211,1212
 892 1068 892 1068 895 1069 c 2,1213,-1
 898 1069 l 1,1214,1215
 897 1061 897 1061 919 991 c 1,1216,1217
 919 994 919 994 917 973 c 0,1218,1219
 914 946 914 946 936 923 c 1,1220,1221
 929 920 929 920 923 919 c 1,1222,1223
 932 895 932 895 919 829 c 1,1224,1225
 927 830 927 830 929 832 c 2,1226,-1
 936 832 l 1,1227,1228
 939 848 939 848 941 863 c 1,1229,1230
 937 881 937 881 936 876 c 1,1231,1232
 936 877 936 877 941 882 c 0,1233,1234
 945 888 945 888 945 889 c 0,1235,868
 949 907 949 907 936 944 c 1,869,870
EndSplineSet
EndChar

StartChar: one
Encoding: 49 49 20
Width: 610
GlyphClass: 1
Flags: W
LayerCount: 2
Fore
SplineSet
454 1230 m 1,0,1
 448 1234 448 1234 446 1242 c 1,2,-1
 454 1242 l 1,3,-1
 454 1230 l 1,0,1
454 1172 m 1,4,-1
 446 1172 l 1,5,6
 440 1190 440 1190 446 1211 c 1,7,8
 448 1210 448 1210 450 1209 c 0,9,10
 453 1208 453 1208 454 1207 c 2,11,-1
 454 1172 l 1,4,-1
454 776 m 1,12,13
 450 775 450 775 442 772 c 1,14,15
 448 780 448 780 450 784 c 1,16,-1
 454 784 l 1,17,-1
 454 776 l 1,12,13
446 718 m 1,19,20
 443 722 443 722 442 733 c 1,21,18
 445 729 445 729 446 718 c 1,19,20
435 553 m 2,22,23
 432 545 432 545 431 561 c 0,24,25
 429 564 429 564 431 573 c 1,26,-1
 438 573 l 1,27,28
 437 561 437 561 435 557 c 2,29,-1
 435 553 l 2,22,23
431 549 m 1,30,-1
 435 549 l 1,31,-1
 435 541 l 1,32,-1
 431 541 l 1,33,-1
 431 549 l 1,30,-1
435 506 m 1,34,-1
 431 506 l 1,35,-1
 431 522 l 1,36,-1
 438 522 l 1,37,38
 436 516 436 516 435 514 c 2,39,-1
 435 506 l 1,34,-1
384 1031 m 1,41,-1
 395 1031 l 1,42,-1
 395 1027 l 1,43,-1
 399 1027 l 1,44,45
 391 1000 391 1000 388 972 c 1,46,40
 374 991 374 991 384 1031 c 1,41,-1
384 847 m 1,47,-1
 376 847 l 2,48,49
 375 849 375 849 376 941 c 1,50,51
 379 940 379 940 391 933 c 1,52,53
 385 920 385 920 385 899 c 0,54,55
 385 877 385 877 395 870 c 0,56,57
 394 868 394 868 390 861 c 256,58,59
 386 854 386 854 384 851 c 2,60,-1
 384 847 l 1,47,-1
384 800 m 1,61,62
 378 803 378 803 376 811 c 1,63,-1
 384 811 l 1,64,-1
 384 800 l 1,61,62
376 788 m 1,65,-1
 380 788 l 1,66,-1
 380 780 l 1,67,-1
 376 780 l 1,68,-1
 376 788 l 1,65,-1
380 753 m 1,69,-1
 380 749 l 1,70,-1
 376 749 l 1,71,-1
 376 757 l 1,72,73
 381 755 381 755 384 753 c 1,74,-1
 380 753 l 1,69,-1
380 718 m 1,75,-1
 376 718 l 1,76,77
 373 734 373 734 372 741 c 1,78,79
 373 741 373 741 384 729 c 1,80,81
 382 724 382 724 380 721 c 2,82,-1
 380 718 l 1,75,-1
380 960 m 1,83,84
 385 958 385 958 388 956 c 1,85,-1
 384 956 l 1,86,-1
 384 952 l 1,87,-1
 380 952 l 1,88,-1
 380 960 l 1,83,84
290 1285 m 1,89,90
 293 1283 293 1283 286 1277 c 1,91,-1
 290 1285 l 1,89,90
509 1332 m 1,92,-1
 509 1321 l 1,93,94
 507 1324 507 1324 505 1332 c 1,95,-1
 509 1332 l 1,92,-1
509 17 m 1,97,98
 509 18 509 18 503 33 c 0,99,100
 498 47 498 47 497 52 c 0,101,102
 499 69 499 69 501 91 c 1,103,104
 508 89 508 89 489 95 c 1,105,106
 487 101 487 101 493 109 c 0,107,108
 500 117 500 117 497 126 c 0,109,110
 495 127 495 127 489 130 c 1,111,112
 499 154 499 154 482 204 c 1,113,114
 483 222 483 222 485 263 c 1,115,116
 460 368 460 368 470 514 c 0,117,118
 483 706 483 706 478 694 c 1,119,120
 472 710 472 710 470 718 c 0,121,122
 500 849 500 849 493 960 c 0,123,124
 493 966 493 966 500 989 c 0,125,126
 508 1015 508 1015 509 1019 c 0,127,128
 510 1024 510 1024 509 1052 c 0,129,130
 507 1080 507 1080 509 1086 c 0,131,132
 509 1087 509 1087 515 1093 c 0,133,134
 520 1100 520 1100 521 1101 c 0,135,136
 522 1107 522 1107 519 1124 c 256,137,138
 516 1141 516 1141 517 1144 c 0,139,140
 517 1146 517 1146 527 1168 c 0,141,142
 534 1185 534 1185 536 1195 c 1,143,144
 532 1213 532 1213 532 1211 c 1,145,146
 563 1346 563 1346 560 1352 c 0,147,148
 557 1364 557 1364 545 1367 c 0,149,150
 534 1369 534 1369 525 1364 c 1,151,-1
 513 1364 l 1,152,153
 512 1368 512 1368 514 1398 c 0,154,155
 515 1424 515 1424 513 1430 c 0,156,157
 512 1434 512 1434 501 1450 c 1,158,159
 495 1449 495 1449 485 1448 c 0,160,161
 474 1446 474 1446 470 1446 c 0,162,163
 462 1349 462 1349 462 1297 c 1,164,165
 453 1299 453 1299 450 1301 c 0,166,167
 446 1309 446 1309 447 1343 c 0,168,169
 448 1372 448 1372 435 1383 c 1,170,171
 435 1409 435 1409 466 1438 c 1,172,173
 465 1461 465 1461 455 1469 c 0,174,175
 428 1488 428 1488 431 1485 c 1,176,177
 407 1483 407 1483 391 1454 c 0,178,179
 371 1416 371 1416 364 1411 c 0,180,181
 357 1405 357 1405 343 1400 c 0,182,183
 327 1395 327 1395 321 1391 c 0,184,185
 314 1386 314 1386 308 1372 c 0,186,187
 302 1356 302 1356 298 1352 c 0,188,189
 295 1349 295 1349 283 1343 c 0,190,191
 273 1338 273 1338 270 1332 c 2,192,-1
 270 1317 l 1,193,194
 264 1305 264 1305 245 1282 c 0,195,196
 226 1258 226 1258 219 1246 c 0,197,198
 216 1240 216 1240 214 1224 c 0,199,200
 212 1210 212 1210 207 1203 c 0,201,202
 170 1148 170 1148 172 1152 c 1,203,204
 174 1146 174 1146 176 1140 c 0,205,206
 174 1137 174 1137 164 1130 c 0,207,208
 154 1124 154 1124 153 1121 c 2,209,-1
 153 1097 l 1,210,211
 132 1043 132 1043 63 980 c 0,212,213
 60 976 60 976 61 968 c 0,214,215
 62 961 62 961 59 956 c 0,216,217
 55 952 55 952 44 946 c 0,218,219
 31 940 31 940 27 937 c 0,220,221
 24 934 24 934 20 925 c 0,222,223
 15 916 15 916 12 913 c 1,224,225
 10 917 10 917 16 902 c 1,226,227
 29 904 29 904 37 912 c 0,228,229
 48 922 48 922 55 925 c 1,230,231
 58 917 58 917 59 909 c 1,232,-1
 47 909 l 1,233,234
 58 855 58 855 23 835 c 1,235,236
 26 830 26 830 31 827 c 1,237,238
 28 820 28 820 15 805 c 0,239,240
 3 791 3 791 0 784 c 0,241,242
 -2 781 -2 781 0 765 c 0,243,244
 2 750 2 750 -4 741 c 1,245,246
 -3 729 -3 729 0 725 c 2,247,-1
 0 721 l 1,248,-1
 4 721 l 1,249,250
 8 733 8 733 15 759 c 0,251,252
 22 782 22 782 27 796 c 0,253,254
 66 888 66 888 66 894 c 1,255,-1
 78 894 l 1,256,257
 81 914 81 914 101 946 c 0,258,259
 118 975 118 975 117 996 c 1,260,261
 134 998 134 998 156 1032 c 0,262,263
 182 1071 182 1071 192 1078 c 1,264,-1
 192 1093 l 1,265,-1
 207 1093 l 1,266,267
 187 1045 187 1045 138 960 c 0,268,269
 86 870 86 870 70 835 c 0,270,271
 66 826 66 826 50 774 c 0,272,273
 36 729 36 729 31 725 c 1,274,-1
 31 718 l 1,275,276
 43 719 43 719 47 721 c 2,277,-1
 55 721 l 1,278,279
 54 725 54 725 47 737 c 1,280,281
 53 742 53 742 86 808 c 0,282,283
 96 827 96 827 118 859 c 0,284,285
 145 897 145 897 153 909 c 1,286,287
 161 936 161 936 164 945 c 0,288,289
 167 945 167 945 172 947 c 0,290,291
 177 948 177 948 180 949 c 0,292,293
 183 953 183 953 184 964 c 0,294,295
 185 976 185 976 188 980 c 0,296,297
 190 983 190 983 200 988 c 0,298,299
 209 992 209 992 211 996 c 0,300,301
 215 1000 215 1000 219 1011 c 256,302,303
 223 1022 223 1022 227 1027 c 0,304,305
 230 1030 230 1030 239 1034 c 0,306,307
 248 1039 248 1039 251 1043 c 0,308,309
 261 1057 261 1057 287 1096 c 0,310,311
 310 1129 310 1129 325 1148 c 0,312,313
 329 1154 329 1154 343 1163 c 0,314,315
 355 1173 355 1173 360 1180 c 1,316,-1
 364 1180 l 1,317,318
 364 1158 364 1158 345 1109 c 1,319,320
 350 1089 350 1089 344 1069 c 0,321,322
 336 1042 336 1042 337 1027 c 2,323,324
 337 1027 337 1027 340 980 c 0,325,326
 343 942 343 942 341 929 c 0,327,328
 333 886 333 886 333 894 c 1,329,330
 333 892 333 892 336 884 c 0,331,332
 340 875 340 875 341 874 c 0,333,334
 346 852 346 852 341 813 c 0,335,336
 337 778 337 778 345 761 c 1,337,338
 324 698 324 698 352 580 c 0,339,340
 354 573 354 573 349 564 c 0,341,342
 344 556 344 556 345 553 c 0,343,344
 347 544 347 544 356 537 c 0,345,346
 358 532 358 532 354 515 c 0,347,348
 348 497 348 497 348 494 c 0,349,350
 349 488 349 488 347 457 c 0,351,352
 346 434 346 434 348 424 c 0,353,354
 353 400 353 400 357 353 c 256,355,356
 361 306 361 306 364 287 c 1,357,358
 362 270 362 270 360 255 c 1,359,-1
 368 248 l 1,360,361
 358 207 358 207 364 193 c 1,362,-1
 372 193 l 1,363,-1
 372 169 l 1,364,365
 379 172 379 172 384 177 c 1,366,-1
 388 177 l 1,367,-1
 388 158 l 1,368,369
 379 162 379 162 376 165 c 2,370,-1
 368 165 l 1,371,372
 373 153 373 153 384 122 c 1,373,374
 378 90 378 90 376 95 c 1,375,376
 393 89 393 89 388 91 c 1,377,378
 392 85 392 85 403 -3 c 0,379,380
 405 -19 405 -19 403 -60 c 0,381,382
 401 -97 401 -97 403 -109 c 0,383,384
 439 -261 439 -261 427 -289 c 1,385,386
 430 -295 430 -295 438 -297 c 1,387,388
 442 -339 442 -339 458 -395 c 1,389,390
 460 -393 460 -393 462 -391 c 0,391,392
 483 -381 483 -381 466 -321 c 0,393,394
 446 -251 446 -251 450 -238 c 0,395,396
 451 -237 451 -237 455 -234 c 0,397,398
 459 -232 459 -232 458 -226 c 0,399,400
 456 -218 456 -218 449 -195 c 0,401,402
 440 -172 440 -172 438 -164 c 0,403,404
 436 -151 436 -151 438 -136 c 0,405,406
 441 -119 441 -119 438 -109 c 0,407,408
 430 -70 430 -70 431 -66 c 0,409,410
 433 -49 433 -49 426 -12 c 0,411,412
 419 30 419 30 419 48 c 0,413,414
 422 181 422 181 431 197 c 1,415,416
 425 208 425 208 427 306 c 0,417,418
 430 455 430 455 423 463 c 1,419,420
 425 474 425 474 431 479 c 1,421,-1
 431 483 l 1,422,-1
 435 483 l 1,423,424
 448 457 448 457 441 420 c 0,425,426
 432 375 432 375 438 349 c 0,427,428
 463 251 463 251 462 134 c 1,429,430
 470 136 470 136 474 138 c 2,431,-1
 482 138 l 1,432,433
 480 132 480 132 473 121 c 0,434,435
 466 111 466 111 466 107 c 0,436,437
 465 100 465 100 472 93 c 0,438,439
 481 85 481 85 482 83 c 0,440,441
 483 79 483 79 480 61 c 0,442,443
 477 41 477 41 478 36 c 0,444,445
 478 32 478 32 483 21 c 0,446,447
 488 8 488 8 489 5 c 256,448,449
 490 2 490 2 485 -5 c 256,450,451
 480 -12 480 -12 482 -19 c 2,452,453
 482 -19 482 -19 487 -24 c 0,454,455
 493 -29 493 -29 493 -30 c 0,456,457
 494 -35 494 -35 495 -45 c 0,458,459
 495 -54 495 -54 497 -62 c 1,460,-1
 513 -62 l 1,461,462
 496 -30 496 -30 501 -11 c 0,463,96
 508 19 508 19 509 17 c 1,97,98
552 -352 m 1,464,-1
 556 -352 l 1,465,-1
 556 -348 l 1,466,467
 560 -343 560 -343 540 -261 c 0,468,469
 528 -211 528 -211 529 -211 c 0,470,471
 540 -176 540 -176 532 -148 c 0,472,473
 513 -76 513 -76 513 -74 c 1,474,475
 504 -75 504 -75 501 -77 c 0,476,477
 498 -140 498 -140 505 -160 c 0,478,479
 506 -163 506 -163 513 -170 c 256,480,481
 520 -177 520 -177 521 -179 c 0,482,483
 522 -184 522 -184 517 -210 c 0,484,485
 512 -235 512 -235 517 -246 c 0,486,487
 528 -272 528 -272 532 -281 c 1,488,489
 526 -294 526 -294 525 -297 c 1,490,-1
 532 -297 l 1,491,492
 536 -301 536 -301 534 -303 c 0,493,494
 532 -306 532 -306 532 -308 c 2,495,-1
 532 -312 l 2,496,497
 532 -331 532 -331 552 -348 c 1,498,-1
 552 -352 l 1,464,-1
556 -379 m 2,499,500
 558 -375 558 -375 552 -367 c 0,501,502
 549 -362 549 -362 544 -359 c 1,503,-1
 544 -379 l 2,504,505
 546 -380 546 -380 550 -381 c 256,506,507
 554 -382 554 -382 556 -383 c 1,508,-1
 556 -379 l 2,499,500
560 -446 m 1,509,-1
 564 -446 l 1,510,511
 563 -429 563 -429 556 -422 c 1,512,513
 557 -437 557 -437 560 -442 c 2,514,-1
 560 -446 l 1,509,-1
568 -449 m 1,515,-1
 560 -449 l 1,516,517
 559 -480 559 -480 560 -492 c 1,518,-1
 572 -492 l 1,519,520
 571 -490 571 -490 571 -476 c 0,521,522
 572 -463 572 -463 568 -457 c 1,523,-1
 568 -449 l 1,515,-1
576 -528 m 1,524,-1
 576 -512 l 1,525,-1
 564 -512 l 1,526,527
 565 -521 565 -521 568 -524 c 2,528,-1
 568 -528 l 1,529,-1
 576 -528 l 1,524,-1
576 -563 m 1,530,-1
 579 -563 l 1,531,532
 578 -554 578 -554 576 -551 c 1,533,-1
 576 -563 l 1,530,-1
EndSplineSet
EndChar

StartChar: two
Encoding: 50 50 21
Width: 951
GlyphClass: 1
Flags: W
LayerCount: 2
Fore
SplineSet
416 213 m 1,1,2
 411 210 411 210 403 198 c 0,3,4
 395 184 395 184 387 180 c 0,5,6
 374 173 374 173 322 161 c 0,7,8
 274 150 274 150 265 141 c 1,9,-1
 254 141 l 1,10,11
 256 145 256 145 258 147 c 0,12,13
 266 161 266 161 302 167 c 0,14,15
 354 176 354 176 357 177 c 0,16,17
 363 179 363 179 372 186 c 0,18,19
 383 194 383 194 387 196 c 1,20,-1
 387 206 l 1,21,22
 371 206 371 206 363 200 c 0,23,24
 351 191 351 191 346 190 c 0,25,26
 325 195 325 195 287 182 c 0,27,28
 243 167 243 167 225 167 c 1,29,-1
 225 157 l 1,30,31
 202 154 202 154 192 141 c 1,32,-1
 184 141 l 1,33,34
 204 179 204 179 255 198 c 0,35,36
 257 198 257 198 354 223 c 1,37,38
 395 214 395 214 427 226 c 1,39,40
 431 222 431 222 435 219 c 0,41,42
 434 217 434 217 427 206 c 1,43,0
 420 209 420 209 416 213 c 1,1,2
173 324 m 1,44,-1
 173 321 l 1,45,-1
 170 321 l 1,46,-1
 170 328 l 1,47,48
 175 326 175 326 177 324 c 1,49,-1
 173 324 l 1,44,-1
96 216 m 1,50,-1
 92 216 l 1,51,52
 93 223 93 223 96 229 c 1,53,54
 99 224 99 224 96 219 c 2,55,-1
 96 216 l 1,50,-1
78 167 m 1,57,-1
 78 164 l 1,58,-1
 70 164 l 1,59,60
 70 175 70 175 85 213 c 1,61,-1
 92 213 l 1,62,63
 87 191 87 191 92 183 c 1,64,56
 88 171 88 171 78 167 c 1,57,-1
383 560 m 1,65,-1
 383 563 l 1,66,67
 385 561 385 561 387 557 c 1,68,69
 372 558 372 558 380 560 c 2,70,-1
 383 560 l 1,65,-1
405 593 m 2,71,72
 406 591 406 591 402 586 c 1,73,-1
 402 583 l 1,74,-1
 398 583 l 2,75,76
 397 580 397 580 402 593 c 1,77,-1
 405 593 l 2,71,72
525 747 m 0,79,80
 533 763 533 763 538 770 c 0,81,82
 546 780 546 780 565 796 c 0,83,84
 586 813 586 813 593 822 c 0,85,86
 598 828 598 828 604 840 c 0,87,88
 611 852 611 852 615 858 c 0,89,90
 620 861 620 861 628 867 c 0,91,92
 637 872 637 872 641 875 c 0,93,94
 649 897 649 897 648 894 c 1,95,96
 656 904 656 904 678 911 c 0,97,98
 702 918 702 918 707 924 c 0,99,100
 722 939 722 939 740 996 c 0,101,102
 742 1000 742 1000 742 1009 c 0,103,104
 742 1016 742 1016 744 1019 c 0,105,106
 744 1033 744 1033 755 1048 c 1,107,-1
 763 1048 l 1,108,109
 768 1037 768 1037 770 1035 c 2,110,-1
 770 989 l 1,111,112
 768 989 768 989 764 988 c 0,113,114
 761 987 761 987 759 986 c 0,115,116
 758 983 758 983 755 976 c 0,117,118
 753 970 753 970 752 966 c 1,119,-1
 744 966 l 1,120,121
 738 959 738 959 711 914 c 0,122,123
 692 881 692 881 670 868 c 1,124,-1
 670 858 l 1,125,126
 657 855 657 855 644 834 c 0,127,128
 627 806 627 806 623 803 c 0,129,130
 619 801 619 801 612 799 c 1,131,-1
 612 790 l 1,132,133
 593 779 593 779 545 724 c 1,134,135
 535 720 535 720 520 714 c 1,136,-1
 520 701 l 1,137,138
 510 697 510 697 505 694 c 0,139,140
 502 691 502 691 498 683 c 256,141,142
 494 675 494 675 490 672 c 0,143,144
 488 670 488 670 481 668 c 0,145,146
 473 667 473 667 472 665 c 0,147,148
 463 656 463 656 445 632 c 0,149,150
 428 610 428 610 416 599 c 1,151,-1
 416 596 l 1,152,-1
 409 596 l 1,153,154
 422 622 422 622 512 724 c 0,155,78
 519 731 519 731 525 747 c 0,79,80
737 1222 m 1,156,157
 748 1218 748 1218 752 1209 c 1,158,159
 751 1209 751 1209 748 1196 c 1,160,-1
 744 1196 l 1,161,162
 741 1200 741 1200 737 1202 c 1,163,-1
 737 1222 l 1,156,157
667 1261 m 1,164,165
 656 1262 656 1262 652 1265 c 0,166,167
 650 1267 650 1267 648 1274 c 1,168,169
 650 1274 650 1274 667 1265 c 1,170,-1
 667 1261 l 1,164,165
413 1373 m 1,171,172
 411 1369 411 1369 405 1373 c 1,173,-1
 413 1373 l 1,171,172
405 1314 m 1,174,175
 383 1317 383 1317 359 1330 c 0,176,177
 327 1347 327 1347 321 1350 c 1,178,-1
 321 1356 l 1,179,180
 352 1339 352 1339 398 1333 c 1,181,182
 401 1325 401 1325 405 1320 c 1,183,-1
 405 1314 l 1,174,175
74 1183 m 2,184,185
 72 1182 72 1182 68 1181 c 0,186,187
 65 1180 65 1180 63 1179 c 1,188,-1
 63 1186 l 1,189,-1
 74 1186 l 1,190,-1
 74 1183 l 2,184,185
22 1071 m 1,191,-1
 15 1071 l 1,192,193
 16 1078 16 1078 19 1084 c 1,194,-1
 26 1084 l 1,195,196
 24 1077 24 1077 22 1075 c 2,197,-1
 22 1071 l 1,191,-1
932 -33 m 2,198,199
 931 -33 931 -33 939 -26 c 1,200,201
 936 -21 936 -21 924 -12 c 0,202,203
 913 -3 913 -3 910 3 c 2,204,-1
 910 26 l 1,205,206
 906 37 906 37 891 75 c 0,207,208
 877 106 877 106 873 124 c 1,209,-1
 862 124 l 1,210,211
 861 128 861 128 858 160 c 1,212,-1
 851 160 l 1,213,214
 846 170 846 170 852 192 c 0,215,216
 858 213 858 213 855 219 c 0,217,218
 854 221 854 221 847 226 c 0,219,220
 841 230 841 230 840 233 c 0,221,222
 838 240 838 240 848 261 c 0,223,224
 858 280 858 280 851 292 c 0,225,226
 841 309 841 309 856 389 c 0,227,228
 870 463 870 463 880 482 c 1,229,230
 873 485 873 485 869 488 c 1,231,232
 856 482 856 482 858 471 c 0,233,234
 861 454 861 454 858 449 c 0,235,236
 857 446 857 446 853 439 c 0,237,238
 848 431 848 431 846 427 c 0,239,240
 840 414 840 414 851 403 c 1,241,242
 773 305 773 305 792 219 c 0,243,244
 794 210 794 210 788 183 c 0,245,246
 783 162 783 162 792 151 c 1,247,248
 790 144 790 144 788 141 c 0,249,250
 776 141 776 141 752 142 c 0,251,252
 727 144 727 144 715 144 c 1,253,-1
 707 154 l 1,254,-1
 704 151 l 1,255,256
 690 151 690 151 676 155 c 0,257,258
 660 160 660 160 648 160 c 1,259,260
 647 170 647 170 645 174 c 0,261,262
 635 178 635 178 606 178 c 0,263,264
 574 176 574 176 560 180 c 0,265,266
 552 182 552 182 531 195 c 0,267,268
 513 206 513 206 494 206 c 1,269,270
 497 210 497 210 501 213 c 2,271,272
 501 213 501 213 516 212 c 0,273,274
 533 212 533 212 538 213 c 0,275,276
 541 217 541 217 542 216 c 0,277,278
 544 215 544 215 546 210 c 0,279,280
 548 204 548 204 549 203 c 0,281,282
 554 200 554 200 583 196 c 0,283,284
 611 193 611 193 612 193 c 2,285,-1
 619 193 l 1,286,287
 606 217 606 217 542 236 c 1,288,-1
 512 236 l 1,289,290
 439 260 439 260 372 246 c 0,291,292
 368 245 368 245 346 250 c 0,293,294
 325 256 325 256 313 252 c 0,295,296
 312 252 312 252 307 247 c 0,297,298
 303 243 303 243 302 242 c 0,299,300
 290 238 290 238 268 238 c 256,301,302
 246 238 246 238 232 233 c 0,303,304
 228 231 228 231 214 222 c 0,305,306
 203 215 203 215 192 213 c 1,307,308
 191 220 191 220 221 272 c 0,309,310
 229 285 229 285 239 315 c 0,311,312
 248 343 248 343 258 357 c 0,313,314
 263 364 263 364 276 377 c 0,315,316
 290 391 290 391 295 396 c 2,317,-1
 299 413 l 2,318,319
 304 421 304 421 323 436 c 0,320,321
 341 450 341 450 346 459 c 1,322,-1
 346 472 l 1,323,324
 350 477 350 477 363 485 c 256,325,326
 376 493 376 493 380 498 c 0,327,328
 383 502 383 502 387 513 c 0,329,330
 390 523 390 523 394 527 c 0,331,332
 400 534 400 534 418 551 c 0,333,334
 433 566 433 566 442 577 c 0,335,336
 444 579 444 579 451 582 c 0,337,338
 459 584 459 584 461 586 c 2,339,-1
 461 599 l 2,340,341
 463 603 463 603 475 608 c 256,342,343
 487 613 487 613 490 616 c 0,344,345
 501 625 501 625 515 643 c 0,346,347
 532 665 532 665 538 672 c 0,348,349
 542 676 542 676 556 681 c 0,350,351
 571 687 571 687 575 691 c 0,352,353
 578 694 578 694 580 702 c 0,354,355
 582 708 582 708 586 711 c 256,356,357
 590 714 590 714 607 722 c 0,358,359
 621 728 621 728 626 734 c 0,360,361
 628 736 628 736 630 742 c 0,362,363
 631 748 631 748 634 750 c 0,364,365
 641 757 641 757 655 764 c 0,366,367
 673 774 673 774 678 776 c 0,368,369
 686 782 686 782 698 797 c 0,370,371
 711 814 711 814 718 819 c 0,372,373
 723 822 723 822 733 826 c 0,374,375
 743 829 743 829 748 832 c 0,376,377
 751 834 751 834 753 842 c 0,378,379
 756 850 756 850 759 852 c 0,380,381
 760 852 760 852 788 867 c 0,382,383
 805 875 805 875 810 891 c 0,384,385
 813 895 813 895 818 911 c 1,386,-1
 814 911 l 1,387,-1
 814 914 l 1,388,389
 785 913 785 913 777 907 c 1,390,-1
 770 907 l 1,391,392
 778 920 778 920 804 937 c 0,393,394
 829 953 829 953 836 966 c 0,395,396
 846 979 846 979 840 990 c 0,397,398
 828 1012 828 1012 829 1009 c 1,399,400
 839 1030 839 1030 825 1091 c 0,401,402
 807 1164 807 1164 807 1173 c 1,403,404
 816 1172 816 1172 821 1169 c 0,405,406
 828 1164 828 1164 833 1163 c 0,407,408
 835 1165 835 1165 840 1166 c 1,409,410
 838 1171 838 1171 836 1173 c 0,411,412
 833 1194 833 1194 791 1219 c 0,413,414
 722 1260 722 1260 729 1255 c 1,415,416
 673 1298 673 1298 520 1373 c 0,417,418
 514 1375 514 1375 503 1384 c 0,419,420
 490 1393 490 1393 486 1396 c 0,421,422
 478 1400 478 1400 459 1404 c 0,423,424
 439 1407 439 1407 431 1412 c 0,425,426
 394 1433 394 1433 398 1432 c 1,427,428
 395 1433 395 1433 385 1430 c 256,429,430
 375 1427 375 1427 369 1428 c 0,431,432
 355 1431 355 1431 336 1432 c 0,433,434
 311 1434 311 1434 302 1435 c 1,435,436
 286 1419 286 1419 273 1415 c 0,437,438
 268 1413 268 1413 254 1415 c 0,439,440
 238 1417 238 1417 229 1415 c 0,441,442
 186 1407 186 1407 144 1379 c 0,443,444
 111 1358 111 1358 81 1291 c 0,445,446
 79 1286 79 1286 78 1276 c 0,447,448
 78 1267 78 1267 74 1261 c 0,449,450
 72 1259 72 1259 63 1255 c 256,451,452
 54 1251 54 1251 52 1248 c 0,453,454
 48 1242 48 1242 46 1231 c 0,455,456
 44 1219 44 1219 41 1212 c 1,457,458
 34 1208 34 1208 30 1206 c 1,459,460
 32 1196 32 1196 33 1193 c 0,461,462
 33 1191 33 1191 28 1185 c 0,463,464
 22 1180 22 1180 22 1179 c 0,465,466
 21 1176 21 1176 25 1165 c 0,467,468
 28 1154 28 1154 26 1150 c 0,469,470
 25 1149 25 1149 11 1131 c 0,471,472
 -2 1115 -2 1115 -3 1111 c 0,473,474
 -5 1106 -5 1106 0 1102 c 0,475,476
 5 1099 5 1099 4 1094 c 0,477,478
 3 1091 3 1091 -3 1078 c 0,479,480
 -10 1065 -10 1065 -11 1061 c 0,481,482
 -14 1053 -14 1053 -14 1039 c 0,483,484
 -13 1025 -13 1025 -15 1022 c 0,485,486
 -15 1021 -15 1021 -20 1016 c 0,487,488
 -25 1010 -25 1010 -26 1009 c 0,489,490
 -24 1004 -24 1004 -20 994 c 256,491,492
 -16 984 -16 984 -15 980 c 0,493,494
 -16 979 -16 979 -18 978 c 0,495,496
 -21 977 -21 977 -22 976 c 0,497,498
 -23 972 -23 972 -22 957 c 0,499,500
 -22 944 -22 944 -26 934 c 0,501,502
 -26 933 -26 933 -31 928 c 0,503,504
 -37 924 -37 924 -37 924 c 2,505,506
 -38 919 -38 919 -33 916 c 256,507,508
 -28 913 -28 913 -29 911 c 1,509,510
 -28 915 -28 915 -44 845 c 0,511,512
 -41 842 -41 842 -37 835 c 1,513,514
 -24 838 -24 838 -15 845 c 0,515,516
 -12 849 -12 849 -15 858 c 0,517,518
 -17 867 -17 867 -15 875 c 0,519,520
 -13 879 -13 879 -4 891 c 0,521,522
 6 904 6 904 8 907 c 2,523,-1
 8 937 l 1,524,525
 14 954 14 954 29 985 c 0,526,527
 47 1021 47 1021 52 1032 c 0,528,529
 56 1041 56 1041 59 1058 c 0,530,531
 61 1074 61 1074 66 1084 c 0,532,533
 69 1089 69 1089 77 1095 c 0,534,535
 87 1102 87 1102 89 1104 c 0,536,537
 92 1108 92 1108 93 1115 c 0,538,539
 94 1124 94 1124 96 1127 c 0,540,541
 113 1160 113 1160 144 1199 c 0,542,543
 151 1208 151 1208 254 1291 c 1,544,545
 265 1290 265 1290 272 1285 c 0,546,547
 280 1279 280 1279 284 1278 c 0,548,549
 291 1275 291 1275 301 1277 c 256,550,551
 311 1279 311 1279 317 1278 c 0,552,553
 318 1277 318 1277 319 1274 c 0,554,555
 320 1272 320 1272 321 1271 c 0,556,557
 341 1265 341 1265 376 1269 c 0,558,559
 413 1274 413 1274 424 1271 c 0,560,561
 535 1246 535 1246 678 1111 c 1,562,563
 675 1052 675 1052 659 1032 c 1,564,-1
 652 1032 l 1,565,566
 634 1015 634 1015 630 996 c 1,567,-1
 619 996 l 1,568,569
 612 984 612 984 593 964 c 0,570,571
 573 944 573 944 567 934 c 1,572,573
 568 934 568 934 571 921 c 0,574,575
 569 918 569 918 560 914 c 0,576,577
 552 911 552 911 549 907 c 0,578,579
 473 806 473 806 479 812 c 1,580,581
 414 747 414 747 413 737 c 1,582,583
 407 731 407 731 386 716 c 0,584,585
 368 704 368 704 361 694 c 0,586,587
 360 691 360 691 359 686 c 0,588,589
 358 680 358 680 357 678 c 0,590,591
 351 669 351 669 329 647 c 0,592,593
 310 628 310 628 302 616 c 0,594,595
 300 612 300 612 299 606 c 256,596,597
 298 600 298 600 295 596 c 0,598,599
 292 595 292 595 287 593 c 256,600,601
 282 591 282 591 280 590 c 0,602,603
 277 585 277 585 276 577 c 0,604,605
 275 568 275 568 273 563 c 0,606,607
 268 556 268 556 255 537 c 0,608,609
 241 518 241 518 236 511 c 1,610,-1
 236 495 l 2,611,612
 234 491 234 491 225 485 c 0,613,614
 216 478 216 478 214 475 c 0,615,616
 201 456 201 456 185 420 c 0,617,618
 167 378 167 378 159 364 c 1,619,620
 161 368 161 368 144 346 c 0,621,622
 135 335 135 335 140 328 c 1,623,-1
 140 324 l 1,624,625
 136 326 136 326 133 328 c 1,626,-1
 133 324 l 1,627,628
 110 311 110 311 103 288 c 0,629,630
 102 285 102 285 105 279 c 0,631,632
 107 274 107 274 103 269 c 1,633,634
 106 270 106 270 89 262 c 1,635,636
 79 249 79 249 63 213 c 0,637,638
 62 212 62 212 52 183 c 0,639,640
 50 180 50 180 53 173 c 0,641,642
 56 167 56 167 55 167 c 0,643,644
 54 165 54 165 46 163 c 0,645,646
 40 161 40 161 41 154 c 0,647,648
 44 148 44 148 44 144 c 1,649,650
 56 145 56 145 70 154 c 0,651,652
 72 158 72 158 74 160 c 1,653,654
 76 156 76 156 78 154 c 1,655,656
 77 153 77 153 55 105 c 0,657,658
 51 95 51 95 49 72 c 0,659,660
 48 52 48 52 41 43 c 0,661,662
 39 40 39 40 30 36 c 0,663,664
 21 33 21 33 19 29 c 0,665,666
 18 9 18 9 15 3 c 0,667,668
 13 0 13 0 6 -9 c 0,669,670
 -1 -19 -1 -19 -5 -25 c 0,671,672
 -17 -45 -17 -45 -7 -59 c 1,673,-1
 -7 -66 l 1,674,675
 -2 -65 -2 -65 19 -56 c 1,676,-1
 19 -43 l 1,677,-1
 33 -43 l 1,678,-1
 59 10 l 1,679,-1
 70 10 l 1,680,681
 74 -14 74 -14 70 -23 c 1,682,-1
 81 -30 l 1,683,684
 115 -24 115 -24 122 -20 c 0,685,686
 133 -14 133 -14 133 -5 c 0,687,688
 133 8 133 8 136 13 c 0,689,690
 139 17 139 17 147 19 c 0,691,692
 156 21 156 21 159 23 c 256,693,694
 162 25 162 25 166 33 c 0,695,696
 170 40 170 40 173 43 c 0,697,698
 186 49 186 49 206 56 c 0,699,700
 229 64 229 64 240 69 c 0,701,702
 242 70 242 70 250 77 c 256,703,704
 258 84 258 84 262 85 c 0,705,706
 270 89 270 89 297 93 c 0,707,708
 319 96 319 96 328 105 c 1,709,710
 359 104 359 104 372 85 c 1,711,712
 527 92 527 92 516 95 c 1,713,714
 555 84 555 84 564 101 c 1,715,-1
 571 101 l 1,716,717
 575 94 575 94 582 85 c 1,718,719
 599 87 599 87 648 69 c 0,720,721
 653 69 653 69 661 70 c 0,722,723
 670 71 670 71 674 72 c 0,724,725
 676 71 676 71 682 68 c 256,726,727
 688 65 688 65 692 63 c 0,728,729
 706 58 706 58 715 65 c 1,730,-1
 718 65 l 1,731,-1
 722 56 l 1,732,733
 734 47 734 47 771 34 c 0,734,735
 805 22 805 22 818 10 c 0,736,737
 825 3 825 3 833 -17 c 0,738,739
 841 -36 841 -36 851 -43 c 0,740,741
 867 -54 867 -54 899 -63 c 0,742,743
 928 -72 928 -72 939 -82 c 1,744,745
 950 -81 950 -81 954 -79 c 0,746,747
 959 -70 959 -70 950 -56 c 0,748,749
 932 -26 932 -26 936 -33 c 1,750,-1
 932 -33 l 2,198,199
EndSplineSet
EndChar

StartChar: three
Encoding: 51 51 22
Width: 1014
GlyphClass: 1
Flags: W
LayerCount: 2
Fore
SplineSet
931 399 m 1,0,1
 925 387 925 387 921 384 c 1,2,-1
 921 378 l 1,3,4
 906 400 906 400 918 445 c 0,5,6
 934 499 934 499 931 517 c 1,7,-1
 934 517 l 1,8,-1
 934 520 l 1,9,-1
 941 520 l 1,10,11
 940 507 940 507 941 461 c 0,12,13
 942 424 942 424 941 399 c 1,14,-1
 931 399 l 1,0,1
909 279 m 0,16,17
 906 277 906 277 905 276 c 2,18,-1
 898 276 l 1,19,20
 902 283 902 283 908 291 c 0,21,22
 910 291 910 291 913 290 c 256,23,24
 916 289 916 289 918 288 c 1,25,26
 916 284 916 284 914 282 c 0,27,15
 913 281 913 281 909 279 c 0,16,17
905 631 m 1,28,-1
 911 631 l 1,29,30
 924 583 924 583 931 575 c 1,31,32
 930 567 930 567 921 554 c 1,33,-1
 911 554 l 1,34,35
 908 595 908 595 905 597 c 2,36,-1
 905 631 l 1,28,-1
823 251 m 1,37,38
 835 267 835 267 836 270 c 1,39,40
 837 269 837 269 842 267 c 1,41,42
 833 253 833 253 833 251 c 1,43,-1
 823 251 l 1,37,38
800 217 m 1,44,45
 806 237 806 237 807 239 c 1,46,47
 811 237 811 237 813 236 c 0,48,49
 815 232 815 232 807 217 c 1,50,-1
 800 217 l 1,44,45
767 171 m 1,52,-1
 764 171 l 1,53,54
 768 179 768 179 779 192 c 0,55,56
 789 205 789 205 793 214 c 1,57,-1
 800 214 l 1,58,59
 795 199 795 199 790 193 c 1,60,51
 792 198 792 198 767 171 c 1,52,-1
695 165 m 2,61,62
 694 163 694 163 692 162 c 2,63,-1
 686 162 l 1,64,-1
 686 168 l 1,65,-1
 695 168 l 1,66,-1
 695 165 l 2,61,62
591 41 m 1,67,68
 592 47 592 47 594 54 c 1,69,-1
 604 54 l 1,70,71
 603 51 603 51 597 41 c 1,72,-1
 591 41 l 1,67,68
571 35 m 1,73,74
 570 35 570 35 548 23 c 1,75,76
 545 29 545 29 542 32 c 2,77,-1
 542 35 l 1,78,79
 551 36 551 36 555 38 c 2,80,-1
 571 38 l 1,81,-1
 571 35 l 1,73,74
793 770 m 1,82,83
 771 780 771 780 718 813 c 0,84,85
 713 816 713 816 695 835 c 0,86,87
 680 850 680 850 666 853 c 1,88,89
 668 857 668 857 669 859 c 0,90,91
 678 863 678 863 702 851 c 0,92,93
 730 836 730 836 738 835 c 1,94,-1
 738 825 l 1,95,96
 751 819 751 819 767 803 c 0,97,98
 785 785 785 785 793 779 c 1,99,-1
 793 770 l 1,82,83
754 887 m 1,100,-1
 771 887 l 1,101,102
 776 881 776 881 787 875 c 1,103,104
 786 868 786 868 784 865 c 0,105,106
 781 862 781 862 780 862 c 1,107,-1
 780 865 l 1,108,109
 773 866 773 866 754 878 c 1,110,-1
 754 887 l 1,100,-1
527 958 m 256,112,113
 531 960 531 960 532 961 c 2,114,-1
 545 961 l 1,115,116
 541 954 541 954 522 955 c 1,117,111
 523 956 523 956 527 958 c 256,112,113
480 1041 m 1,118,-1
 480 1029 l 1,119,120
 452 1010 452 1010 427 961 c 1,121,122
 428 962 428 962 421 958 c 1,123,-1
 421 961 l 1,124,-1
 418 961 l 1,125,126
 425 991 425 991 434 1004 c 0,127,128
 436 1005 436 1005 439 1006 c 256,129,130
 442 1007 442 1007 444 1007 c 0,131,132
 456 1057 456 1057 454 1048 c 1,133,134
 456 1051 456 1051 465 1057 c 256,135,136
 474 1063 474 1063 476 1066 c 0,137,138
 481 1074 481 1074 492 1099 c 0,139,140
 502 1122 502 1122 509 1131 c 0,141,142
 564 1199 564 1199 568 1208 c 1,143,-1
 574 1208 l 1,144,145
 575 1212 575 1212 558 1186 c 1,146,-1
 558 1171 l 2,147,148
 555 1166 555 1166 543 1152 c 0,149,150
 532 1138 532 1138 529 1131 c 0,151,152
 527 1127 527 1127 530 1123 c 0,153,154
 532 1119 532 1119 532 1119 c 1,155,156
 526 1114 526 1114 519 1109 c 0,157,158
 497 1074 497 1074 489 1041 c 1,159,-1
 480 1041 l 1,118,-1
454 915 m 1,161,162
 449 916 449 916 447 918 c 1,163,160
 452 916 452 916 454 915 c 1,161,162
444 909 m 1,164,-1
 440 909 l 1,165,-1
 440 915 l 1,166,-1
 444 915 l 1,167,-1
 444 909 l 1,164,-1
365 1288 m 1,168,-1
 365 1294 l 1,169,170
 474 1292 474 1292 493 1304 c 1,171,172
 497 1301 497 1301 499 1298 c 0,173,174
 509 1300 509 1300 529 1304 c 1,175,-1
 529 1301 l 1,176,-1
 532 1301 l 1,177,-1
 532 1298 l 1,178,-1
 529 1298 l 1,179,180
 528 1287 528 1287 524 1282 c 0,181,182
 517 1274 517 1274 516 1270 c 0,183,184
 396 1268 396 1268 372 1288 c 1,185,-1
 365 1288 l 1,168,-1
274 1384 m 1,187,188
 241 1385 241 1385 228 1393 c 0,189,190
 227 1396 227 1396 225 1403 c 0,191,192
 222 1404 222 1404 200 1401 c 0,193,194
 181 1398 181 1398 166 1412 c 1,195,196
 293 1411 293 1411 346 1399 c 0,197,198
 357 1397 357 1397 378 1398 c 0,199,200
 400 1400 400 1400 405 1399 c 0,201,202
 485 1389 485 1389 496 1390 c 1,203,-1
 496 1387 l 1,204,-1
 499 1387 l 1,205,-1
 499 1384 l 1,206,207
 325 1382 325 1382 300 1399 c 1,208,186
 278 1399 278 1399 274 1384 c 1,187,188
548 1390 m 1,210,211
 561 1386 561 1386 552 1381 c 1,212,209
 549 1385 549 1385 548 1390 c 1,210,211
612 1206 m 0,214,215
 616 1222 616 1222 620 1230 c 1,216,217
 631 1236 631 1236 637 1239 c 0,218,219
 640 1244 640 1244 642 1253 c 0,220,221
 643 1262 643 1262 646 1267 c 0,222,223
 650 1272 650 1272 668 1289 c 0,224,225
 682 1302 682 1302 686 1313 c 1,226,-1
 692 1313 l 1,227,228
 692 1311 692 1311 669 1273 c 0,229,230
 666 1268 666 1268 664 1253 c 0,231,232
 663 1238 663 1238 659 1233 c 0,233,234
 646 1211 646 1211 615 1178 c 0,235,236
 579 1139 579 1139 568 1125 c 1,237,-1
 561 1125 l 1,238,239
 568 1137 568 1137 582 1155 c 0,240,241
 601 1179 601 1179 604 1183 c 0,242,213
 609 1191 609 1191 612 1206 c 0,214,215
375 958 m 0,244,245
 375 960 375 960 384 973 c 256,246,247
 393 986 393 986 395 995 c 1,248,-1
 401 995 l 1,249,250
 402 970 402 970 391 961 c 0,251,243
 382 954 382 954 375 958 c 0,244,245
385 890 m 1,252,-1
 382 890 l 1,253,254
 375 877 375 877 337 851 c 0,255,256
 295 823 295 823 287 813 c 1,257,-1
 284 813 l 1,258,259
 301 861 301 861 352 909 c 1,260,261
 363 908 363 908 364 904 c 0,262,263
 366 898 366 898 369 896 c 0,264,265
 374 893 374 893 377 896 c 0,266,267
 379 899 379 899 382 893 c 1,268,-1
 385 893 l 1,269,-1
 385 890 l 1,252,-1
107 1282 m 1,270,-1
 104 1282 l 1,271,272
 106 1297 106 1297 107 1301 c 1,273,274
 113 1293 113 1293 107 1285 c 1,275,-1
 107 1282 l 1,270,-1
101 1248 m 1,276,-1
 97 1248 l 1,277,-1
 97 1242 l 1,278,-1
 94 1242 l 1,279,280
 96 1248 96 1248 97 1251 c 2,281,-1
 101 1251 l 1,282,-1
 101 1248 l 1,276,-1
87 1393 m 1,283,284
 83 1391 83 1391 78 1393 c 1,285,-1
 87 1393 l 1,283,284
65 1032 m 1,286,287
 51 1040 51 1040 46 1064 c 0,288,289
 37 1110 37 1110 38 1106 c 1,290,291
 13 1189 13 1189 32 1332 c 0,292,293
 35 1332 35 1332 40 1333 c 0,294,295
 46 1334 46 1334 48 1335 c 1,296,297
 57 1312 57 1312 52 1248 c 0,298,299
 47 1198 47 1198 68 1125 c 0,300,301
 72 1111 72 1111 66 1089 c 0,302,303
 60 1070 60 1070 65 1063 c 1,304,-1
 65 1032 l 1,286,287
996 532 m 1,306,307
 995 534 995 534 988 539 c 0,308,309
 981 545 981 545 980 548 c 0,310,311
 982 556 982 556 967 612 c 0,312,313
 965 620 965 620 964 643 c 0,314,315
 963 661 963 661 957 671 c 0,316,317
 925 724 925 724 911 770 c 1,318,-1
 911 798 l 1,319,320
 887 849 887 849 898 865 c 1,321,322
 897 877 897 877 892 887 c 1,323,324
 877 887 877 887 872 885 c 0,325,326
 865 882 865 882 856 881 c 1,327,-1
 856 890 l 1,328,-1
 842 890 l 1,329,330
 839 911 839 911 846 918 c 1,331,332
 841 941 841 941 813 944 c 0,333,334
 767 950 767 950 764 952 c 0,335,336
 747 959 747 959 607 992 c 0,337,338
 597 994 597 994 573 992 c 0,339,340
 550 990 550 990 545 992 c 0,341,342
 515 1001 515 1001 519 1001 c 0,343,344
 523 1022 523 1022 548 1043 c 0,345,346
 581 1072 581 1072 588 1082 c 0,347,348
 590 1091 590 1091 591 1097 c 0,349,350
 592 1098 592 1098 617 1119 c 1,351,352
 617 1119 617 1119 656 1168 c 1,353,354
 671 1179 671 1179 673 1180 c 0,355,356
 679 1190 679 1190 690 1211 c 0,357,358
 700 1232 700 1232 708 1242 c 0,359,360
 710 1243 710 1243 725 1248 c 1,361,362
 785 1320 785 1320 797 1344 c 1,363,-1
 820 1344 l 1,364,365
 819 1339 819 1339 830 1369 c 0,366,367
 835 1383 835 1383 826 1393 c 1,368,369
 831 1405 831 1405 856 1412 c 1,370,371
 858 1423 858 1423 859 1424 c 0,372,373
 858 1429 858 1429 839 1455 c 1,374,375
 830 1452 830 1452 819 1442 c 0,376,377
 808 1430 808 1430 800 1427 c 0,378,379
 794 1424 794 1424 779 1424 c 0,380,381
 760 1425 760 1425 754 1424 c 0,382,383
 746 1423 746 1423 716 1420 c 0,384,385
 689 1417 689 1417 679 1415 c 0,386,387
 637 1417 637 1417 627 1418 c 0,388,389
 568 1409 568 1409 516 1421 c 1,390,-1
 499 1427 l 1,391,392
 404 1425 404 1425 398 1427 c 0,393,394
 397 1428 397 1428 393 1432 c 0,395,396
 388 1436 388 1436 388 1437 c 0,397,398
 383 1438 383 1438 377 1433 c 0,399,400
 371 1429 371 1429 365 1430 c 0,401,402
 362 1431 362 1431 354 1437 c 0,403,404
 346 1442 346 1442 342 1443 c 0,405,406
 337 1443 337 1443 326 1439 c 256,407,408
 315 1435 315 1435 306 1437 c 1,409,410
 308 1436 308 1436 221 1449 c 0,411,412
 217 1448 217 1448 207 1447 c 256,413,414
 197 1446 197 1446 192 1446 c 0,415,416
 183 1447 183 1447 120 1449 c 0,417,418
 74 1451 74 1451 55 1464 c 0,419,420
 54 1464 54 1464 25 1455 c 1,421,422
 18 1429 18 1429 25 1421 c 1,423,-1
 25 1418 l 1,424,425
 19 1418 19 1418 7 1419 c 0,426,427
 -5 1421 -5 1421 -11 1421 c 1,428,429
 -20 1412 -20 1412 -30 1409 c 1,430,431
 -31 1382 -31 1382 -24 1372 c 1,432,433
 -29 1369 -29 1369 -33 1363 c 0,434,435
 -37 1356 -37 1356 -40 1353 c 0,436,437
 -38 1333 -38 1333 -14 1328 c 1,438,439
 -12 1320 -12 1320 -14 1300 c 0,440,441
 -15 1280 -15 1280 -14 1273 c 0,442,443
 -5 1224 -5 1224 -4 1230 c 1,444,445
 -11 1223 -11 1223 -12 1188 c 0,446,447
 -13 1154 -13 1154 -7 1137 c 0,448,449
 -6 1133 -6 1133 0 1129 c 0,450,451
 6 1124 6 1124 6 1125 c 1,452,453
 9 1120 9 1120 5 1113 c 0,454,455
 2 1105 2 1105 2 1103 c 0,456,457
 3 1101 3 1101 9 1097 c 0,458,459
 15 1092 15 1092 16 1091 c 0,460,461
 14 1084 14 1084 12 1072 c 1,462,-1
 22 1066 l 1,463,-1
 22 1048 l 1,464,465
 34 1021 34 1021 58 1001 c 0,466,467
 60 1000 60 1000 74 1001 c 1,468,469
 75 982 75 982 84 962 c 256,470,471
 93 942 93 942 94 924 c 1,472,-1
 97 924 l 1,473,-1
 97 921 l 1,474,475
 104 922 104 922 110 924 c 1,476,477
 108 944 108 944 101 955 c 1,478,479
 98 951 98 951 114 961 c 1,480,-1
 120 961 l 1,481,482
 116 969 116 969 104 980 c 1,483,484
 108 982 108 982 109 1007 c 0,485,486
 110 1031 110 1031 107 1041 c 1,487,488
 110 1032 110 1032 117 1186 c 1,489,-1
 127 1186 l 1,490,491
 128 1219 128 1219 158 1245 c 0,492,493
 195 1278 195 1278 202 1291 c 1,494,495
 234 1290 234 1290 336 1257 c 0,496,497
 342 1257 342 1257 354 1256 c 256,498,499
 366 1255 366 1255 372 1254 c 0,500,501
 419 1240 419 1240 431 1245 c 1,502,503
 477 1238 477 1238 486 1245 c 1,504,-1
 489 1245 l 1,505,506
 490 1251 490 1251 470 1211 c 0,507,508
 465 1202 465 1202 459 1180 c 0,509,510
 453 1160 453 1160 447 1149 c 0,511,512
 446 1147 446 1147 439 1142 c 256,513,514
 432 1137 432 1137 431 1134 c 0,515,516
 430 1134 430 1134 432 1127 c 0,517,518
 433 1120 433 1120 431 1115 c 0,519,520
 427 1109 427 1109 416 1094 c 256,521,522
 405 1079 405 1079 401 1072 c 0,523,524
 400 1063 400 1063 398 1051 c 0,525,526
 397 1048 397 1048 390 1043 c 0,527,528
 383 1039 383 1039 382 1035 c 0,529,530
 371 1012 371 1012 346 974 c 1,531,-1
 346 964 l 1,532,533
 344 964 344 964 339 963 c 0,534,535
 335 962 335 962 333 961 c 2,536,537
 333 961 333 961 333 955 c 0,538,539
 334 948 334 948 329 946 c 0,540,541
 318 943 318 943 300 940 c 0,542,543
 295 937 295 937 285 931 c 0,544,545
 274 923 274 923 270 921 c 0,546,547
 267 882 267 882 270 878 c 0,548,549
 271 875 271 875 277 865 c 1,550,-1
 290 865 l 1,551,552
 289 849 289 849 274 829 c 0,553,554
 260 811 260 811 261 794 c 1,555,-1
 270 794 l 1,556,557
 218 711 218 711 225 714 c 1,558,559
 226 704 226 704 231 699 c 0,560,561
 231 698 231 698 240 704 c 0,562,563
 250 710 250 710 257 711 c 1,564,565
 258 700 258 700 261 696 c 2,566,-1
 261 693 l 1,567,568
 265 699 265 699 276 718 c 0,569,570
 289 740 289 740 293 748 c 0,571,572
 297 754 297 754 309 761 c 0,573,574
 323 769 323 769 326 773 c 2,575,-1
 326 782 l 1,576,577
 323 778 323 778 382 825 c 1,578,579
 391 820 391 820 398 804 c 1,580,581
 405 806 405 806 411 813 c 256,582,583
 417 820 417 820 421 822 c 0,584,585
 428 827 428 827 442 830 c 0,586,587
 456 834 456 834 463 838 c 0,588,589
 468 840 468 840 479 850 c 256,590,591
 490 860 490 860 496 862 c 2,592,-1
 529 862 l 2,593,594
 530 863 530 863 541 867 c 0,595,596
 551 871 551 871 555 872 c 0,597,598
 557 872 557 872 571 870 c 0,599,600
 582 868 582 868 588 872 c 1,601,-1
 597 872 l 1,602,603
 592 860 592 860 574 850 c 1,604,605
 575 836 575 836 578 832 c 2,606,-1
 578 825 l 1,607,608
 583 824 583 824 610 825 c 0,609,610
 633 826 633 826 643 822 c 0,611,612
 652 819 652 819 667 805 c 0,613,614
 683 789 683 789 689 785 c 0,615,616
 694 783 694 783 707 779 c 0,617,618
 718 775 718 775 725 773 c 0,619,620
 772 735 772 735 813 720 c 1,621,622
 829 654 829 654 849 588 c 0,623,624
 851 581 851 581 853 563 c 0,625,626
 854 549 854 549 859 541 c 1,627,628
 859 528 859 528 859 527 c 0,629,630
 860 526 860 526 869 526 c 1,631,632
 854 398 854 398 839 369 c 0,633,634
 831 352 831 352 803 329 c 0,635,636
 772 303 772 303 764 291 c 0,637,638
 720 230 720 230 692 214 c 0,639,640
 688 212 688 212 673 206 c 0,641,642
 662 201 662 201 656 196 c 0,643,644
 652 192 652 192 645 182 c 256,645,646
 638 172 638 172 633 168 c 0,647,648
 626 161 626 161 609 154 c 0,649,650
 591 145 591 145 584 140 c 0,651,652
 583 137 583 137 579 131 c 0,653,654
 576 125 576 125 574 122 c 2,655,-1
 558 122 l 2,656,657
 555 120 555 120 546 112 c 0,658,659
 538 105 538 105 535 103 c 2,660,661
 535 103 535 103 523 101 c 256,662,663
 511 99 511 99 506 97 c 256,664,665
 501 95 501 95 493 88 c 0,666,667
 486 82 486 82 483 81 c 1,668,669
 485 82 485 82 421 91 c 1,670,-1
 421 100 l 1,671,672
 411 101 411 101 408 103 c 0,673,674
 401 105 401 105 398 106 c 2,675,-1
 398 119 l 1,676,677
 363 116 363 116 330 141 c 0,678,679
 280 177 280 177 274 180 c 1,680,-1
 274 193 l 1,681,682
 257 196 257 196 249 209 c 0,683,684
 247 212 247 212 242 222 c 0,685,686
 238 231 238 231 235 236 c 0,687,688
 231 241 231 241 214 260 c 0,689,690
 198 277 198 277 195 282 c 0,691,692
 193 286 193 286 196 291 c 0,693,694
 199 297 199 297 199 298 c 0,695,696
 198 304 198 304 182 338 c 0,697,698
 165 375 165 375 163 381 c 0,699,700
 160 390 160 390 160 416 c 0,701,702
 160 437 160 437 153 446 c 1,703,704
 153 465 153 465 146 470 c 1,705,-1
 146 473 l 1,706,-1
 143 473 l 1,707,708
 144 474 144 474 136 464 c 0,709,710
 125 451 125 451 129 397 c 0,711,712
 132 350 132 350 143 313 c 0,713,714
 152 280 152 280 215 183 c 0,715,716
 219 178 219 178 229 156 c 0,717,718
 236 139 236 139 244 131 c 0,719,720
 247 128 247 128 260 121 c 0,721,722
 271 114 271 114 274 109 c 2,723,-1
 274 94 l 2,724,725
 276 91 276 91 290 85 c 0,726,727
 304 78 304 78 306 75 c 0,728,729
 307 73 307 73 308 69 c 256,730,731
 309 65 309 65 310 63 c 0,732,733
 312 61 312 61 320 58 c 0,734,735
 327 56 327 56 329 54 c 0,736,737
 332 51 332 51 333 44 c 0,738,739
 335 37 335 37 339 35 c 0,740,741
 342 34 342 34 476 20 c 0,742,743
 478 20 478 20 490 23 c 0,744,745
 500 26 500 26 506 23 c 1,746,747
 502 27 502 27 519 7 c 1,748,749
 541 -6 541 -6 539 -2 c 1,750,751
 598 9 598 9 617 26 c 0,752,753
 618 30 618 30 620 38 c 1,754,755
 613 37 613 37 643 41 c 1,756,-1
 646 51 l 1,757,758
 653 54 653 54 669 54 c 0,759,760
 684 54 684 54 692 60 c 1,761,-1
 699 60 l 1,762,-1
 699 57 l 1,763,764
 691 52 691 52 665 32 c 0,765,766
 640 11 640 11 624 1 c 0,767,768
 569 -33 569 -33 529 -11 c 0,769,770
 526 -13 526 -13 506 -23 c 0,771,772
 506 -25 506 -25 522 -54 c 1,773,774
 576 -64 576 -64 588 -57 c 0,775,776
 589 -57 589 -57 592 -51 c 0,777,778
 595 -46 595 -46 597 -45 c 2,779,-1
 623 -45 l 1,780,781
 632 -41 632 -41 646 -24 c 0,782,783
 658 -11 658 -11 676 -8 c 1,784,-1
 676 7 l 2,785,786
 678 10 678 10 688 11 c 0,787,788
 700 12 700 12 702 14 c 0,789,790
 705 16 705 16 710 22 c 0,791,792
 717 31 717 31 718 32 c 256,793,794
 719 33 719 33 718 35 c 0,795,796
 721 39 721 39 726 41 c 0,797,798
 732 42 732 42 735 44 c 0,799,800
 782 93 782 93 787 122 c 1,801,802
 808 115 808 115 820 115 c 0,803,804
 822 118 822 118 832 124 c 0,805,806
 840 130 840 130 842 134 c 0,807,808
 843 137 843 137 844 142 c 256,809,810
 845 147 845 147 846 149 c 256,811,812
 847 151 847 151 853 151 c 0,813,814
 857 150 857 150 859 153 c 2,815,-1
 859 168 l 2,816,817
 861 175 861 175 870 186 c 256,818,819
 879 197 879 197 882 202 c 2,820,-1
 885 223 l 2,821,822
 889 232 889 232 904 245 c 0,823,824
 920 260 920 260 924 267 c 0,825,826
 928 292 928 292 927 288 c 1,827,828
 930 289 930 289 936 291 c 0,829,830
 941 293 941 293 944 294 c 0,831,832
 967 329 967 329 986 455 c 0,833,834
 987 461 987 461 986 478 c 0,835,836
 985 494 985 494 986 501 c 0,837,305
 994 536 994 536 996 532 c 1,306,307
EndSplineSet
EndChar

StartChar: four
Encoding: 52 52 23
Width: 1014
GlyphClass: 1
Flags: W
LayerCount: 2
Fore
SplineSet
608 796 m 1,0,-1
 600 796 l 1,1,2
 600 819 600 819 610 932 c 0,3,4
 616 1010 616 1010 608 1046 c 1,5,6
 616 1051 616 1051 620 1054 c 1,7,8
 629 1045 629 1045 628 1016 c 0,9,10
 628 988 628 988 620 979 c 1,11,12
 623 976 623 976 632 975 c 1,13,14
 625 959 625 959 621 904 c 0,15,16
 618 853 618 853 608 836 c 1,17,-1
 608 796 l 1,0,-1
620 -23 m 1,18,19
 623 -14 623 -14 624 -12 c 1,20,21
 626 -15 626 -15 628 -23 c 1,22,-1
 620 -23 l 1,18,19
596 107 m 1,24,25
 589 127 589 127 591 165 c 0,26,27
 594 206 594 206 588 230 c 0,28,29
 579 267 579 267 588 388 c 1,30,-1
 600 388 l 1,31,32
 600 390 600 390 600 246 c 0,33,34
 600 163 600 163 600 163 c 2,35,36
 603 160 603 160 612 159 c 1,37,38
 609 125 609 125 600 111 c 0,39,23
 598 109 598 109 596 107 c 1,24,25
608 44 m 1,40,41
 598 58 598 58 596 87 c 1,42,-1
 608 87 l 1,43,44
 606 82 606 82 609 69 c 0,45,46
 611 58 611 58 608 52 c 2,47,-1
 608 44 l 1,40,41
588 444 m 1,49,-1
 588 440 l 1,50,51
 580 443 580 443 576 448 c 1,52,48
 591 443 591 443 588 444 c 1,49,-1
125 515 m 1,53,54
 130 542 130 542 132 555 c 1,55,-1
 164 555 l 1,56,57
 193 603 193 603 311 610 c 1,58,59
 292 594 292 594 221 568 c 0,60,61
 158 545 158 545 136 515 c 1,62,-1
 125 515 l 1,53,54
93 690 m 1,64,65
 108 682 108 682 93 789 c 0,66,67
 91 803 91 803 103 859 c 0,68,69
 119 928 119 928 121 939 c 1,70,-1
 115 962 l 2,71,72
 110 983 110 983 113 991 c 0,73,74
 117 1005 117 1005 135 1088 c 0,75,76
 149 1151 149 1151 164 1181 c 1,77,78
 170 1170 170 1170 163 1147 c 0,79,80
 156 1121 156 1121 156 1117 c 0,81,82
 156 1116 156 1116 162 1106 c 0,83,84
 166 1098 166 1098 164 1090 c 0,85,86
 164 1089 164 1089 159 1080 c 0,87,88
 155 1073 155 1073 156 1066 c 0,89,90
 160 1037 160 1037 144 991 c 1,91,-1
 144 951 l 1,92,93
 139 931 139 931 129 876 c 0,94,95
 120 830 120 830 113 808 c 0,96,97
 110 800 110 800 116 788 c 256,98,99
 122 776 122 776 117 765 c 0,100,63
 93 719 93 719 93 690 c 1,64,65
77 594 m 1,101,-1
 73 594 l 1,102,103
 74 603 74 603 75 618 c 0,104,105
 76 635 76 635 77 642 c 1,106,107
 94 621 94 621 77 602 c 1,108,-1
 77 594 l 1,101,-1
69 583 m 1,109,-1
 69 579 l 1,110,-1
 65 579 l 1,111,-1
 65 587 l 1,112,113
 71 584 71 584 73 583 c 1,114,-1
 69 583 l 1,109,-1
73 491 m 1,115,116
 62 421 62 421 45 400 c 1,117,-1
 45 392 l 1,118,-1
 41 392 l 1,119,120
 42 446 42 446 61 543 c 1,121,122
 64 538 64 538 62 531 c 0,123,124
 59 523 59 523 61 515 c 0,125,126
 62 513 62 513 67 507 c 0,127,128
 73 500 73 500 73 499 c 2,129,-1
 73 491 l 1,115,116
33 305 m 1,130,-1
 29 305 l 1,131,-1
 29 309 l 1,132,-1
 26 309 l 1,133,134
 26 320 26 320 29 329 c 1,135,136
 31 328 31 328 35 327 c 256,137,138
 39 326 39 326 41 325 c 0,139,140
 38 315 38 315 33 309 c 1,141,-1
 33 305 l 1,130,-1
69 575 m 1,142,143
 68 560 68 560 65 555 c 2,144,-1
 65 547 l 2,145,146
 66 546 66 546 61 575 c 1,147,-1
 69 575 l 1,142,143
81 666 m 1,148,-1
 85 666 l 1,149,-1
 85 658 l 1,150,-1
 81 658 l 1,151,-1
 81 666 l 1,148,-1
216 1244 m 1,152,153
 221 1242 221 1242 224 1240 c 1,154,-1
 220 1240 l 1,155,-1
 220 1236 l 1,156,-1
 216 1236 l 1,157,-1
 216 1244 l 1,152,153
228 1288 m 1,158,159
 227 1283 227 1283 226 1274 c 0,160,161
 224 1265 224 1265 224 1260 c 1,162,-1
 216 1260 l 1,163,164
 219 1278 219 1278 220 1288 c 1,165,-1
 228 1288 l 1,158,159
1015 504 m 0,167,168
 994 496 994 496 984 499 c 0,169,170
 956 510 956 510 850 510 c 0,171,172
 753 510 753 510 715 535 c 1,173,174
 718 534 718 534 691 555 c 1,175,176
 692 561 692 561 697 575 c 256,177,178
 702 589 702 589 703 594 c 0,179,180
 702 607 702 607 701 632 c 256,181,182
 700 657 700 657 699 670 c 1,183,184
 700 670 700 670 703 672 c 0,185,186
 706 673 706 673 707 674 c 0,187,188
 706 679 706 679 705 694 c 0,189,190
 704 706 704 706 703 713 c 0,191,192
 724 777 724 777 734 887 c 0,193,194
 745 1011 745 1011 758 1066 c 0,195,196
 760 1074 760 1074 757 1090 c 0,197,198
 754 1107 754 1107 754 1109 c 1,199,200
 753 1101 753 1101 782 1248 c 0,201,202
 783 1252 783 1252 781 1276 c 0,203,204
 778 1299 778 1299 782 1311 c 0,205,206
 786 1324 786 1324 793 1360 c 0,207,208
 800 1394 800 1394 806 1410 c 0,209,210
 850 1529 850 1529 849 1565 c 1,211,212
 821 1564 821 1564 811 1542 c 0,213,214
 790 1492 790 1492 794 1498 c 1,215,216
 766 1473 766 1473 762 1470 c 0,217,218
 752 1452 752 1452 743 1410 c 1,219,220
 738 1411 738 1411 691 1407 c 1,221,222
 688 1356 688 1356 663 1260 c 0,223,224
 659 1243 659 1243 663 1216 c 0,225,226
 666 1193 666 1193 659 1181 c 1,227,-1
 659 1177 l 1,228,229
 639 1203 639 1203 640 1264 c 1,230,231
 638 1261 638 1261 647 1284 c 1,232,233
 644 1285 644 1285 636 1288 c 1,234,235
 626 1306 626 1306 632 1363 c 1,236,237
 605 1385 605 1385 600 1387 c 0,238,239
 592 1393 592 1393 568 1395 c 1,240,241
 566 1387 566 1387 560 1380 c 256,242,243
 554 1373 554 1373 552 1367 c 0,244,245
 549 1354 549 1354 555 1338 c 0,246,247
 562 1320 562 1320 560 1311 c 0,248,249
 554 1275 554 1275 556 1268 c 0,250,251
 557 1267 557 1267 561 1262 c 256,252,253
 565 1257 565 1257 564 1252 c 0,254,255
 559 1203 559 1203 560 1193 c 0,256,257
 571 1125 571 1125 568 1109 c 0,258,259
 560 1067 560 1067 560 1066 c 256,260,261
 560 1065 560 1065 565 1063 c 0,262,263
 569 1061 569 1061 568 1058 c 0,264,265
 556 1013 556 1013 556 1014 c 1,266,267
 557 1013 557 1013 562 996 c 0,268,269
 566 981 566 981 564 975 c 0,270,271
 564 973 564 973 558 963 c 0,272,273
 553 954 553 954 552 951 c 0,274,275
 550 936 550 936 560 888 c 1,276,277
 560 890 560 890 548 840 c 0,278,279
 543 816 543 816 560 785 c 0,280,281
 560 783 560 783 552 774 c 0,282,283
 546 767 546 767 548 761 c 0,284,285
 549 760 549 760 554 757 c 256,286,287
 559 754 559 754 560 753 c 1,288,289
 546 742 546 742 544 694 c 0,290,291
 541 641 541 641 533 626 c 0,292,293
 529 624 529 624 410 654 c 0,294,295
 301 681 301 681 216 658 c 0,296,297
 210 656 210 656 188 647 c 0,298,299
 170 640 170 640 156 638 c 1,300,301
 159 713 159 713 196 808 c 0,302,303
 200 820 200 820 208 888 c 1,304,305
 209 883 209 883 204 907 c 1,306,307
 211 910 211 910 216 911 c 1,308,309
 216 921 216 921 218 939 c 0,310,311
 219 958 219 958 220 967 c 0,312,313
 231 1005 231 1005 239 1050 c 1,314,315
 238 1041 238 1041 259 1214 c 0,316,317
 272 1315 272 1315 299 1351 c 1,318,319
 298 1362 298 1362 291 1375 c 1,320,321
 250 1374 250 1374 243 1344 c 0,322,323
 231 1299 231 1299 228 1296 c 2,324,-1
 228 1292 l 1,325,-1
 224 1292 l 1,326,327
 220 1296 220 1296 216 1300 c 1,328,329
 227 1362 227 1362 220 1371 c 0,330,331
 219 1372 219 1372 216 1379 c 1,332,333
 201 1379 201 1379 196 1383 c 1,334,335
 160 1382 160 1382 167 1340 c 0,336,337
 177 1282 177 1282 172 1272 c 1,338,339
 171 1261 171 1261 160 1244 c 1,340,341
 152 1243 152 1243 136 1240 c 1,342,343
 136 1306 136 1306 164 1319 c 1,344,345
 163 1331 163 1331 160 1335 c 0,346,347
 159 1337 159 1337 154 1339 c 0,348,349
 150 1342 150 1342 148 1343 c 0,350,351
 136 1339 136 1339 132 1327 c 1,352,353
 112 1331 112 1331 107 1358 c 0,354,355
 101 1393 101 1393 97 1399 c 0,356,357
 93 1408 93 1408 80 1414 c 0,358,359
 66 1421 66 1421 61 1426 c 1,360,361
 53 1425 53 1425 49 1422 c 0,362,363
 31 1416 31 1416 37 1418 c 1,364,365
 37 1426 37 1426 61 1355 c 0,366,367
 60 1349 60 1349 57 1327 c 1,368,369
 64 1309 64 1309 77 1284 c 1,370,371
 70 1268 70 1268 74 1239 c 0,372,373
 78 1202 78 1202 77 1197 c 0,374,375
 64 1069 64 1069 61 1058 c 0,376,377
 60 1052 60 1052 64 1032 c 0,378,379
 69 1013 69 1013 65 1002 c 0,380,381
 52 961 52 961 41 915 c 0,382,383
 39 904 39 904 44 882 c 256,384,385
 49 860 49 860 45 848 c 0,386,387
 44 844 44 844 37 828 c 0,388,389
 30 814 30 814 29 808 c 0,390,391
 29 802 29 802 34 798 c 0,392,393
 39 795 39 795 37 789 c 0,394,395
 37 785 37 785 30 775 c 0,396,397
 22 765 22 765 22 761 c 1,398,399
 23 766 23 766 29 741 c 0,400,401
 31 736 31 736 14 694 c 1,402,403
 19 675 19 675 10 630 c 1,404,405
 13 604 13 604 14 602 c 0,406,407
 8 573 8 573 5 518 c 0,408,409
 2 464 2 464 -2 444 c 0,410,411
 -20 364 -20 364 -14 321 c 1,412,413
 -21 278 -21 278 -22 270 c 0,414,415
 -13 240 -13 240 -2 218 c 1,416,417
 -10 197 -10 197 -6 186 c 0,418,419
 -3 179 -3 179 8 163 c 0,420,421
 19 148 19 148 22 139 c 1,422,423
 39 139 39 139 49 143 c 1,424,425
 50 148 50 148 51 157 c 0,426,427
 53 166 53 166 53 171 c 0,428,429
 53 172 53 172 46 178 c 0,430,431
 41 184 41 184 41 186 c 0,432,433
 46 201 46 201 52 204 c 0,434,435
 60 209 60 209 61 210 c 0,436,437
 66 217 66 217 68 242 c 0,438,439
 70 270 70 270 73 278 c 0,440,441
 81 300 81 300 100 334 c 0,442,443
 125 381 125 381 129 388 c 0,444,445
 132 390 132 390 140 392 c 1,446,447
 147 369 147 369 136 353 c 1,448,449
 139 351 139 351 147 347 c 0,450,451
 153 345 153 345 156 341 c 1,452,453
 146 337 146 337 220 444 c 0,454,455
 254 493 254 493 311 515 c 0,456,457
 357 533 357 533 354 531 c 1,458,459
 371 528 371 528 404 516 c 0,460,461
 443 502 443 502 453 499 c 0,462,463
 462 497 462 497 492 497 c 0,464,465
 519 497 519 497 529 491 c 0,466,467
 535 483 535 483 533 474 c 0,468,469
 531 462 531 462 533 456 c 0,470,471
 533 454 533 454 539 449 c 0,472,473
 544 445 544 445 544 444 c 0,474,475
 540 403 540 403 537 369 c 0,476,477
 539 348 539 348 542 287 c 0,478,479
 544 227 544 227 548 194 c 0,480,481
 549 182 549 182 550 159 c 0,482,483
 552 135 552 135 552 123 c 1,484,485
 576 62 576 62 576 60 c 256,486,487
 576 58 576 58 568 48 c 1,488,489
 573 32 573 32 592 24 c 1,490,491
 591 19 591 19 584 4 c 1,492,493
 610 -5 610 -5 608 -4 c 1,494,495
 610 -6 610 -6 610 -12 c 0,496,497
 610 -20 610 -20 612 -23 c 0,498,499
 613 -27 613 -27 622 -40 c 0,500,501
 630 -51 630 -51 632 -59 c 0,502,503
 633 -68 633 -68 630 -96 c 0,504,505
 627 -123 627 -123 632 -138 c 0,506,507
 641 -171 641 -171 645 -253 c 0,508,509
 648 -334 648 -334 659 -372 c 0,510,511
 665 -392 665 -392 662 -430 c 0,512,513
 660 -461 660 -461 671 -479 c 0,514,515
 674 -481 674 -481 679 -483 c 1,516,517
 682 -474 682 -474 678 -451 c 0,518,519
 673 -428 673 -428 675 -420 c 0,520,521
 676 -416 676 -416 683 -409 c 256,522,523
 690 -402 690 -402 691 -400 c 0,524,525
 697 -385 697 -385 691 -358 c 0,526,527
 683 -325 683 -325 683 -321 c 0,528,529
 684 -297 684 -297 679 -245 c 0,530,531
 674 -196 674 -196 675 -178 c 0,532,533
 671 -123 671 -123 667 -83 c 1,534,535
 673 -54 673 -54 667 16 c 0,536,537
 667 23 667 23 670 45 c 0,538,539
 672 65 672 65 671 68 c 0,540,541
 671 70 671 70 664 73 c 0,542,543
 659 76 659 76 659 83 c 0,544,545
 667 160 667 160 671 282 c 0,546,547
 675 399 675 399 683 472 c 1,548,549
 680 472 680 472 703 460 c 0,550,551
 715 453 715 453 730 461 c 0,552,553
 734 463 734 463 740 467 c 0,554,555
 745 471 745 471 746 472 c 0,556,557
 773 469 773 469 786 468 c 1,558,559
 833 485 833 485 826 487 c 1,560,561
 853 473 853 473 857 472 c 0,562,563
 867 473 867 473 956 477 c 0,564,565
 1024 480 1024 480 1052 495 c 1,566,567
 1049 504 1049 504 1044 507 c 0,568,166
 1036 511 1036 511 1015 504 c 0,167,168
EndSplineSet
EndChar

